<?xml version="1.0" encoding="utf-8" standalone="no"?>
<!DOCTYPE svg PUBLIC "-//W3C//DTD SVG 1.1//EN"
  "http://www.w3.org/Graphics/SVG/1.1/DTD/svg11.dtd">
<!-- Created with matplotlib (https://matplotlib.org/) -->
<svg xmlns:xlink="http://www.w3.org/1999/xlink" height="288pt" version="1.1" viewBox="0 0 720 288" width="720pt"
     xmlns="http://www.w3.org/2000/svg">
 <defs>
  <style type="text/css">
*{stroke-linecap:butt;stroke-linejoin:round;}
  </style>
 </defs>
 <g id="figure_1">
  <g id="patch_1">
      <path d="M 0 288
L 720 288 
L 720 0 
L 0 0 
z
" style="fill:#ffffff;"/>
  </g>
  <g id="axes_1">
   <g id="patch_2">
       <path d="M 90 252
L 648 252 
L 648 34.56 
L 90 34.56 
z
" style="fill:#ffffff;"/>
   </g>
   <g id="matplotlib.axis_1">
    <g id="xtick_1">
     <g id="line2d_1">
         <path clip-path="url(#p6844d867fc)" d="M 115.363636 252
L 115.363636 34.56 
" style="fill:none;stroke:#cccccc;stroke-linecap:round;stroke-width:0.8;"/>
     </g>
     <g id="text_1">
      <!-- 0 -->
      <defs>
       <path d="M 31.78125 66.40625 
Q 24.171875 66.40625 20.328125 58.90625 
Q 16.5 51.421875 16.5 36.375 
Q 16.5 21.390625 20.328125 13.890625 
Q 24.171875 6.390625 31.78125 6.390625 
Q 39.453125 6.390625 43.28125 13.890625 
Q 47.125 21.390625 47.125 36.375 
Q 47.125 51.421875 43.28125 58.90625 
Q 39.453125 66.40625 31.78125 66.40625 
z
M 31.78125 74.21875 
Q 44.046875 74.21875 50.515625 64.515625 
Q 56.984375 54.828125 56.984375 36.375 
Q 56.984375 17.96875 50.515625 8.265625 
Q 44.046875 -1.421875 31.78125 -1.421875 
Q 19.53125 -1.421875 13.0625 8.265625 
Q 6.59375 17.96875 6.59375 36.375 
Q 6.59375 54.828125 13.0625 64.515625 
Q 19.53125 74.21875 31.78125 74.21875 
z
" id="DejaVuSans-48"/>
      </defs>
         <g style="fill:#262626;" transform="translate(112.182386 266.598437)scale(0.1 -0.1)">
       <use xlink:href="#DejaVuSans-48"/>
      </g>
     </g>
    </g>
    <g id="xtick_2">
     <g id="line2d_2">
         <path clip-path="url(#p6844d867fc)" d="M 183.453935 252
L 183.453935 34.56 
" style="fill:none;stroke:#cccccc;stroke-linecap:round;stroke-width:0.8;"/>
     </g>
     <g id="text_2">
      <!-- 20 -->
      <defs>
       <path d="M 19.1875 8.296875 
L 53.609375 8.296875 
L 53.609375 0 
L 7.328125 0 
L 7.328125 8.296875 
Q 12.9375 14.109375 22.625 23.890625 
Q 32.328125 33.6875 34.8125 36.53125 
Q 39.546875 41.84375 41.421875 45.53125 
Q 43.3125 49.21875 43.3125 52.78125 
Q 43.3125 58.59375 39.234375 62.25 
Q 35.15625 65.921875 28.609375 65.921875 
Q 23.96875 65.921875 18.8125 64.3125 
Q 13.671875 62.703125 7.8125 59.421875 
L 7.8125 69.390625 
Q 13.765625 71.78125 18.9375 73 
Q 24.125 74.21875 28.421875 74.21875 
Q 39.75 74.21875 46.484375 68.546875 
Q 53.21875 62.890625 53.21875 53.421875 
Q 53.21875 48.921875 51.53125 44.890625 
Q 49.859375 40.875 45.40625 35.40625 
Q 44.1875 33.984375 37.640625 27.21875 
Q 31.109375 20.453125 19.1875 8.296875 
z
" id="DejaVuSans-50"/>
      </defs>
         <g style="fill:#262626;" transform="translate(177.091435 266.598437)scale(0.1 -0.1)">
       <use xlink:href="#DejaVuSans-50"/>
       <use x="63.623047" xlink:href="#DejaVuSans-48"/>
      </g>
     </g>
    </g>
    <g id="xtick_3">
     <g id="line2d_3">
         <path clip-path="url(#p6844d867fc)" d="M 251.544234 252
L 251.544234 34.56 
" style="fill:none;stroke:#cccccc;stroke-linecap:round;stroke-width:0.8;"/>
     </g>
     <g id="text_3">
      <!-- 40 -->
      <defs>
       <path d="M 37.796875 64.3125 
L 12.890625 25.390625 
L 37.796875 25.390625 
z
M 35.203125 72.90625 
L 47.609375 72.90625 
L 47.609375 25.390625 
L 58.015625 25.390625 
L 58.015625 17.1875 
L 47.609375 17.1875 
L 47.609375 0 
L 37.796875 0 
L 37.796875 17.1875 
L 4.890625 17.1875 
L 4.890625 26.703125 
z
" id="DejaVuSans-52"/>
      </defs>
         <g style="fill:#262626;" transform="translate(245.181734 266.598437)scale(0.1 -0.1)">
       <use xlink:href="#DejaVuSans-52"/>
       <use x="63.623047" xlink:href="#DejaVuSans-48"/>
      </g>
     </g>
    </g>
    <g id="xtick_4">
     <g id="line2d_4">
         <path clip-path="url(#p6844d867fc)" d="M 319.634533 252
L 319.634533 34.56 
" style="fill:none;stroke:#cccccc;stroke-linecap:round;stroke-width:0.8;"/>
     </g>
     <g id="text_4">
      <!-- 60 -->
      <defs>
       <path d="M 33.015625 40.375 
Q 26.375 40.375 22.484375 35.828125 
Q 18.609375 31.296875 18.609375 23.390625 
Q 18.609375 15.53125 22.484375 10.953125 
Q 26.375 6.390625 33.015625 6.390625 
Q 39.65625 6.390625 43.53125 10.953125 
Q 47.40625 15.53125 47.40625 23.390625 
Q 47.40625 31.296875 43.53125 35.828125 
Q 39.65625 40.375 33.015625 40.375 
z
M 52.59375 71.296875 
L 52.59375 62.3125 
Q 48.875 64.0625 45.09375 64.984375 
Q 41.3125 65.921875 37.59375 65.921875 
Q 27.828125 65.921875 22.671875 59.328125 
Q 17.53125 52.734375 16.796875 39.40625 
Q 19.671875 43.65625 24.015625 45.921875 
Q 28.375 48.1875 33.59375 48.1875 
Q 44.578125 48.1875 50.953125 41.515625 
Q 57.328125 34.859375 57.328125 23.390625 
Q 57.328125 12.15625 50.6875 5.359375 
Q 44.046875 -1.421875 33.015625 -1.421875 
Q 20.359375 -1.421875 13.671875 8.265625 
Q 6.984375 17.96875 6.984375 36.375 
Q 6.984375 53.65625 15.1875 63.9375 
Q 23.390625 74.21875 37.203125 74.21875 
Q 40.921875 74.21875 44.703125 73.484375 
Q 48.484375 72.75 52.59375 71.296875 
z
" id="DejaVuSans-54"/>
      </defs>
         <g style="fill:#262626;" transform="translate(313.272033 266.598437)scale(0.1 -0.1)">
       <use xlink:href="#DejaVuSans-54"/>
       <use x="63.623047" xlink:href="#DejaVuSans-48"/>
      </g>
     </g>
    </g>
    <g id="xtick_5">
     <g id="line2d_5">
         <path clip-path="url(#p6844d867fc)" d="M 387.724832 252
L 387.724832 34.56 
" style="fill:none;stroke:#cccccc;stroke-linecap:round;stroke-width:0.8;"/>
     </g>
     <g id="text_5">
      <!-- 80 -->
      <defs>
       <path d="M 31.78125 34.625 
Q 24.75 34.625 20.71875 30.859375 
Q 16.703125 27.09375 16.703125 20.515625 
Q 16.703125 13.921875 20.71875 10.15625 
Q 24.75 6.390625 31.78125 6.390625 
Q 38.8125 6.390625 42.859375 10.171875 
Q 46.921875 13.96875 46.921875 20.515625 
Q 46.921875 27.09375 42.890625 30.859375 
Q 38.875 34.625 31.78125 34.625 
z
M 21.921875 38.8125 
Q 15.578125 40.375 12.03125 44.71875 
Q 8.5 49.078125 8.5 55.328125 
Q 8.5 64.0625 14.71875 69.140625 
Q 20.953125 74.21875 31.78125 74.21875 
Q 42.671875 74.21875 48.875 69.140625 
Q 55.078125 64.0625 55.078125 55.328125 
Q 55.078125 49.078125 51.53125 44.71875 
Q 48 40.375 41.703125 38.8125 
Q 48.828125 37.15625 52.796875 32.3125 
Q 56.78125 27.484375 56.78125 20.515625 
Q 56.78125 9.90625 50.3125 4.234375 
Q 43.84375 -1.421875 31.78125 -1.421875 
Q 19.734375 -1.421875 13.25 4.234375 
Q 6.78125 9.90625 6.78125 20.515625 
Q 6.78125 27.484375 10.78125 32.3125 
Q 14.796875 37.15625 21.921875 38.8125 
z
M 18.3125 54.390625 
Q 18.3125 48.734375 21.84375 45.5625 
Q 25.390625 42.390625 31.78125 42.390625 
Q 38.140625 42.390625 41.71875 45.5625 
Q 45.3125 48.734375 45.3125 54.390625 
Q 45.3125 60.0625 41.71875 63.234375 
Q 38.140625 66.40625 31.78125 66.40625 
Q 25.390625 66.40625 21.84375 63.234375 
Q 18.3125 60.0625 18.3125 54.390625 
z
" id="DejaVuSans-56"/>
      </defs>
         <g style="fill:#262626;" transform="translate(381.362332 266.598437)scale(0.1 -0.1)">
       <use xlink:href="#DejaVuSans-56"/>
       <use x="63.623047" xlink:href="#DejaVuSans-48"/>
      </g>
     </g>
    </g>
    <g id="xtick_6">
     <g id="line2d_6">
         <path clip-path="url(#p6844d867fc)" d="M 455.815131 252
L 455.815131 34.56 
" style="fill:none;stroke:#cccccc;stroke-linecap:round;stroke-width:0.8;"/>
     </g>
     <g id="text_6">
      <!-- 100 -->
      <defs>
       <path d="M 12.40625 8.296875 
L 28.515625 8.296875 
L 28.515625 63.921875 
L 10.984375 60.40625 
L 10.984375 69.390625 
L 28.421875 72.90625 
L 38.28125 72.90625 
L 38.28125 8.296875 
L 54.390625 8.296875 
L 54.390625 0 
L 12.40625 0 
z
" id="DejaVuSans-49"/>
      </defs>
         <g style="fill:#262626;" transform="translate(446.271381 266.598437)scale(0.1 -0.1)">
       <use xlink:href="#DejaVuSans-49"/>
       <use x="63.623047" xlink:href="#DejaVuSans-48"/>
       <use x="127.246094" xlink:href="#DejaVuSans-48"/>
      </g>
     </g>
    </g>
    <g id="xtick_7">
     <g id="line2d_7">
         <path clip-path="url(#p6844d867fc)" d="M 523.90543 252
L 523.90543 34.56 
" style="fill:none;stroke:#cccccc;stroke-linecap:round;stroke-width:0.8;"/>
     </g>
     <g id="text_7">
      <!-- 120 -->
         <g style="fill:#262626;" transform="translate(514.36168 266.598437)scale(0.1 -0.1)">
       <use xlink:href="#DejaVuSans-49"/>
       <use x="63.623047" xlink:href="#DejaVuSans-50"/>
       <use x="127.246094" xlink:href="#DejaVuSans-48"/>
      </g>
     </g>
    </g>
    <g id="xtick_8">
     <g id="line2d_8">
         <path clip-path="url(#p6844d867fc)" d="M 591.995729 252
L 591.995729 34.56 
" style="fill:none;stroke:#cccccc;stroke-linecap:round;stroke-width:0.8;"/>
     </g>
     <g id="text_8">
      <!-- 140 -->
         <g style="fill:#262626;" transform="translate(582.451979 266.598437)scale(0.1 -0.1)">
       <use xlink:href="#DejaVuSans-49"/>
       <use x="63.623047" xlink:href="#DejaVuSans-52"/>
       <use x="127.246094" xlink:href="#DejaVuSans-48"/>
      </g>
     </g>
    </g>
    <g id="text_9">
     <!-- epoch -->
     <defs>
      <path d="M 56.203125 29.59375 
L 56.203125 25.203125 
L 14.890625 25.203125 
Q 15.484375 15.921875 20.484375 11.0625 
Q 25.484375 6.203125 34.421875 6.203125 
Q 39.59375 6.203125 44.453125 7.46875 
Q 49.3125 8.734375 54.109375 11.28125 
L 54.109375 2.78125 
Q 49.265625 0.734375 44.1875 -0.34375 
Q 39.109375 -1.421875 33.890625 -1.421875 
Q 20.796875 -1.421875 13.15625 6.1875 
Q 5.515625 13.8125 5.515625 26.8125 
Q 5.515625 40.234375 12.765625 48.109375 
Q 20.015625 56 32.328125 56 
Q 43.359375 56 49.78125 48.890625 
Q 56.203125 41.796875 56.203125 29.59375 
z
M 47.21875 32.234375 
Q 47.125 39.59375 43.09375 43.984375 
Q 39.0625 48.390625 32.421875 48.390625 
Q 24.90625 48.390625 20.390625 44.140625 
Q 15.875 39.890625 15.1875 32.171875 
z
" id="DejaVuSans-101"/>
      <path d="M 18.109375 8.203125 
L 18.109375 -20.796875 
L 9.078125 -20.796875 
L 9.078125 54.6875 
L 18.109375 54.6875 
L 18.109375 46.390625 
Q 20.953125 51.265625 25.265625 53.625 
Q 29.59375 56 35.59375 56 
Q 45.5625 56 51.78125 48.09375 
Q 58.015625 40.1875 58.015625 27.296875 
Q 58.015625 14.40625 51.78125 6.484375 
Q 45.5625 -1.421875 35.59375 -1.421875 
Q 29.59375 -1.421875 25.265625 0.953125 
Q 20.953125 3.328125 18.109375 8.203125 
z
M 48.6875 27.296875 
Q 48.6875 37.203125 44.609375 42.84375 
Q 40.53125 48.484375 33.40625 48.484375 
Q 26.265625 48.484375 22.1875 42.84375 
Q 18.109375 37.203125 18.109375 27.296875 
Q 18.109375 17.390625 22.1875 11.75 
Q 26.265625 6.109375 33.40625 6.109375 
Q 40.53125 6.109375 44.609375 11.75 
Q 48.6875 17.390625 48.6875 27.296875 
z
" id="DejaVuSans-112"/>
      <path d="M 30.609375 48.390625 
Q 23.390625 48.390625 19.1875 42.75 
Q 14.984375 37.109375 14.984375 27.296875 
Q 14.984375 17.484375 19.15625 11.84375 
Q 23.34375 6.203125 30.609375 6.203125 
Q 37.796875 6.203125 41.984375 11.859375 
Q 46.1875 17.53125 46.1875 27.296875 
Q 46.1875 37.015625 41.984375 42.703125 
Q 37.796875 48.390625 30.609375 48.390625 
z
M 30.609375 56 
Q 42.328125 56 49.015625 48.375 
Q 55.71875 40.765625 55.71875 27.296875 
Q 55.71875 13.875 49.015625 6.21875 
Q 42.328125 -1.421875 30.609375 -1.421875 
Q 18.84375 -1.421875 12.171875 6.21875 
Q 5.515625 13.875 5.515625 27.296875 
Q 5.515625 40.765625 12.171875 48.375 
Q 18.84375 56 30.609375 56 
z
" id="DejaVuSans-111"/>
      <path d="M 48.78125 52.59375 
L 48.78125 44.1875 
Q 44.96875 46.296875 41.140625 47.34375 
Q 37.3125 48.390625 33.40625 48.390625 
Q 24.65625 48.390625 19.8125 42.84375 
Q 14.984375 37.3125 14.984375 27.296875 
Q 14.984375 17.28125 19.8125 11.734375 
Q 24.65625 6.203125 33.40625 6.203125 
Q 37.3125 6.203125 41.140625 7.25 
Q 44.96875 8.296875 48.78125 10.40625 
L 48.78125 2.09375 
Q 45.015625 0.34375 40.984375 -0.53125 
Q 36.96875 -1.421875 32.421875 -1.421875 
Q 20.0625 -1.421875 12.78125 6.34375 
Q 5.515625 14.109375 5.515625 27.296875 
Q 5.515625 40.671875 12.859375 48.328125 
Q 20.21875 56 33.015625 56 
Q 37.15625 56 41.109375 55.140625 
Q 45.0625 54.296875 48.78125 52.59375 
z
" id="DejaVuSans-99"/>
      <path d="M 54.890625 33.015625 
L 54.890625 0 
L 45.90625 0 
L 45.90625 32.71875 
Q 45.90625 40.484375 42.875 44.328125 
Q 39.84375 48.1875 33.796875 48.1875 
Q 26.515625 48.1875 22.3125 43.546875 
Q 18.109375 38.921875 18.109375 30.90625 
L 18.109375 0 
L 9.078125 0 
L 9.078125 75.984375 
L 18.109375 75.984375 
L 18.109375 46.1875 
Q 21.34375 51.125 25.703125 53.5625 
Q 30.078125 56 35.796875 56 
Q 45.21875 56 50.046875 50.171875 
Q 54.890625 44.34375 54.890625 33.015625 
z
" id="DejaVuSans-104"/>
     </defs>
        <g style="fill:#262626;" transform="translate(353.771875 280.276563)scale(0.1 -0.1)">
      <use xlink:href="#DejaVuSans-101"/>
      <use x="61.523438" xlink:href="#DejaVuSans-112"/>
      <use x="125" xlink:href="#DejaVuSans-111"/>
      <use x="186.181641" xlink:href="#DejaVuSans-99"/>
      <use x="241.162109" xlink:href="#DejaVuSans-104"/>
     </g>
    </g>
   </g>
   <g id="matplotlib.axis_2">
    <g id="ytick_1">
     <g id="line2d_9">
         <path clip-path="url(#p6844d867fc)" d="M 90 229.434381
L 648 229.434381 
" style="fill:none;stroke:#cccccc;stroke-linecap:round;stroke-width:0.8;"/>
     </g>
     <g id="text_10">
      <!-- 0.5 -->
      <defs>
       <path d="M 10.6875 12.40625 
L 21 12.40625 
L 21 0 
L 10.6875 0 
z
" id="DejaVuSans-46"/>
       <path d="M 10.796875 72.90625 
L 49.515625 72.90625 
L 49.515625 64.59375 
L 19.828125 64.59375 
L 19.828125 46.734375 
Q 21.96875 47.46875 24.109375 47.828125 
Q 26.265625 48.1875 28.421875 48.1875 
Q 40.625 48.1875 47.75 41.5 
Q 54.890625 34.8125 54.890625 23.390625 
Q 54.890625 11.625 47.5625 5.09375 
Q 40.234375 -1.421875 26.90625 -1.421875 
Q 22.3125 -1.421875 17.546875 -0.640625 
Q 12.796875 0.140625 7.71875 1.703125 
L 7.71875 11.625 
Q 12.109375 9.234375 16.796875 8.0625 
Q 21.484375 6.890625 26.703125 6.890625 
Q 35.15625 6.890625 40.078125 11.328125 
Q 45.015625 15.765625 45.015625 23.390625 
Q 45.015625 31 40.078125 35.4375 
Q 35.15625 39.890625 26.703125 39.890625 
Q 22.75 39.890625 18.8125 39.015625 
Q 14.890625 38.140625 10.796875 36.28125 
z
" id="DejaVuSans-53"/>
      </defs>
         <g style="fill:#262626;" transform="translate(67.096875 233.2336)scale(0.1 -0.1)">
       <use xlink:href="#DejaVuSans-48"/>
       <use x="63.623047" xlink:href="#DejaVuSans-46"/>
       <use x="95.410156" xlink:href="#DejaVuSans-53"/>
      </g>
     </g>
    </g>
    <g id="ytick_2">
     <g id="line2d_10">
         <path clip-path="url(#p6844d867fc)" d="M 90 192.436232
L 648 192.436232 
" style="fill:none;stroke:#cccccc;stroke-linecap:round;stroke-width:0.8;"/>
     </g>
     <g id="text_11">
      <!-- 0.6 -->
         <g style="fill:#262626;" transform="translate(67.096875 196.235451)scale(0.1 -0.1)">
       <use xlink:href="#DejaVuSans-48"/>
       <use x="63.623047" xlink:href="#DejaVuSans-46"/>
       <use x="95.410156" xlink:href="#DejaVuSans-54"/>
      </g>
     </g>
    </g>
    <g id="ytick_3">
     <g id="line2d_11">
         <path clip-path="url(#p6844d867fc)" d="M 90 155.438083
L 648 155.438083 
" style="fill:none;stroke:#cccccc;stroke-linecap:round;stroke-width:0.8;"/>
     </g>
     <g id="text_12">
      <!-- 0.7 -->
      <defs>
       <path d="M 8.203125 72.90625 
L 55.078125 72.90625 
L 55.078125 68.703125 
L 28.609375 0 
L 18.3125 0 
L 43.21875 64.59375 
L 8.203125 64.59375 
z
" id="DejaVuSans-55"/>
      </defs>
         <g style="fill:#262626;" transform="translate(67.096875 159.237302)scale(0.1 -0.1)">
       <use xlink:href="#DejaVuSans-48"/>
       <use x="63.623047" xlink:href="#DejaVuSans-46"/>
       <use x="95.410156" xlink:href="#DejaVuSans-55"/>
      </g>
     </g>
    </g>
    <g id="ytick_4">
     <g id="line2d_12">
         <path clip-path="url(#p6844d867fc)" d="M 90 118.439934
L 648 118.439934 
" style="fill:none;stroke:#cccccc;stroke-linecap:round;stroke-width:0.8;"/>
     </g>
     <g id="text_13">
      <!-- 0.8 -->
         <g style="fill:#262626;" transform="translate(67.096875 122.239153)scale(0.1 -0.1)">
       <use xlink:href="#DejaVuSans-48"/>
       <use x="63.623047" xlink:href="#DejaVuSans-46"/>
       <use x="95.410156" xlink:href="#DejaVuSans-56"/>
      </g>
     </g>
    </g>
    <g id="ytick_5">
     <g id="line2d_13">
         <path clip-path="url(#p6844d867fc)" d="M 90 81.441785
L 648 81.441785 
" style="fill:none;stroke:#cccccc;stroke-linecap:round;stroke-width:0.8;"/>
     </g>
     <g id="text_14">
      <!-- 0.9 -->
      <defs>
       <path d="M 10.984375 1.515625 
L 10.984375 10.5 
Q 14.703125 8.734375 18.5 7.8125 
Q 22.3125 6.890625 25.984375 6.890625 
Q 35.75 6.890625 40.890625 13.453125 
Q 46.046875 20.015625 46.78125 33.40625 
Q 43.953125 29.203125 39.59375 26.953125 
Q 35.25 24.703125 29.984375 24.703125 
Q 19.046875 24.703125 12.671875 31.3125 
Q 6.296875 37.9375 6.296875 49.421875 
Q 6.296875 60.640625 12.9375 67.421875 
Q 19.578125 74.21875 30.609375 74.21875 
Q 43.265625 74.21875 49.921875 64.515625 
Q 56.59375 54.828125 56.59375 36.375 
Q 56.59375 19.140625 48.40625 8.859375 
Q 40.234375 -1.421875 26.421875 -1.421875 
Q 22.703125 -1.421875 18.890625 -0.6875 
Q 15.09375 0.046875 10.984375 1.515625 
z
M 30.609375 32.421875 
Q 37.25 32.421875 41.125 36.953125 
Q 45.015625 41.5 45.015625 49.421875 
Q 45.015625 57.28125 41.125 61.84375 
Q 37.25 66.40625 30.609375 66.40625 
Q 23.96875 66.40625 20.09375 61.84375 
Q 16.21875 57.28125 16.21875 49.421875 
Q 16.21875 41.5 20.09375 36.953125 
Q 23.96875 32.421875 30.609375 32.421875 
z
" id="DejaVuSans-57"/>
      </defs>
         <g style="fill:#262626;" transform="translate(67.096875 85.241004)scale(0.1 -0.1)">
       <use xlink:href="#DejaVuSans-48"/>
       <use x="63.623047" xlink:href="#DejaVuSans-46"/>
       <use x="95.410156" xlink:href="#DejaVuSans-57"/>
      </g>
     </g>
    </g>
    <g id="ytick_6">
     <g id="line2d_14">
         <path clip-path="url(#p6844d867fc)" d="M 90 44.443636
L 648 44.443636 
" style="fill:none;stroke:#cccccc;stroke-linecap:round;stroke-width:0.8;"/>
     </g>
     <g id="text_15">
      <!-- 1.0 -->
         <g style="fill:#262626;" transform="translate(67.096875 48.242855)scale(0.1 -0.1)">
       <use xlink:href="#DejaVuSans-49"/>
       <use x="63.623047" xlink:href="#DejaVuSans-46"/>
       <use x="95.410156" xlink:href="#DejaVuSans-48"/>
      </g>
     </g>
    </g>
    <g id="text_16">
     <!-- acc -->
     <defs>
      <path d="M 34.28125 27.484375 
Q 23.390625 27.484375 19.1875 25 
Q 14.984375 22.515625 14.984375 16.5 
Q 14.984375 11.71875 18.140625 8.90625 
Q 21.296875 6.109375 26.703125 6.109375 
Q 34.1875 6.109375 38.703125 11.40625 
Q 43.21875 16.703125 43.21875 25.484375 
L 43.21875 27.484375 
z
M 52.203125 31.203125 
L 52.203125 0 
L 43.21875 0 
L 43.21875 8.296875 
Q 40.140625 3.328125 35.546875 0.953125 
Q 30.953125 -1.421875 24.3125 -1.421875 
Q 15.921875 -1.421875 10.953125 3.296875 
Q 6 8.015625 6 15.921875 
Q 6 25.140625 12.171875 29.828125 
Q 18.359375 34.515625 30.609375 34.515625 
L 43.21875 34.515625 
L 43.21875 35.40625 
Q 43.21875 41.609375 39.140625 45 
Q 35.0625 48.390625 27.6875 48.390625 
Q 23 48.390625 18.546875 47.265625 
Q 14.109375 46.140625 10.015625 43.890625 
L 10.015625 52.203125 
Q 14.9375 54.109375 19.578125 55.046875 
Q 24.21875 56 28.609375 56 
Q 40.484375 56 46.34375 49.84375 
Q 52.203125 43.703125 52.203125 31.203125 
z
" id="DejaVuSans-97"/>
     </defs>
        <g style="fill:#262626;" transform="translate(61.017187 151.8425)rotate(-90)scale(0.1 -0.1)">
      <use xlink:href="#DejaVuSans-97"/>
      <use x="61.279297" xlink:href="#DejaVuSans-99"/>
      <use x="116.259766" xlink:href="#DejaVuSans-99"/>
     </g>
    </g>
   </g>
      <g id="PolyCollection_1">
          <defs>
              <path d="M 115.363636 -102.431369
L 115.363636 -80.704892 
L 118.768151 -120.710044 
L 122.172666 -141.954172 
L 125.577181 -151.487337 
L 128.981696 -160.342143 
L 132.386211 -169.089459 
L 135.790726 -173.895786 
L 139.195241 -180.649574 
L 142.599756 -184.554433 
L 146.004271 -187.047472 
L 149.408786 -191.634303 
L 152.813301 -194.52659 
L 156.217816 -197.344808 
L 159.622331 -199.981469 
L 163.026846 -203.450948 
L 166.431361 -205.435444 
L 169.835876 -207.09747 
L 173.24039 -208.253662 
L 176.644905 -209.701612 
L 180.04942 -212.700486 
L 183.453935 -213.855774 
L 186.85845 -216.205193 
L 190.262965 -217.902447 
L 193.66748 -219.058639 
L 197.071995 -220.142569 
L 200.47651 -222.45405 
L 203.881025 -224.00949 
L 207.28554 -223.643664 
L 210.690055 -224.116077 
L 214.09457 -226.825902 
L 217.499085 -227.911639 
L 220.9036 -228.851045 
L 224.308115 -230.113823 
L 227.71263 -230.077692 
L 231.117145 -231.955601 
L 234.52166 -233.186765 
L 237.926174 -232.496663 
L 241.330689 -233.150634 
L 244.735204 -233.72873 
L 248.139719 -235.353722 
L 251.544234 -235.353722 
L 254.948749 -235.173971 
L 258.353264 -237.269569 
L 261.757779 -237.088011 
L 265.162294 -236.618307 
L 268.566809 -237.558617 
L 271.971324 -236.727604 
L 275.375839 -238.533251 
L 278.780354 -238.930692 
L 282.184869 -238.569382 
L 285.589384 -240.015525 
L 288.993899 -238.425761 
L 292.398414 -239.364264 
L 295.802929 -240.232311 
L 299.207444 -241.063324 
L 302.611959 -240.809504 
L 306.016473 -240.954931 
L 309.420988 -240.990159 
L 312.825503 -241.063324 
L 316.230018 -241.316241 
L 319.634533 -242.074089 
L 323.039048 -241.966599 
L 326.443563 -241.207848 
L 329.848078 -240.520456 
L 333.252593 -239.762608 
L 336.657108 -239.039988 
L 340.061623 -240.412063 
L 343.466138 -241.316241 
L 346.870653 -242.291778 
L 350.275168 -242.508564 
L 353.679683 -243.086661 
L 357.084198 -243.086661 
L 360.488713 -242.580827 
L 363.893228 -238.172844 
L 367.297743 -239.256774 
L 370.702257 -240.051656 
L 374.106772 -240.808601 
L 377.511287 -241.966599 
L 380.915802 -242.68922 
L 384.320317 -241.930468 
L 387.724832 -241.677551 
L 391.129347 -242.00273 
L 394.533862 -241.930468 
L 397.938377 -242.978268 
L 401.342892 -243.303447 
L 404.747407 -243.303447 
L 408.151922 -243.303447 
L 411.556437 -243.303447 
L 414.960952 -243.302543 
L 418.365467 -243.267316 
L 421.769982 -243.303447 
L 425.174497 -242.978268 
L 428.579012 -243.302543 
L 431.983527 -243.302543 
L 435.388041 -243.303447 
L 438.792556 -243.375709 
L 442.197071 -243.447971 
L 445.601586 -243.447971 
L 449.006101 -243.447971 
L 452.410616 -243.447971 
L 455.815131 -243.447971 
L 459.219646 -243.447971 
L 462.624161 -243.447971 
L 466.028676 -243.447971 
L 469.433191 -243.447971 
L 472.837706 -243.447971 
L 476.242221 -243.447971 
L 479.646736 -243.375709 
L 483.051251 -243.447971 
L 486.455766 -243.375709 
L 489.860281 -243.447971 
L 493.264796 -243.447971 
L 496.669311 -243.447971 
L 500.073826 -243.447971 
L 503.47834 -243.447971 
L 506.882855 -243.447971 
L 510.28737 -243.447971 
L 513.691885 -243.447971 
L 517.0964 -243.447971 
L 520.500915 -243.447971 
L 523.90543 -243.447971 
L 527.309945 -243.375709 
L 530.71446 -243.447971 
L 534.118975 -243.447971 
L 537.52349 -243.447971 
L 540.928005 -243.447971 
L 544.33252 -243.447971 
L 547.737035 -243.447971 
L 551.14155 -243.447971 
L 554.546065 -243.447971 
L 557.95058 -243.447971 
L 561.355095 -243.447971 
L 564.75961 -243.447971 
L 568.164124 -243.447971 
L 571.568639 -243.447971 
L 574.973154 -243.447971 
L 578.377669 -243.447971 
L 581.782184 -243.447971 
L 585.186699 -243.447971 
L 588.591214 -243.447971 
L 591.995729 -243.447971 
L 595.400244 -243.447971 
L 598.804759 -243.447971 
L 602.209274 -243.447971 
L 605.613789 -243.447971 
L 609.018304 -243.375709 
L 612.422819 -240.702014 
L 615.827334 -228.235914 
L 619.231849 -230.295382 
L 622.636364 -225.526992 
L 622.636364 -243.556364 
L 622.636364 -243.556364 
L 619.231849 -243.556364 
L 615.827334 -243.556364 
L 612.422819 -243.556364 
L 609.018304 -243.556364 
L 605.613789 -243.556364 
L 602.209274 -243.556364 
L 598.804759 -243.556364 
L 595.400244 -243.556364 
L 591.995729 -243.556364 
L 588.591214 -243.556364 
L 585.186699 -243.556364 
L 581.782184 -243.556364 
L 578.377669 -243.556364 
L 574.973154 -243.556364 
L 571.568639 -243.556364 
L 568.164124 -243.556364 
L 564.75961 -243.556364 
L 561.355095 -243.556364 
L 557.95058 -243.556364 
L 554.546065 -243.556364 
L 551.14155 -243.556364 
L 547.737035 -243.556364 
L 544.33252 -243.556364 
L 540.928005 -243.556364 
L 537.52349 -243.556364 
L 534.118975 -243.556364 
L 530.71446 -243.556364 
L 527.309945 -243.556364 
L 523.90543 -243.556364 
L 520.500915 -243.556364 
L 517.0964 -243.556364 
L 513.691885 -243.556364 
L 510.28737 -243.556364 
L 506.882855 -243.556364 
L 503.47834 -243.556364 
L 500.073826 -243.556364 
L 496.669311 -243.556364 
L 493.264796 -243.556364 
L 489.860281 -243.556364 
L 486.455766 -243.556364 
L 483.051251 -243.556364 
L 479.646736 -243.556364 
L 476.242221 -243.556364 
L 472.837706 -243.556364 
L 469.433191 -243.556364 
L 466.028676 -243.556364 
L 462.624161 -243.556364 
L 459.219646 -243.556364 
L 455.815131 -243.556364 
L 452.410616 -243.556364 
L 449.006101 -243.556364 
L 445.601586 -243.556364 
L 442.197071 -243.556364 
L 438.792556 -243.556364 
L 435.388041 -243.556364 
L 431.983527 -243.556364 
L 428.579012 -243.556364 
L 425.174497 -243.556364 
L 421.769982 -243.556364 
L 418.365467 -243.556364 
L 414.960952 -243.556364 
L 411.556437 -243.556364 
L 408.151922 -243.556364 
L 404.747407 -243.556364 
L 401.342892 -243.556364 
L 397.938377 -243.556364 
L 394.533862 -243.556364 
L 391.129347 -243.556364 
L 387.724832 -243.520233 
L 384.320317 -243.484102 
L 380.915802 -243.484102 
L 377.511287 -243.556364 
L 374.106772 -243.484102 
L 370.702257 -243.484102 
L 367.297743 -243.484102 
L 363.893228 -243.484102 
L 360.488713 -243.556364 
L 357.084198 -243.520233 
L 353.679683 -243.484102 
L 350.275168 -243.484102 
L 346.870653 -243.41184 
L 343.466138 -243.484102 
L 340.061623 -243.41184 
L 336.657108 -243.447971 
L 333.252593 -243.375709 
L 329.848078 -243.375709 
L 326.443563 -243.41184 
L 323.039048 -243.339578 
L 319.634533 -243.41184 
L 316.230018 -243.339578 
L 312.825503 -243.375709 
L 309.420988 -243.41184 
L 306.016473 -243.339578 
L 302.611959 -243.195054 
L 299.207444 -243.267316 
L 295.802929 -243.158923 
L 292.398414 -243.231185 
L 288.993899 -243.195054 
L 285.589384 -243.086661 
L 282.184869 -243.014399 
L 278.780354 -242.979171 
L 275.375839 -242.833744 
L 271.971324 -242.327909 
L 268.566809 -242.400171 
L 265.162294 -241.713682 
L 261.757779 -242.038861 
L 258.353264 -241.895241 
L 254.948749 -241.063324 
L 251.544234 -240.774276 
L 248.139719 -240.846538 
L 244.735204 -240.378642 
L 241.330689 -240.233214 
L 237.926174 -239.944166 
L 234.52166 -239.908035 
L 231.117145 -239.839387 
L 227.71263 -238.895464 
L 224.308115 -238.02832 
L 220.9036 -237.487258 
L 217.499085 -236.439459 
L 214.09457 -235.643674 
L 210.690055 -234.632909 
L 207.28554 -233.332193 
L 203.881025 -233.114503 
L 200.47651 -232.284393 
L 197.071995 -230.443519 
L 193.66748 -229.465272 
L 190.262965 -228.707424 
L 186.85845 -227.878217 
L 183.453935 -225.131358 
L 180.04942 -223.432297 
L 176.644905 -221.408058 
L 173.24039 -219.277232 
L 169.835876 -217.291833 
L 166.431361 -215.37689 
L 163.026846 -213.242451 
L 159.622331 -209.88317 
L 156.217816 -206.957462 
L 152.813301 -204.608044 
L 149.408786 -201.283088 
L 146.004271 -198.541648 
L 142.599756 -193.841004 
L 139.195241 -189.974987 
L 135.790726 -185.133432 
L 132.386211 -180.03896 
L 128.981696 -175.59575 
L 125.577181 -167.032702 
L 122.172666 -159.840826 
L 118.768151 -140.801593 
L 115.363636 -102.431369 
z
" id="m5593c24259" style="stroke:#1f77b4;stroke-opacity:0.2;"/>
          </defs>
          <g clip-path="url(#p6844d867fc)">
              <use style="fill:#1f77b4;fill-opacity:0.2;stroke:#1f77b4;stroke-opacity:0.2;" x="0"
                   xlink:href="#m5593c24259" y="288"/>
          </g>
      </g>
      <g id="PolyCollection_2">
          <defs>
              <path d="M 115.363636 -75.838046
L 115.363636 -58.022751 
L 118.768151 -50.941074 
L 122.172666 -52.816273 
L 125.577181 -62.32234 
L 128.981696 -75.038647 
L 132.386211 -80.135829 
L 135.790726 -84.322509 
L 139.195241 -90.612014 
L 142.599756 -96.632342 
L 146.004271 -103.7637 
L 149.408786 -109.870743 
L 152.813301 -112.725092 
L 156.217816 -116.22167 
L 159.622331 -120.846439 
L 163.026846 -125.333909 
L 166.431361 -127.575838 
L 169.835876 -129.163796 
L 173.24039 -130.030037 
L 176.644905 -131.908849 
L 180.04942 -133.166208 
L 183.453935 -134.58435 
L 186.85845 -134.869785 
L 190.262965 -133.242986 
L 193.66748 -136.102755 
L 197.071995 -136.137983 
L 200.47651 -137.256238 
L 203.881025 -138.017699 
L 207.28554 -136.60588 
L 210.690055 -138.957105 
L 214.09457 -136.746791 
L 217.499085 -138.449464 
L 220.9036 -138.805355 
L 224.308115 -140.509835 
L 227.71263 -140.256014 
L 231.117145 -139.821539 
L 234.52166 -141.628993 
L 237.926174 -141.339945 
L 241.330689 -142.665952 
L 244.735204 -140.908179 
L 248.139719 -143.651426 
L 251.544234 -146.616878 
L 254.948749 -142.675888 
L 258.353264 -143.941377 
L 261.757779 -144.629672 
L 265.162294 -147.952822 
L 268.566809 -147.553574 
L 271.971324 -148.96449 
L 275.375839 -150.911951 
L 278.780354 -149.613041 
L 282.184869 -151.167578 
L 285.589384 -151.637281 
L 288.993899 -152.143115 
L 292.398414 -152.102468 
L 295.802929 -152.573977 
L 299.207444 -155.862802 
L 302.611959 -156.584519 
L 306.016473 -155.755312 
L 309.420988 -154.781582 
L 312.825503 -154.881845 
L 316.230018 -158.539206 
L 319.634533 -160.197619 
L 323.039048 -159.801985 
L 326.443563 -157.852717 
L 329.848078 -160.309625 
L 333.252593 -160.270784 
L 336.657108 -161.2129 
L 340.061623 -162.513617 
L 343.466138 -161.7919 
L 346.870653 -165.042787 
L 350.275168 -163.380761 
L 353.679683 -166.08878 
L 357.084198 -165.109629 
L 360.488713 -168.14373 
L 363.893228 -166.840304 
L 367.297743 -169.017197 
L 370.702257 -167.028186 
L 374.106772 -168.76428 
L 377.511287 -169.45077 
L 380.915802 -169.228564 
L 384.320317 -168.834736 
L 387.724832 -170.668384 
L 391.129347 -173.351111 
L 394.533862 -172.701657 
L 397.938377 -175.048365 
L 401.342892 -174.97791 
L 404.747407 -175.663496 
L 408.151922 -177.072605 
L 411.556437 -177.574826 
L 414.960952 -177.865681 
L 418.365467 -179.928761 
L 421.769982 -180.244907 
L 425.174497 -182.674717 
L 428.579012 -183.903171 
L 431.983527 -183.035124 
L 435.388041 -184.473138 
L 438.792556 -185.27615 
L 442.197071 -185.812695 
L 445.601586 -186.503701 
L 449.006101 -187.516272 
L 452.410616 -186.284205 
L 455.815131 -188.310251 
L 459.219646 -188.926284 
L 462.624161 -188.591169 
L 466.028676 -189.896402 
L 469.433191 -190.262228 
L 472.837706 -191.165503 
L 476.242221 -190.948717 
L 479.646736 -190.515145 
L 483.051251 -193.045219 
L 486.455766 -191.813152 
L 489.860281 -192.032648 
L 493.264796 -194.085792 
L 496.669311 -193.441757 
L 500.073826 -194.704535 
L 503.47834 -194.128246 
L 506.882855 -196.474051 
L 510.28737 -194.924031 
L 513.691885 -195.571679 
L 517.0964 -196.297009 
L 520.500915 -196.620382 
L 523.90543 -195.827306 
L 527.309945 -197.415264 
L 530.71446 -198.283311 
L 534.118975 -197.525464 
L 537.52349 -200.559565 
L 540.928005 -199.002318 
L 544.33252 -196.69445 
L 547.737035 -198.283311 
L 551.14155 -199.219104 
L 554.546065 -200.343682 
L 557.95058 -198.965284 
L 561.355095 -199.9074 
L 564.75961 -200.199158 
L 568.164124 -201.788019 
L 571.568639 -201.643495 
L 574.973154 -201.389674 
L 578.377669 -202.401343 
L 581.782184 -203.048991 
L 585.186699 -203.087832 
L 588.591214 -201.246054 
L 591.995729 -204.823926 
L 595.400244 -203.088735 
L 598.804759 -204.570106 
L 602.209274 -203.918845 
L 605.613789 -203.848389 
L 609.018304 -203.920651 
L 612.422819 -205.581774 
L 615.827334 -206.050574 
L 619.231849 -205.506802 
L 622.636364 -205.29363 
L 622.636364 -222.024995 
L 622.636364 -222.024995 
L 619.231849 -222.962594 
L 615.827334 -222.022285 
L 612.422819 -222.203843 
L 609.018304 -221.37283 
L 605.613789 -220.7577 
L 602.209274 -221.697106 
L 598.804759 -222.130678 
L 595.400244 -222.528119 
L 591.995729 -221.698009 
L 588.591214 -220.831768 
L 585.186699 -221.156947 
L 581.782184 -220.870609 
L 578.377669 -220.54543 
L 574.973154 -220.179604 
L 571.568639 -219.602411 
L 568.164124 -219.891459 
L 564.75961 -220.328644 
L 561.355095 -219.710804 
L 557.95058 -217.835605 
L 554.546065 -218.12104 
L 551.14155 -218.98728 
L 547.737035 -217.651336 
L 544.33252 -216.748965 
L 540.928005 -216.495144 
L 537.52349 -217.505909 
L 534.118975 -216.92962 
L 530.71446 -217.722695 
L 527.309945 -217.289123 
L 523.90543 -217.037109 
L 520.500915 -216.783289 
L 517.0964 -217.290026 
L 513.691885 -216.639668 
L 510.28737 -215.809558 
L 506.882855 -216.320812 
L 503.47834 -215.380503 
L 500.073826 -215.952276 
L 496.669311 -215.301918 
L 493.264796 -215.049001 
L 489.860281 -214.760856 
L 486.455766 -214.871056 
L 483.051251 -213.35265 
L 479.646736 -212.598415 
L 476.242221 -212.198265 
L 472.837706 -212.305754 
L 469.433191 -213.315616 
L 466.028676 -212.701389 
L 462.624161 -212.917272 
L 459.219646 -212.305754 
L 455.815131 -210.932776 
L 452.410616 -211.656299 
L 449.006101 -211.4359 
L 445.601586 -210.062922 
L 442.197071 -210.316742 
L 438.792556 -209.123516 
L 435.388041 -210.968004 
L 431.983527 -210.755734 
L 428.579012 -210.177638 
L 425.174497 -210.498301 
L 421.769982 -208.763109 
L 418.365467 -208.367475 
L 414.960952 -205.621518 
L 411.556437 -207.792992 
L 408.151922 -204.469843 
L 404.747407 -205.907857 
L 401.342892 -205.365892 
L 397.938377 -205.010001 
L 394.533862 -204.281961 
L 391.129347 -203.454561 
L 387.724832 -204.246734 
L 384.320317 -202.801493 
L 380.915802 -202.584707 
L 377.511287 -201.685045 
L 374.106772 -203.488886 
L 370.702257 -201.106949 
L 367.297743 -200.742929 
L 363.893228 -201.293024 
L 360.488713 -200.816095 
L 357.084198 -200.778157 
L 353.679683 -200.27684 
L 350.275168 -198.900248 
L 346.870653 -197.781994 
L 343.466138 -197.133442 
L 340.061623 -196.477664 
L 336.657108 -197.027759 
L 333.252593 -195.82821 
L 329.848078 -196.913043 
L 326.443563 -193.302652 
L 323.039048 -194.891513 
L 319.634533 -194.527493 
L 316.230018 -192.36144 
L 312.825503 -191.709275 
L 309.420988 -190.590117 
L 306.016473 -191.962192 
L 302.611959 -191.67766 
L 299.207444 -191.961289 
L 295.802929 -188.239795 
L 292.398414 -187.08541 
L 288.993899 -185.603135 
L 285.589384 -185.567907 
L 282.184869 -183.978143 
L 278.780354 -181.990938 
L 275.375839 -181.954807 
L 271.971324 -181.385744 
L 268.566809 -181.738924 
L 265.162294 -181.054242 
L 261.757779 -181.23309 
L 258.353264 -178.48894 
L 254.948749 -181.059661 
L 251.544234 -178.846637 
L 248.139719 -179.533126 
L 244.735204 -178.125824 
L 241.330689 -176.433989 
L 237.926174 -176.391536 
L 234.52166 -174.656344 
L 231.117145 -176.461991 
L 227.71263 -175.524391 
L 224.308115 -172.631201 
L 220.9036 -171.080278 
L 217.499085 -171.520173 
L 214.09457 -169.705493 
L 210.690055 -170.289912 
L 207.28554 -168.876287 
L 203.881025 -167.682157 
L 200.47651 -166.023744 
L 197.071995 -165.516103 
L 193.66748 -165.012076 
L 190.262965 -162.473872 
L 186.85845 -161.431493 
L 183.453935 -159.951025 
L 180.04942 -157.784971 
L 176.644905 -157.600703 
L 173.24039 -157.203262 
L 169.835876 -156.446318 
L 166.431361 -153.450154 
L 163.026846 -154.148386 
L 159.622331 -149.941833 
L 156.217816 -145.572692 
L 152.813301 -141.707577 
L 149.408786 -138.420559 
L 146.004271 -135.779383 
L 142.599756 -132.056986 
L 139.195241 -122.807449 
L 135.790726 -115.798034 
L 132.386211 -110.414514 
L 128.981696 -101.747589 
L 125.577181 -86.185966 
L 122.172666 -78.371733 
L 118.768151 -64.277028 
L 115.363636 -75.838046 
z
" id="m0005c2f7b6" style="stroke:#ff7f0e;stroke-opacity:0.2;"/>
          </defs>
          <g clip-path="url(#p6844d867fc)">
              <use style="fill:#ff7f0e;fill-opacity:0.2;stroke:#ff7f0e;stroke-opacity:0.2;" x="0"
                   xlink:href="#m0005c2f7b6" y="288"/>
          </g>
      </g>
      <g id="PolyCollection_3">
          <defs>
              <path d="M 115.363636 -92.860266
L 115.363636 -71.210567 
L 118.768151 -105.229715 
L 122.172666 -133.862633 
L 125.577181 -151.020344 
L 128.981696 -161.175866 
L 132.386211 -168.765184 
L 135.790726 -177.97859 
L 139.195241 -184.371971 
L 142.599756 -188.312057 
L 146.004271 -192.46622 
L 149.408786 -194.74157 
L 152.813301 -198.500097 
L 156.217816 -202.435667 
L 159.622331 -205.618809 
L 163.026846 -206.304394 
L 166.431361 -209.808199 
L 169.835876 -211.253439 
L 173.24039 -216.160933 
L 176.644905 -218.517577 
L 180.04942 -219.780356 
L 183.453935 -221.225596 
L 186.85845 -224.295828 
L 190.262965 -226.031923 
L 193.66748 -227.259474 
L 197.071995 -229.17532 
L 200.47651 -229.17532 
L 203.881025 -231.127298 
L 207.28554 -232.427111 
L 210.690055 -234.122558 
L 214.09457 -235.571412 
L 217.499085 -234.844275 
L 220.9036 -235.317591 
L 224.308115 -236.546949 
L 227.71263 -238.642547 
L 231.117145 -237.125045 
L 234.52166 -238.316465 
L 237.926174 -238.136713 
L 241.330689 -238.352596 
L 244.735204 -240.232311 
L 248.139719 -240.412966 
L 251.544234 -241.929565 
L 254.948749 -241.930468 
L 258.353264 -242.00273 
L 261.757779 -242.761482 
L 265.162294 -243.231185 
L 268.566809 -243.267316 
L 271.971324 -243.447971 
L 275.375839 -243.556364 
L 278.780354 -243.556364 
L 282.184869 -243.447971 
L 285.589384 -243.556364 
L 288.993899 -243.556364 
L 292.398414 -243.556364 
L 295.802929 -243.556364 
L 299.207444 -243.556364 
L 302.611959 -243.556364 
L 306.016473 -243.556364 
L 309.420988 -243.556364 
L 312.825503 -243.556364 
L 316.230018 -243.556364 
L 319.634533 -243.556364 
L 323.039048 -243.556364 
L 326.443563 -243.556364 
L 329.848078 -243.556364 
L 333.252593 -243.556364 
L 336.657108 -243.556364 
L 340.061623 -243.556364 
L 343.466138 -243.556364 
L 346.870653 -243.556364 
L 350.275168 -243.556364 
L 353.679683 -243.556364 
L 357.084198 -243.556364 
L 360.488713 -243.556364 
L 363.893228 -243.556364 
L 367.297743 -243.556364 
L 370.702257 -243.556364 
L 374.106772 -243.556364 
L 377.511287 -243.556364 
L 380.915802 -243.556364 
L 384.320317 -243.556364 
L 387.724832 -243.556364 
L 391.129347 -243.556364 
L 394.533862 -243.556364 
L 397.938377 -243.556364 
L 401.342892 -243.556364 
L 404.747407 -243.556364 
L 408.151922 -243.556364 
L 411.556437 -243.556364 
L 414.960952 -243.556364 
L 418.365467 -243.556364 
L 421.769982 -243.556364 
L 425.174497 -243.556364 
L 428.579012 -243.556364 
L 431.983527 -243.556364 
L 435.388041 -243.556364 
L 438.792556 -243.556364 
L 442.197071 -243.556364 
L 445.601586 -243.556364 
L 449.006101 -243.556364 
L 452.410616 -243.556364 
L 455.815131 -243.556364 
L 459.219646 -243.556364 
L 462.624161 -243.556364 
L 466.028676 -243.556364 
L 469.433191 -243.556364 
L 472.837706 -243.556364 
L 476.242221 -243.556364 
L 479.646736 -243.556364 
L 483.051251 -243.556364 
L 486.455766 -243.556364 
L 489.860281 -243.556364 
L 493.264796 -243.556364 
L 496.669311 -243.556364 
L 500.073826 -243.556364 
L 503.47834 -243.556364 
L 506.882855 -243.556364 
L 510.28737 -243.556364 
L 513.691885 -243.556364 
L 517.0964 -243.556364 
L 520.500915 -243.556364 
L 523.90543 -243.556364 
L 527.309945 -243.556364 
L 530.71446 -243.556364 
L 534.118975 -243.556364 
L 537.52349 -243.556364 
L 540.928005 -243.556364 
L 544.33252 -243.556364 
L 547.737035 -243.556364 
L 551.14155 -243.556364 
L 554.546065 -243.556364 
L 557.95058 -243.556364 
L 561.355095 -243.556364 
L 564.75961 -243.556364 
L 568.164124 -243.556364 
L 571.568639 -243.556364 
L 574.973154 -243.556364 
L 578.377669 -243.556364 
L 581.782184 -243.556364 
L 585.186699 -243.556364 
L 588.591214 -243.556364 
L 591.995729 -243.556364 
L 595.400244 -243.556364 
L 598.804759 -243.556364 
L 602.209274 -243.556364 
L 605.613789 -243.556364 
L 609.018304 -243.556364 
L 612.422819 -243.556364 
L 615.827334 -243.556364 
L 619.231849 -243.556364 
L 622.636364 -243.556364 
L 622.636364 -243.556364 
L 622.636364 -243.556364 
L 619.231849 -243.556364 
L 615.827334 -243.556364 
L 612.422819 -243.556364 
L 609.018304 -243.556364 
L 605.613789 -243.556364 
L 602.209274 -243.556364 
L 598.804759 -243.556364 
L 595.400244 -243.556364 
L 591.995729 -243.556364 
L 588.591214 -243.556364 
L 585.186699 -243.556364 
L 581.782184 -243.556364 
L 578.377669 -243.556364 
L 574.973154 -243.556364 
L 571.568639 -243.556364 
L 568.164124 -243.556364 
L 564.75961 -243.556364 
L 561.355095 -243.556364 
L 557.95058 -243.556364 
L 554.546065 -243.556364 
L 551.14155 -243.556364 
L 547.737035 -243.556364 
L 544.33252 -243.556364 
L 540.928005 -243.556364 
L 537.52349 -243.556364 
L 534.118975 -243.556364 
L 530.71446 -243.556364 
L 527.309945 -243.556364 
L 523.90543 -243.556364 
L 520.500915 -243.556364 
L 517.0964 -243.556364 
L 513.691885 -243.556364 
L 510.28737 -243.556364 
L 506.882855 -243.556364 
L 503.47834 -243.556364 
L 500.073826 -243.556364 
L 496.669311 -243.556364 
L 493.264796 -243.556364 
L 489.860281 -243.556364 
L 486.455766 -243.556364 
L 483.051251 -243.556364 
L 479.646736 -243.556364 
L 476.242221 -243.556364 
L 472.837706 -243.556364 
L 469.433191 -243.556364 
L 466.028676 -243.556364 
L 462.624161 -243.556364 
L 459.219646 -243.556364 
L 455.815131 -243.556364 
L 452.410616 -243.556364 
L 449.006101 -243.556364 
L 445.601586 -243.556364 
L 442.197071 -243.556364 
L 438.792556 -243.556364 
L 435.388041 -243.556364 
L 431.983527 -243.556364 
L 428.579012 -243.556364 
L 425.174497 -243.556364 
L 421.769982 -243.556364 
L 418.365467 -243.556364 
L 414.960952 -243.556364 
L 411.556437 -243.556364 
L 408.151922 -243.556364 
L 404.747407 -243.556364 
L 401.342892 -243.556364 
L 397.938377 -243.556364 
L 394.533862 -243.556364 
L 391.129347 -243.556364 
L 387.724832 -243.556364 
L 384.320317 -243.556364 
L 380.915802 -243.556364 
L 377.511287 -243.556364 
L 374.106772 -243.556364 
L 370.702257 -243.556364 
L 367.297743 -243.556364 
L 363.893228 -243.556364 
L 360.488713 -243.556364 
L 357.084198 -243.556364 
L 353.679683 -243.556364 
L 350.275168 -243.556364 
L 346.870653 -243.556364 
L 343.466138 -243.556364 
L 340.061623 -243.556364 
L 336.657108 -243.556364 
L 333.252593 -243.556364 
L 329.848078 -243.556364 
L 326.443563 -243.556364 
L 323.039048 -243.556364 
L 319.634533 -243.556364 
L 316.230018 -243.556364 
L 312.825503 -243.556364 
L 309.420988 -243.556364 
L 306.016473 -243.556364 
L 302.611959 -243.556364 
L 299.207444 -243.556364 
L 295.802929 -243.556364 
L 292.398414 -243.556364 
L 288.993899 -243.556364 
L 285.589384 -243.556364 
L 282.184869 -243.556364 
L 278.780354 -243.556364 
L 275.375839 -243.556364 
L 271.971324 -243.556364 
L 268.566809 -243.556364 
L 265.162294 -243.556364 
L 261.757779 -243.520233 
L 258.353264 -243.484102 
L 254.948749 -243.484102 
L 251.544234 -243.447971 
L 248.139719 -243.447971 
L 244.735204 -243.303447 
L 241.330689 -243.267316 
L 237.926174 -243.195054 
L 234.52166 -242.400171 
L 231.117145 -242.219516 
L 227.71263 -242.47424 
L 224.308115 -241.896144 
L 220.9036 -241.749813 
L 217.499085 -241.750717 
L 214.09457 -241.713682 
L 210.690055 -241.353276 
L 207.28554 -240.521359 
L 203.881025 -239.148381 
L 200.47651 -238.39234 
L 197.071995 -237.342734 
L 193.66748 -236.8369 
L 190.262965 -235.897494 
L 186.85845 -234.670846 
L 183.453935 -232.610476 
L 180.04942 -230.874381 
L 176.644905 -230.947546 
L 173.24039 -228.273852 
L 169.835876 -223.866773 
L 166.431361 -222.601284 
L 163.026846 -218.809335 
L 159.622331 -217.650433 
L 156.217816 -214.688594 
L 152.813301 -211.689721 
L 149.408786 -208.077523 
L 146.004271 -203.920651 
L 142.599756 -199.693324 
L 139.195241 -196.549926 
L 135.790726 -191.961289 
L 132.386211 -185.314087 
L 128.981696 -177.14848 
L 125.577181 -167.89804 
L 122.172666 -155.000174 
L 118.768151 -136.576975 
L 115.363636 -92.860266 
z
" id="md3669818d0" style="stroke:#2ca02c;stroke-opacity:0.2;"/>
          </defs>
          <g clip-path="url(#p6844d867fc)">
              <use style="fill:#2ca02c;fill-opacity:0.2;stroke:#2ca02c;stroke-opacity:0.2;" x="0"
                   xlink:href="#md3669818d0" y="288"/>
          </g>
      </g>
      <g id="PolyCollection_4">
          <defs>
              <path d="M 115.363636 -66.659867
L 115.363636 -45.883636 
L 118.768151 -47.290036 
L 122.172666 -54.121505 
L 125.577181 -68.283956 
L 128.981696 -80.27945 
L 132.386211 -89.635573 
L 135.790726 -101.450412 
L 139.195241 -107.195242 
L 142.599756 -114.713201 
L 146.004271 -125.660895 
L 149.408786 -129.815057 
L 152.813301 -136.171404 
L 156.217816 -143.111267 
L 159.622331 -146.868892 
L 163.026846 -156.878083 
L 166.431361 -157.383917 
L 169.835876 -158.572627 
L 173.24039 -163.521672 
L 176.644905 -169.59168 
L 180.04942 -168.868157 
L 183.453935 -171.577982 
L 186.85845 -174.507304 
L 190.262965 -176.135005 
L 193.66748 -179.165493 
L 197.071995 -181.551043 
L 200.47651 -183.939302 
L 203.881025 -186.430535 
L 207.28554 -185.63746 
L 210.690055 -187.588534 
L 214.09457 -190.804193 
L 217.499085 -191.63611 
L 220.9036 -193.584474 
L 224.308115 -194.845446 
L 227.71263 -197.016016 
L 231.117145 -198.428739 
L 234.52166 -199.620159 
L 237.926174 -201.282185 
L 241.330689 -203.739093 
L 244.735204 -204.82212 
L 248.139719 -204.643271 
L 251.544234 -206.233036 
L 254.948749 -207.605111 
L 258.353264 -207.567173 
L 261.757779 -210.022275 
L 265.162294 -210.386295 
L 268.566809 -210.892129 
L 271.971324 -211.796307 
L 275.375839 -212.409631 
L 278.780354 -213.639892 
L 282.184869 -216.781483 
L 285.589384 -215.588256 
L 288.993899 -218.806625 
L 292.398414 -218.697329 
L 295.802929 -218.914115 
L 299.207444 -219.527439 
L 302.611959 -221.84163 
L 306.016473 -219.238391 
L 309.420988 -222.706064 
L 312.825503 -222.706064 
L 316.230018 -223.322098 
L 319.634533 -223.972456 
L 323.039048 -223.248029 
L 326.443563 -225.161166 
L 329.848078 -226.285743 
L 333.252593 -225.960564 
L 336.657108 -226.358005 
L 340.061623 -226.719315 
L 343.466138 -228.706521 
L 346.870653 -228.381342 
L 350.275168 -229.573665 
L 353.679683 -230.078596 
L 357.084198 -229.971106 
L 360.488713 -229.356879 
L 363.893228 -229.86181 
L 367.297743 -231.669263 
L 370.702257 -230.222216 
L 374.106772 -233.439682 
L 377.511287 -233.114503 
L 380.915802 -232.135353 
L 384.320317 -233.330386 
L 387.724832 -233.584206 
L 391.129347 -233.94371 
L 394.533862 -234.089137 
L 397.938377 -235.282364 
L 401.342892 -235.029447 
L 404.747407 -235.535281 
L 408.151922 -235.246233 
L 411.556437 -235.532571 
L 414.960952 -235.931818 
L 418.365467 -235.678901 
L 421.769982 -237.268666 
L 425.174497 -234.414316 
L 428.579012 -236.619211 
L 431.983527 -235.606639 
L 435.388041 -236.113377 
L 438.792556 -237.013942 
L 442.197071 -238.099679 
L 445.601586 -237.630879 
L 449.006101 -238.642547 
L 452.410616 -239.184512 
L 455.815131 -238.787071 
L 459.219646 -239.545822 
L 462.624161 -240.050753 
L 466.028676 -239.906229 
L 469.433191 -240.375932 
L 472.837706 -239.943263 
L 476.242221 -240.485228 
L 479.646736 -239.689443 
L 483.051251 -240.30367 
L 486.455766 -239.255871 
L 489.860281 -239.545822 
L 493.264796 -239.47356 
L 496.669311 -239.075216 
L 500.073826 -238.966823 
L 503.47834 -239.761705 
L 506.882855 -239.581953 
L 510.28737 -239.83487 
L 513.691885 -240.015525 
L 517.0964 -239.292905 
L 520.500915 -239.110443 
L 523.90543 -238.859333 
L 527.309945 -239.184512 
L 530.71446 -238.13581 
L 534.118975 -237.485452 
L 537.52349 -236.294032 
L 540.928005 -239.182706 
L 544.33252 -240.882669 
L 547.737035 -241.134683 
L 551.14155 -241.460765 
L 554.546065 -240.949512 
L 557.95058 -240.556587 
L 561.355095 -240.810407 
L 564.75961 -241.062421 
L 568.164124 -240.629752 
L 571.568639 -241.496896 
L 574.973154 -241.569158 
L 578.377669 -241.930468 
L 581.782184 -241.930468 
L 585.186699 -241.605289 
L 588.591214 -241.605289 
L 591.995729 -241.346049 
L 595.400244 -239.907132 
L 598.804759 -238.787071 
L 602.209274 -239.220643 
L 605.613789 -240.810407 
L 609.018304 -240.629752 
L 612.422819 -241.605289 
L 615.827334 -241.930468 
L 619.231849 -241.822075 
L 622.636364 -242.147254 
L 622.636364 -243.556364 
L 622.636364 -243.556364 
L 619.231849 -243.556364 
L 615.827334 -243.556364 
L 612.422819 -243.556364 
L 609.018304 -243.556364 
L 605.613789 -243.556364 
L 602.209274 -243.556364 
L 598.804759 -243.556364 
L 595.400244 -243.556364 
L 591.995729 -243.556364 
L 588.591214 -243.556364 
L 585.186699 -243.556364 
L 581.782184 -243.556364 
L 578.377669 -243.556364 
L 574.973154 -243.556364 
L 571.568639 -243.556364 
L 568.164124 -243.556364 
L 564.75961 -243.520233 
L 561.355095 -243.556364 
L 557.95058 -243.484102 
L 554.546065 -243.556364 
L 551.14155 -243.556364 
L 547.737035 -243.41184 
L 544.33252 -243.375709 
L 540.928005 -243.303447 
L 537.52349 -242.653089 
L 534.118975 -242.653089 
L 530.71446 -242.111123 
L 527.309945 -242.869875 
L 523.90543 -243.014399 
L 520.500915 -242.725351 
L 517.0964 -242.68922 
L 513.691885 -242.68922 
L 510.28737 -242.94304 
L 506.882855 -242.869875 
L 503.47834 -243.232088 
L 500.073826 -243.05053 
L 496.669311 -242.94304 
L 493.264796 -242.906006 
L 489.860281 -242.906006 
L 486.455766 -243.086661 
L 483.051251 -243.122792 
L 479.646736 -242.979171 
L 476.242221 -242.942137 
L 472.837706 -242.834647 
L 469.433191 -242.978268 
L 466.028676 -242.869875 
L 462.624161 -242.761482 
L 459.219646 -243.123695 
L 455.815131 -242.978268 
L 452.410616 -242.94304 
L 449.006101 -242.545599 
L 445.601586 -242.291778 
L 442.197071 -242.327909 
L 438.792556 -242.074992 
L 435.388041 -241.460765 
L 431.983527 -241.822075 
L 428.579012 -241.678455 
L 425.174497 -241.895241 
L 421.769982 -241.713682 
L 418.365467 -241.533931 
L 414.960952 -241.677551 
L 411.556437 -241.678455 
L 408.151922 -241.606193 
L 404.747407 -241.894337 
L 401.342892 -241.462572 
L 397.938377 -241.28011 
L 394.533862 -240.810407 
L 391.129347 -240.629752 
L 387.724832 -240.304573 
L 384.320317 -240.19618 
L 380.915802 -239.184512 
L 377.511287 -239.800546 
L 374.106772 -239.72738 
L 370.702257 -239.148381 
L 367.297743 -239.329036 
L 363.893228 -238.859333 
L 360.488713 -238.461892 
L 357.084198 -238.498926 
L 353.679683 -238.283043 
L 350.275168 -238.572092 
L 346.870653 -237.597458 
L 343.466138 -237.884699 
L 340.061623 -237.161176 
L 336.657108 -235.862266 
L 333.252593 -235.464825 
L 329.848078 -235.429597 
L 326.443563 -235.283267 
L 323.039048 -235.427791 
L 319.634533 -234.054813 
L 316.230018 -234.742205 
L 312.825503 -233.36742 
L 309.420988 -233.584206 
L 306.016473 -232.248262 
L 302.611959 -232.969979 
L 299.207444 -232.754096 
L 295.802929 -231.381118 
L 292.398414 -231.670166 
L 288.993899 -231.020712 
L 285.589384 -229.39301 
L 282.184869 -229.684768 
L 278.780354 -228.020032 
L 275.375839 -226.755446 
L 271.971324 -226.396846 
L 268.566809 -225.996695 
L 265.162294 -226.610922 
L 261.757779 -224.98593 
L 258.353264 -224.154014 
L 254.948749 -222.463083 
L 251.544234 -221.84163 
L 248.139719 -220.469555 
L 244.735204 -219.783969 
L 241.330689 -220.360259 
L 237.926174 -217.397516 
L 234.52166 -216.496048 
L 231.117145 -215.557545 
L 227.71263 -214.474518 
L 224.308115 -214.038236 
L 220.9036 -212.84501 
L 217.499085 -210.032211 
L 214.09457 -210.175832 
L 210.690055 -208.403606 
L 207.28554 -207.714407 
L 203.881025 -206.127352 
L 200.47651 -205.009098 
L 197.071995 -203.491596 
L 193.66748 -202.55219 
L 190.262965 -198.900248 
L 186.85845 -197.819028 
L 183.453935 -195.250113 
L 180.04942 -191.780634 
L 176.644905 -190.91349 
L 173.24039 -187.950747 
L 169.835876 -183.365723 
L 166.431361 -179.857402 
L 163.026846 -177.76361 
L 159.622331 -170.139968 
L 156.217816 -165.696758 
L 152.813301 -160.888625 
L 149.408786 -153.66423 
L 146.004271 -148.065731 
L 142.599756 -141.161999 
L 139.195241 -135.634859 
L 135.790726 -126.855025 
L 132.386211 -117.862018 
L 128.981696 -107.924185 
L 125.577181 -92.386949 
L 122.172666 -77.89661 
L 118.768151 -72.367663 
L 115.363636 -66.659867 
z
" id="m0f41fa7a1e" style="stroke:#d62728;stroke-opacity:0.2;"/>
          </defs>
          <g clip-path="url(#p6844d867fc)">
              <use style="fill:#d62728;fill-opacity:0.2;stroke:#d62728;stroke-opacity:0.2;" x="0"
                   xlink:href="#m0f41fa7a1e" y="288"/>
          </g>
      </g>
   <g id="line2d_15">
       <path clip-path="url(#p6844d867fc)" d="M 115.363636 196.229988
L 118.768151 155.438083 
L 122.172666 135.999603 
L 128.981696 119.596126 
L 132.386211 113.020283 
L 135.790726 108.21486 
L 139.195241 102.650685 
L 149.408786 91.522336 
L 159.622331 82.670239 
L 163.026846 79.346187 
L 169.835876 75.588563 
L 176.644905 71.9032 
L 180.04942 69.807602 
L 183.453935 68.253969 
L 186.85845 65.941584 
L 190.262965 64.207296 
L 193.66748 63.593069 
L 200.47651 60.847113 
L 203.881025 59.185086 
L 207.28554 59.32961 
L 210.690055 58.498597 
L 214.09457 56.836571 
L 217.499085 55.644248 
L 220.9036 54.596449 
L 224.308115 53.873829 
L 227.71263 53.584781 
L 231.117145 52.031147 
L 234.52166 51.308527 
L 237.926174 51.669837 
L 241.330689 51.019479 
L 244.735204 50.658169 
L 248.139719 49.718763 
L 251.544234 50.007811 
L 254.948749 49.682632 
L 258.353264 48.201261 
L 261.757779 48.381916 
L 265.162294 48.779357 
L 268.566809 47.839951 
L 271.971324 48.16513 
L 275.375839 47.117331 
L 278.780354 46.71989 
L 282.184869 46.756021 
L 285.589384 46.322449 
L 288.993899 46.683759 
L 292.398414 46.250187 
L 295.802929 46.214056 
L 299.207444 45.744353 
L 302.611959 45.888877 
L 309.420988 45.599829 
L 312.825503 45.63596 
L 316.230018 45.527567 
L 319.634533 45.202387 
L 323.039048 45.238518 
L 326.443563 45.563698 
L 329.848078 45.708222 
L 336.657108 46.177925 
L 343.466138 45.346911 
L 353.679683 44.696553 
L 357.084198 44.660422 
L 360.488713 44.841077 
L 363.893228 46.35858 
L 370.702257 45.744353 
L 374.106772 45.455304 
L 377.511287 44.985601 
L 380.915802 44.804946 
L 384.320317 45.166256 
L 387.724832 45.166256 
L 391.129347 45.021732 
L 394.533862 45.057863 
L 397.938377 44.696553 
L 401.342892 44.552029 
L 609.018304 44.515898 
L 612.422819 45.419173 
L 615.827334 49.574239 
L 619.231849 48.88775 
L 622.636364 50.477514 
L 622.636364 50.477514 
" style="fill:none;stroke:#1f77b4;stroke-linecap:round;stroke-width:1.5;"/>
   </g>
   <g id="line2d_16">
       <path clip-path="url(#p6844d867fc)" d="M 115.363636 220.76294
L 118.768151 230.951883 
L 122.172666 223.328241 
L 125.577181 214.476145 
L 128.981696 200.023743 
L 132.386211 193.520162 
L 135.790726 187.992118 
L 139.195241 181.633062 
L 142.599756 174.623647 
L 146.004271 168.445245 
L 149.408786 163.386904 
L 152.813301 160.424162 
L 156.217816 156.630406 
L 159.622331 152.0779 
L 163.026846 148.789978 
L 166.431361 146.983428 
L 169.835876 145.538188 
L 176.644905 142.972886 
L 180.04942 142.069611 
L 183.453935 140.841157 
L 186.85845 139.829489 
L 190.262965 139.721096 
L 193.66748 137.264188 
L 197.071995 137.444843 
L 200.47651 136.505437 
L 207.28554 134.229183 
L 210.690055 133.940135 
L 214.09457 133.867873 
L 217.499085 133.253646 
L 220.9036 133.145253 
L 224.308115 131.880668 
L 227.71263 130.796738 
L 231.117145 130.688345 
L 234.52166 129.78507 
L 241.330689 128.628878 
L 248.139719 127.255899 
L 251.544234 125.810659 
L 254.948749 126.858458 
L 258.353264 126.352624 
L 261.757779 125.991314 
L 268.566809 122.992441 
L 271.971324 122.23369 
L 278.780354 121.800118 
L 282.184869 120.318746 
L 285.589384 119.776781 
L 288.993899 119.596126 
L 292.398414 118.873506 
L 295.802929 116.741777 
L 299.207444 114.248738 
L 302.611959 114.321 
L 306.016473 114.104214 
L 309.420988 114.212607 
L 312.825503 113.634511 
L 316.230018 112.261532 
L 319.634533 111.141471 
L 323.039048 110.780161 
L 326.443563 110.599506 
L 329.848078 109.876886 
L 333.252593 110.165934 
L 336.657108 108.070336 
L 340.061623 108.720694 
L 343.466138 108.93748 
L 346.870653 106.878013 
L 350.275168 106.588965 
L 353.679683 105.107593 
L 357.084198 105.252117 
L 360.488713 103.301043 
L 363.893228 103.301043 
L 367.297743 103.156519 
L 370.702257 103.843008 
L 374.106772 101.891934 
L 377.511287 102.144851 
L 380.915802 102.036458 
L 384.320317 101.458362 
L 387.724832 101.02479 
L 391.129347 99.507288 
L 394.533862 99.687943 
L 397.938377 97.592344 
L 401.342892 97.628475 
L 404.747407 97.44782 
L 408.151922 96.869724 
L 411.556437 95.821925 
L 414.960952 95.605139 
L 418.365467 94.521209 
L 421.769982 94.304423 
L 425.174497 91.955908 
L 428.579012 91.413943 
L 438.792556 90.94424 
L 442.197071 89.932571 
L 445.601586 90.004833 
L 449.006101 88.523462 
L 452.410616 88.993165 
L 455.815131 88.487331 
L 459.219646 87.72858 
L 462.624161 87.114353 
L 466.028676 87.258877 
L 469.433191 86.28334 
L 472.837706 86.64465 
L 476.242221 86.536257 
L 479.646736 86.572388 
L 483.051251 84.874231 
L 486.455766 84.801969 
L 489.860281 85.343934 
L 493.264796 83.75417 
L 496.669311 83.718039 
L 500.073826 82.995418 
L 503.47834 83.356729 
L 506.882855 81.947619 
L 510.28737 82.417322 
L 513.691885 82.453453 
L 517.0964 81.730833 
L 520.500915 81.297261 
L 523.90543 81.550178 
L 527.309945 80.755296 
L 530.71446 80.466248 
L 534.118975 80.863689 
L 537.52349 79.09327 
L 540.928005 80.53851 
L 544.33252 81.080475 
L 551.14155 79.165532 
L 557.95058 79.45458 
L 564.75961 78.081602 
L 568.164124 77.178327 
L 571.568639 77.937078 
L 574.973154 77.575768 
L 581.782184 76.527969 
L 585.186699 76.20279 
L 588.591214 77.142196 
L 591.995729 74.974335 
L 595.400244 75.696956 
L 598.804759 75.15499 
L 602.209274 75.733087 
L 609.018304 75.769218 
L 612.422819 74.360108 
L 619.231849 74.468501 
L 622.636364 75.191121 
L 622.636364 75.191121 
" style="fill:none;stroke:#ff7f0e;stroke-linecap:round;stroke-width:1.5;"/>
   </g>
   <g id="line2d_17">
       <path clip-path="url(#p6844d867fc)" d="M 115.363636 205.371132
L 118.768151 167.000005 
L 122.172666 143.695507 
L 125.577181 128.845664 
L 128.981696 118.945768 
L 132.386211 111.249864 
L 135.790726 103.19265 
L 139.195241 97.267165 
L 142.599756 94.051506 
L 146.004271 89.607392 
L 149.408786 86.355602 
L 152.813301 82.670239 
L 156.217816 79.237794 
L 159.622331 76.20279 
L 163.026846 75.444038 
L 166.431361 71.867069 
L 169.835876 70.494091 
L 173.24039 66.049977 
L 176.644905 63.123366 
L 180.04942 62.400746 
L 183.453935 60.73872 
L 186.85845 58.24568 
L 190.262965 57.053357 
L 193.66748 55.427462 
L 197.071995 54.596449 
L 200.47651 54.560318 
L 203.881025 52.645374 
L 207.28554 51.525313 
L 210.690055 50.007811 
L 214.09457 49.24906 
L 217.499085 49.140667 
L 220.9036 49.285191 
L 224.308115 48.490309 
L 227.71263 47.406379 
L 231.117145 48.16513 
L 237.926174 46.792152 
L 241.330689 46.611497 
L 244.735204 45.816615 
L 248.139719 45.708222 
L 251.544234 45.166256 
L 258.353264 45.057863 
L 265.162294 44.552029 
L 622.636364 44.443636 
L 622.636364 44.443636 
" style="fill:none;stroke:#2ca02c;stroke-linecap:round;stroke-width:1.5;"/>
   </g>
   <g id="line2d_18">
       <path clip-path="url(#p6844d867fc)" d="M 115.363636 231.313193
L 118.768151 228.350451 
L 122.172666 221.593953 
L 125.577181 207.322206 
L 128.981696 192.183315 
L 132.386211 181.235621 
L 135.790726 171.444118 
L 142.599756 157.931122 
L 146.004271 150.452004 
L 149.408786 145.682712 
L 152.813301 139.432048 
L 156.217816 133.651087 
L 159.622331 129.243105 
L 163.026846 121.691725 
L 166.431361 118.728982 
L 169.835876 116.669515 
L 173.24039 111.647305 
L 176.644905 107.528371 
L 180.04942 106.372179 
L 183.453935 103.264912 
L 186.85845 100.844135 
L 190.262965 99.832467 
L 193.66748 96.291628 
L 197.071995 94.737995 
L 200.47651 92.714659 
L 203.881025 91.341681 
L 207.28554 90.799716 
L 210.690055 89.679654 
L 214.09457 87.186615 
L 217.499085 86.427864 
L 220.9036 84.585183 
L 227.71263 82.34506 
L 231.117145 81.26113 
L 234.52166 80.032676 
L 237.926174 78.948746 
L 241.330689 76.419576 
L 244.735204 75.660825 
L 248.139719 75.299514 
L 251.544234 74.179453 
L 254.948749 73.203916 
L 258.353264 71.650283 
L 265.162294 69.879864 
L 268.566809 69.699209 
L 271.971324 68.723672 
L 275.375839 68.470755 
L 278.780354 67.025514 
L 282.184869 64.71313 
L 285.589384 65.760929 
L 288.993899 63.123366 
L 292.398414 62.942711 
L 295.802929 62.90658 
L 302.611959 60.847113 
L 306.016473 62.400746 
L 309.420988 59.799313 
L 312.825503 60.341278 
L 316.230018 59.076693 
L 319.634533 59.185086 
L 323.039048 58.751514 
L 326.443563 57.775977 
L 329.848078 57.089488 
L 333.252593 57.450798 
L 336.657108 56.764309 
L 343.466138 54.99389 
L 346.870653 54.849366 
L 350.275168 53.90996 
L 353.679683 53.657043 
L 360.488713 53.982222 
L 363.893228 53.476388 
L 367.297743 52.609243 
L 370.702257 53.151209 
L 374.106772 51.308527 
L 377.511287 51.561444 
L 380.915802 52.392457 
L 384.320317 51.236265 
L 391.129347 50.766562 
L 397.938377 49.646501 
L 401.342892 49.682632 
L 404.747407 49.357453 
L 408.151922 49.574239 
L 411.556437 49.104536 
L 414.960952 49.068405 
L 418.365467 49.321322 
L 421.769982 48.345785 
L 425.174497 49.393584 
L 428.579012 48.670964 
L 431.983527 49.032274 
L 435.388041 49.212929 
L 442.197071 47.695427 
L 445.601586 47.876082 
L 452.410616 46.71989 
L 455.815131 46.972807 
L 459.219646 46.466973 
L 462.624161 46.539235 
L 469.433191 46.177925 
L 472.837706 46.35858 
L 476.242221 46.250187 
L 479.646736 46.539235 
L 483.051251 46.141794 
L 486.455766 46.394711 
L 493.264796 46.611497 
L 496.669311 46.864414 
L 500.073826 46.71989 
L 503.47834 46.322449 
L 506.882855 46.539235 
L 510.28737 46.430842 
L 513.691885 46.575366 
L 517.0964 46.936676 
L 520.500915 46.972807 
L 523.90543 46.828283 
L 527.309945 46.900545 
L 530.71446 47.80382 
L 534.118975 47.550903 
L 537.52349 47.912213 
L 540.928005 46.430842 
L 544.33252 45.672091 
L 547.737035 45.419173 
L 551.14155 45.31078 
L 554.546065 45.527567 
L 557.95058 45.599829 
L 564.75961 45.346911 
L 568.164124 45.419173 
L 571.568639 45.130125 
L 574.973154 45.130125 
L 578.377669 44.985601 
L 581.782184 44.985601 
L 591.995729 45.383042 
L 595.400244 45.852746 
L 598.804759 46.466973 
L 602.209274 46.177925 
L 605.613789 45.599829 
L 609.018304 45.491436 
L 612.422819 45.166256 
L 615.827334 44.985601 
L 619.231849 45.021732 
L 622.636364 44.913339 
L 622.636364 44.913339 
" style="fill:none;stroke:#d62728;stroke-linecap:round;stroke-width:1.5;"/>
   </g>
   <g id="line2d_19"/>
   <g id="line2d_20"/>
   <g id="line2d_21"/>
   <g id="line2d_22"/>
   <g id="line2d_23"/>
   <g id="patch_3">
       <path d="M 90 252
L 90 34.56 
" style="fill:none;stroke:#cccccc;stroke-linecap:square;stroke-linejoin:miter;stroke-width:0.8;"/>
   </g>
   <g id="patch_4">
       <path d="M 648 252
L 648 34.56 
" style="fill:none;stroke:#cccccc;stroke-linecap:square;stroke-linejoin:miter;stroke-width:0.8;"/>
   </g>
   <g id="patch_5">
       <path d="M 90 252
L 648 252 
" style="fill:none;stroke:#cccccc;stroke-linecap:square;stroke-linejoin:miter;stroke-width:0.8;"/>
   </g>
   <g id="patch_6">
       <path d="M 90 34.56
L 648 34.56 
" style="fill:none;stroke:#cccccc;stroke-linecap:square;stroke-linejoin:miter;stroke-width:0.8;"/>
   </g>
   <g id="text_17">
    <!-- Acc (train) -->
    <defs>
     <path d="M 34.1875 63.1875 
L 20.796875 26.90625 
L 47.609375 26.90625 
z
M 28.609375 72.90625 
L 39.796875 72.90625 
L 67.578125 0 
L 57.328125 0 
L 50.6875 18.703125 
L 17.828125 18.703125 
L 11.1875 0 
L 0.78125 0 
z
" id="DejaVuSans-65"/>
     <path id="DejaVuSans-32"/>
     <path d="M 31 75.875 
Q 24.46875 64.65625 21.28125 53.65625 
Q 18.109375 42.671875 18.109375 31.390625 
Q 18.109375 20.125 21.3125 9.0625 
Q 24.515625 -2 31 -13.1875 
L 23.1875 -13.1875 
Q 15.875 -1.703125 12.234375 9.375 
Q 8.59375 20.453125 8.59375 31.390625 
Q 8.59375 42.28125 12.203125 53.3125 
Q 15.828125 64.359375 23.1875 75.875 
z
" id="DejaVuSans-40"/>
     <path d="M 18.3125 70.21875 
L 18.3125 54.6875 
L 36.8125 54.6875 
L 36.8125 47.703125 
L 18.3125 47.703125 
L 18.3125 18.015625 
Q 18.3125 11.328125 20.140625 9.421875 
Q 21.96875 7.515625 27.59375 7.515625 
L 36.8125 7.515625 
L 36.8125 0 
L 27.59375 0 
Q 17.1875 0 13.234375 3.875 
Q 9.28125 7.765625 9.28125 18.015625 
L 9.28125 47.703125 
L 2.6875 47.703125 
L 2.6875 54.6875 
L 9.28125 54.6875 
L 9.28125 70.21875 
z
" id="DejaVuSans-116"/>
     <path d="M 41.109375 46.296875 
Q 39.59375 47.171875 37.8125 47.578125 
Q 36.03125 48 33.890625 48 
Q 26.265625 48 22.1875 43.046875 
Q 18.109375 38.09375 18.109375 28.8125 
L 18.109375 0 
L 9.078125 0 
L 9.078125 54.6875 
L 18.109375 54.6875 
L 18.109375 46.1875 
Q 20.953125 51.171875 25.484375 53.578125 
Q 30.03125 56 36.53125 56 
Q 37.453125 56 38.578125 55.875 
Q 39.703125 55.765625 41.0625 55.515625 
z
" id="DejaVuSans-114"/>
     <path d="M 9.421875 54.6875 
L 18.40625 54.6875 
L 18.40625 0 
L 9.421875 0 
z
M 9.421875 75.984375 
L 18.40625 75.984375 
L 18.40625 64.59375 
L 9.421875 64.59375 
z
" id="DejaVuSans-105"/>
     <path d="M 54.890625 33.015625 
L 54.890625 0 
L 45.90625 0 
L 45.90625 32.71875 
Q 45.90625 40.484375 42.875 44.328125 
Q 39.84375 48.1875 33.796875 48.1875 
Q 26.515625 48.1875 22.3125 43.546875 
Q 18.109375 38.921875 18.109375 30.90625 
L 18.109375 0 
L 9.078125 0 
L 9.078125 54.6875 
L 18.109375 54.6875 
L 18.109375 46.1875 
Q 21.34375 51.125 25.703125 53.5625 
Q 30.078125 56 35.796875 56 
Q 45.21875 56 50.046875 50.171875 
Q 54.890625 44.34375 54.890625 33.015625 
z
" id="DejaVuSans-110"/>
     <path d="M 8.015625 75.875 
L 15.828125 75.875 
Q 23.140625 64.359375 26.78125 53.3125 
Q 30.421875 42.28125 30.421875 31.390625 
Q 30.421875 20.453125 26.78125 9.375 
Q 23.140625 -1.703125 15.828125 -13.1875 
L 8.015625 -13.1875 
Q 14.5 -2 17.703125 9.0625 
Q 20.90625 20.125 20.90625 31.390625 
Q 20.90625 42.671875 17.703125 53.65625 
Q 14.5 64.65625 8.015625 75.875 
z
" id="DejaVuSans-41"/>
    </defs>
       <g style="fill:#262626;" transform="translate(337.744687 28.56)scale(0.12 -0.12)">
     <use xlink:href="#DejaVuSans-65"/>
     <use x="68.392578" xlink:href="#DejaVuSans-99"/>
     <use x="123.373047" xlink:href="#DejaVuSans-99"/>
     <use x="178.353516" xlink:href="#DejaVuSans-32"/>
     <use x="210.140625" xlink:href="#DejaVuSans-40"/>
     <use x="249.154297" xlink:href="#DejaVuSans-116"/>
     <use x="288.363281" xlink:href="#DejaVuSans-114"/>
     <use x="329.476562" xlink:href="#DejaVuSans-97"/>
     <use x="390.755859" xlink:href="#DejaVuSans-105"/>
     <use x="418.539062" xlink:href="#DejaVuSans-110"/>
     <use x="481.917969" xlink:href="#DejaVuSans-41"/>
    </g>
   </g>
   <g id="legend_1">
    <g id="patch_7">
        <path d="M 563.670313 247
L 641 247 
Q 643 247 643 245 
L 643 172.053125 
Q 643 170.053125 641 170.053125 
L 563.670313 170.053125 
Q 561.670313 170.053125 561.670313 172.053125 
L 561.670313 245 
Q 561.670313 247 563.670313 247 
z
" style="fill:#ffffff;opacity:0.8;stroke:#cccccc;stroke-linejoin:miter;"/>
    </g>
    <g id="line2d_24">
        <path d="M 565.670313 178.151563
L 585.670313 178.151563 
" style="fill:none;"/>
    </g>
    <g id="line2d_25"/>
    <g id="text_18">
     <!-- model -->
     <defs>
      <path d="M 52 44.1875 
Q 55.375 50.25 60.0625 53.125 
Q 64.75 56 71.09375 56 
Q 79.640625 56 84.28125 50.015625 
Q 88.921875 44.046875 88.921875 33.015625 
L 88.921875 0 
L 79.890625 0 
L 79.890625 32.71875 
Q 79.890625 40.578125 77.09375 44.375 
Q 74.3125 48.1875 68.609375 48.1875 
Q 61.625 48.1875 57.5625 43.546875 
Q 53.515625 38.921875 53.515625 30.90625 
L 53.515625 0 
L 44.484375 0 
L 44.484375 32.71875 
Q 44.484375 40.625 41.703125 44.40625 
Q 38.921875 48.1875 33.109375 48.1875 
Q 26.21875 48.1875 22.15625 43.53125 
Q 18.109375 38.875 18.109375 30.90625 
L 18.109375 0 
L 9.078125 0 
L 9.078125 54.6875 
L 18.109375 54.6875 
L 18.109375 46.1875 
Q 21.1875 51.21875 25.484375 53.609375 
Q 29.78125 56 35.6875 56 
Q 41.65625 56 45.828125 52.96875 
Q 50 49.953125 52 44.1875 
z
" id="DejaVuSans-109"/>
      <path d="M 45.40625 46.390625 
L 45.40625 75.984375 
L 54.390625 75.984375 
L 54.390625 0 
L 45.40625 0 
L 45.40625 8.203125 
Q 42.578125 3.328125 38.25 0.953125 
Q 33.9375 -1.421875 27.875 -1.421875 
Q 17.96875 -1.421875 11.734375 6.484375 
Q 5.515625 14.40625 5.515625 27.296875 
Q 5.515625 40.1875 11.734375 48.09375 
Q 17.96875 56 27.875 56 
Q 33.9375 56 38.25 53.625 
Q 42.578125 51.265625 45.40625 46.390625 
z
M 14.796875 27.296875 
Q 14.796875 17.390625 18.875 11.75 
Q 22.953125 6.109375 30.078125 6.109375 
Q 37.203125 6.109375 41.296875 11.75 
Q 45.40625 17.390625 45.40625 27.296875 
Q 45.40625 37.203125 41.296875 42.84375 
Q 37.203125 48.484375 30.078125 48.484375 
Q 22.953125 48.484375 18.875 42.84375 
Q 14.796875 37.203125 14.796875 27.296875 
z
" id="DejaVuSans-100"/>
      <path d="M 9.421875 75.984375 
L 18.40625 75.984375 
L 18.40625 0 
L 9.421875 0 
z
" id="DejaVuSans-108"/>
     </defs>
        <g style="fill:#262626;" transform="translate(593.670313 181.651563)scale(0.1 -0.1)">
      <use xlink:href="#DejaVuSans-109"/>
      <use x="97.412109" xlink:href="#DejaVuSans-111"/>
      <use x="158.59375" xlink:href="#DejaVuSans-100"/>
      <use x="222.070312" xlink:href="#DejaVuSans-101"/>
      <use x="283.59375" xlink:href="#DejaVuSans-108"/>
     </g>
    </g>
    <g id="line2d_26">
        <path d="M 565.670313 192.829688
L 585.670313 192.829688 
" style="fill:none;stroke:#1f77b4;stroke-linecap:round;stroke-width:1.5;"/>
    </g>
    <g id="line2d_27"/>
    <g id="text_19">
     <!-- FC -->
     <defs>
      <path d="M 9.8125 72.90625 
L 51.703125 72.90625 
L 51.703125 64.59375 
L 19.671875 64.59375 
L 19.671875 43.109375 
L 48.578125 43.109375 
L 48.578125 34.8125 
L 19.671875 34.8125 
L 19.671875 0 
L 9.8125 0 
z
" id="DejaVuSans-70"/>
      <path d="M 64.40625 67.28125 
L 64.40625 56.890625 
Q 59.421875 61.53125 53.78125 63.8125 
Q 48.140625 66.109375 41.796875 66.109375 
Q 29.296875 66.109375 22.65625 58.46875 
Q 16.015625 50.828125 16.015625 36.375 
Q 16.015625 21.96875 22.65625 14.328125 
Q 29.296875 6.6875 41.796875 6.6875 
Q 48.140625 6.6875 53.78125 8.984375 
Q 59.421875 11.28125 64.40625 15.921875 
L 64.40625 5.609375 
Q 59.234375 2.09375 53.4375 0.328125 
Q 47.65625 -1.421875 41.21875 -1.421875 
Q 24.65625 -1.421875 15.125 8.703125 
Q 5.609375 18.84375 5.609375 36.375 
Q 5.609375 53.953125 15.125 64.078125 
Q 24.65625 74.21875 41.21875 74.21875 
Q 47.75 74.21875 53.53125 72.484375 
Q 59.328125 70.75 64.40625 67.28125 
z
" id="DejaVuSans-67"/>
     </defs>
        <g style="fill:#262626;" transform="translate(593.670313 196.329688)scale(0.1 -0.1)">
      <use xlink:href="#DejaVuSans-70"/>
      <use x="57.519531" xlink:href="#DejaVuSans-67"/>
     </g>
    </g>
    <g id="line2d_28">
        <path d="M 565.670313 207.507812
L 585.670313 207.507812 
" style="fill:none;stroke:#ff7f0e;stroke-linecap:round;stroke-width:1.5;"/>
    </g>
    <g id="line2d_29"/>
    <g id="text_20">
     <!-- FC_aux -->
     <defs>
      <path d="M 50.984375 -16.609375 
L 50.984375 -23.578125 
L -0.984375 -23.578125 
L -0.984375 -16.609375 
z
" id="DejaVuSans-95"/>
      <path d="M 8.5 21.578125 
L 8.5 54.6875 
L 17.484375 54.6875 
L 17.484375 21.921875 
Q 17.484375 14.15625 20.5 10.265625 
Q 23.53125 6.390625 29.59375 6.390625 
Q 36.859375 6.390625 41.078125 11.03125 
Q 45.3125 15.671875 45.3125 23.6875 
L 45.3125 54.6875 
L 54.296875 54.6875 
L 54.296875 0 
L 45.3125 0 
L 45.3125 8.40625 
Q 42.046875 3.421875 37.71875 1 
Q 33.40625 -1.421875 27.6875 -1.421875 
Q 18.265625 -1.421875 13.375 4.4375 
Q 8.5 10.296875 8.5 21.578125 
z
M 31.109375 56 
z
" id="DejaVuSans-117"/>
      <path d="M 54.890625 54.6875 
L 35.109375 28.078125 
L 55.90625 0 
L 45.3125 0 
L 29.390625 21.484375 
L 13.484375 0 
L 2.875 0 
L 24.125 28.609375 
L 4.6875 54.6875 
L 15.28125 54.6875 
L 29.78125 35.203125 
L 44.28125 54.6875 
z
" id="DejaVuSans-120"/>
     </defs>
        <g style="fill:#262626;" transform="translate(593.670313 211.007812)scale(0.1 -0.1)">
      <use xlink:href="#DejaVuSans-70"/>
      <use x="57.519531" xlink:href="#DejaVuSans-67"/>
      <use x="127.34375" xlink:href="#DejaVuSans-95"/>
      <use x="177.34375" xlink:href="#DejaVuSans-97"/>
      <use x="238.623047" xlink:href="#DejaVuSans-117"/>
      <use x="302.001953" xlink:href="#DejaVuSans-120"/>
     </g>
    </g>
    <g id="line2d_30">
        <path d="M 565.670313 222.464063
L 585.670313 222.464063 
" style="fill:none;stroke:#2ca02c;stroke-linecap:round;stroke-width:1.5;"/>
    </g>
    <g id="line2d_31"/>
    <g id="text_21">
     <!-- CNN -->
     <defs>
      <path d="M 9.8125 72.90625 
L 23.09375 72.90625 
L 55.421875 11.921875 
L 55.421875 72.90625 
L 64.984375 72.90625 
L 64.984375 0 
L 51.703125 0 
L 19.390625 60.984375 
L 19.390625 0 
L 9.8125 0 
z
" id="DejaVuSans-78"/>
     </defs>
        <g style="fill:#262626;" transform="translate(593.670313 225.964063)scale(0.1 -0.1)">
      <use xlink:href="#DejaVuSans-67"/>
      <use x="69.824219" xlink:href="#DejaVuSans-78"/>
      <use x="144.628906" xlink:href="#DejaVuSans-78"/>
     </g>
    </g>
    <g id="line2d_32">
        <path d="M 565.670313 237.142187
L 585.670313 237.142187 
" style="fill:none;stroke:#d62728;stroke-linecap:round;stroke-width:1.5;"/>
    </g>
    <g id="line2d_33"/>
    <g id="text_22">
     <!-- CNN_aux -->
        <g style="fill:#262626;" transform="translate(593.670313 240.642187)scale(0.1 -0.1)">
      <use xlink:href="#DejaVuSans-67"/>
      <use x="69.824219" xlink:href="#DejaVuSans-78"/>
      <use x="144.628906" xlink:href="#DejaVuSans-78"/>
      <use x="219.433594" xlink:href="#DejaVuSans-95"/>
      <use x="269.433594" xlink:href="#DejaVuSans-97"/>
      <use x="330.712891" xlink:href="#DejaVuSans-117"/>
      <use x="394.091797" xlink:href="#DejaVuSans-120"/>
     </g>
    </g>
   </g>
  </g>
 </g>
 <defs>
     <clipPath id="p6844d867fc">
         <rect height="217.44" width="558" x="90" y="34.56"/>
  </clipPath>
 </defs>
</svg>
