<?xml version="1.0" encoding="utf-8" standalone="no"?>
<!DOCTYPE svg PUBLIC "-//W3C//DTD SVG 1.1//EN"
  "http://www.w3.org/Graphics/SVG/1.1/DTD/svg11.dtd">
<!-- Created with matplotlib (https://matplotlib.org/) -->
<svg height="648pt" version="1.1" viewBox="0 0 1152 648" width="1152pt" xmlns="http://www.w3.org/2000/svg" xmlns:xlink="http://www.w3.org/1999/xlink">
 <defs>
  <style type="text/css">
*{stroke-linecap:butt;stroke-linejoin:round;}
  </style>
 </defs>
 <g id="figure_1">
  <g id="patch_1">
   <path d="M 0 648 
L 1152 648 
L 1152 0 
L 0 0 
z
" style="fill:#ffffff;"/>
  </g>
  <g id="axes_1">
   <g id="patch_2">
    <path d="M 144 567 
L 1036.8 567 
L 1036.8 77.76 
L 144 77.76 
z
" style="fill:#ffffff;"/>
   </g>
   <g id="PolyCollection_1">
    <defs>
     <path d="M 184.581818 -228.58363 
L 184.581818 -181.541323 
L 190.029042 -274.135772 
L 195.476266 -318.550896 
L 200.92349 -341.742376 
L 206.370714 -359.301843 
L 211.817938 -380.041693 
L 217.265162 -391.309801 
L 222.712386 -405.676638 
L 228.15961 -414.413504 
L 233.606833 -420.784476 
L 239.054057 -431.074789 
L 244.501281 -437.849943 
L 249.948505 -443.320691 
L 255.395729 -450.261192 
L 260.842953 -458.263181 
L 266.290177 -461.770176 
L 271.737401 -465.858947 
L 277.184625 -469.367983 
L 282.631849 -473.032159 
L 288.079073 -478.182419 
L 293.526297 -481.207661 
L 298.97352 -485.941491 
L 304.420744 -491.575545 
L 309.867968 -491.738851 
L 315.315192 -496.476763 
L 320.762416 -499.906187 
L 326.20964 -503.578529 
L 331.656864 -502.845694 
L 337.104088 -503.574446 
L 342.551312 -509.457542 
L 347.998536 -512.399089 
L 353.44576 -514.846637 
L 358.892984 -517.624878 
L 364.340207 -516.808349 
L 369.787431 -520.893038 
L 375.234655 -523.587585 
L 380.681879 -522.524055 
L 386.129103 -523.910114 
L 391.576327 -526.033091 
L 397.023551 -528.97668 
L 402.470775 -528.895027 
L 407.917999 -528.568415 
L 413.365223 -534.52704 
L 418.812447 -533.465551 
L 424.259671 -532.238716 
L 429.706894 -534.200428 
L 435.154118 -532.730675 
L 440.601342 -536.48671 
L 446.048566 -537.711505 
L 451.49579 -536.815364 
L 456.943014 -539.916134 
L 462.390238 -537.386934 
L 467.837462 -538.364728 
L 473.284686 -540.406052 
L 478.73191 -542.610682 
L 484.179134 -541.877847 
L 489.626358 -542.122806 
L 495.073581 -542.449417 
L 500.520805 -542.204459 
L 505.968029 -543.018947 
L 511.415253 -544.572394 
L 516.862477 -544.7357 
L 522.309701 -542.53107 
L 527.756925 -541.224623 
L 533.204149 -539.428258 
L 538.651373 -537.956464 
L 544.098597 -540.816358 
L 549.545821 -542.857682 
L 554.993045 -544.817353 
L 560.440268 -545.55223 
L 565.887492 -547.021983 
L 571.334716 -546.94033 
L 576.78194 -545.960494 
L 582.229164 -535.753875 
L 587.676388 -538.285117 
L 593.123612 -539.918176 
L 598.570836 -541.632888 
L 604.01806 -544.980659 
L 609.465284 -546.1238 
L 614.912508 -544.409088 
L 620.359732 -543.592559 
L 625.806955 -544.572394 
L 631.254179 -544.245782 
L 636.701403 -546.695371 
L 642.148627 -547.430248 
L 647.595851 -547.348595 
L 653.043075 -547.430248 
L 658.490299 -547.348595 
L 663.937523 -547.348595 
L 669.384747 -547.430248 
L 674.831971 -547.348595 
L 680.279195 -546.695371 
L 685.726419 -547.430248 
L 691.173642 -547.428206 
L 696.620866 -547.430248 
L 702.06809 -547.593553 
L 707.515314 -547.756859 
L 712.962538 -547.756859 
L 718.409762 -547.756859 
L 723.856986 -547.756859 
L 729.30421 -547.756859 
L 734.751434 -547.756859 
L 740.198658 -547.756859 
L 745.645882 -547.756859 
L 751.093106 -547.756859 
L 756.540329 -547.756859 
L 761.987553 -547.756859 
L 767.434777 -547.593553 
L 772.882001 -547.756859 
L 778.329225 -547.593553 
L 783.776449 -547.756859 
L 789.223673 -547.756859 
L 794.670897 -547.756859 
L 800.118121 -547.756859 
L 805.565345 -547.756859 
L 811.012569 -547.756859 
L 816.459793 -547.756859 
L 821.907016 -547.756859 
L 827.35424 -547.756859 
L 832.801464 -547.756859 
L 838.248688 -547.756859 
L 843.695912 -547.593553 
L 849.143136 -547.756859 
L 854.59036 -547.756859 
L 860.037584 -547.756859 
L 865.484808 -547.756859 
L 870.932032 -547.756859 
L 876.379256 -547.756859 
L 881.82648 -547.756859 
L 887.273703 -547.756859 
L 892.720927 -547.756859 
L 898.168151 -547.756859 
L 903.615375 -547.756859 
L 909.062599 -547.756859 
L 914.509823 -547.756859 
L 919.957047 -547.756859 
L 925.404271 -547.756859 
L 930.851495 -547.756859 
L 936.298719 -547.756859 
L 941.745943 -547.756859 
L 947.193167 -547.756859 
L 952.64039 -547.756859 
L 958.087614 -547.756859 
L 963.534838 -547.756859 
L 968.982062 -547.756859 
L 974.429286 -547.593553 
L 979.87651 -541.469582 
L 985.323734 -513.380966 
L 990.770958 -517.953531 
L 996.218182 -507.256995 
L 996.218182 -548.001818 
L 996.218182 -548.001818 
L 990.770958 -548.001818 
L 985.323734 -548.001818 
L 979.87651 -548.001818 
L 974.429286 -548.001818 
L 968.982062 -548.001818 
L 963.534838 -548.001818 
L 958.087614 -548.001818 
L 952.64039 -548.001818 
L 947.193167 -548.001818 
L 941.745943 -548.001818 
L 936.298719 -548.001818 
L 930.851495 -548.001818 
L 925.404271 -548.001818 
L 919.957047 -548.001818 
L 914.509823 -548.001818 
L 909.062599 -548.001818 
L 903.615375 -548.001818 
L 898.168151 -548.001818 
L 892.720927 -548.001818 
L 887.273703 -548.001818 
L 881.82648 -548.001818 
L 876.379256 -548.001818 
L 870.932032 -548.001818 
L 865.484808 -548.001818 
L 860.037584 -548.001818 
L 854.59036 -548.001818 
L 849.143136 -548.001818 
L 843.695912 -548.001818 
L 838.248688 -548.001818 
L 832.801464 -548.001818 
L 827.35424 -548.001818 
L 821.907016 -548.001818 
L 816.459793 -548.001818 
L 811.012569 -548.001818 
L 805.565345 -548.001818 
L 800.118121 -548.001818 
L 794.670897 -548.001818 
L 789.223673 -548.001818 
L 783.776449 -548.001818 
L 778.329225 -548.001818 
L 772.882001 -548.001818 
L 767.434777 -548.001818 
L 761.987553 -548.001818 
L 756.540329 -548.001818 
L 751.093106 -548.001818 
L 745.645882 -548.001818 
L 740.198658 -548.001818 
L 734.751434 -548.001818 
L 729.30421 -548.001818 
L 723.856986 -548.001818 
L 718.409762 -548.001818 
L 712.962538 -548.001818 
L 707.515314 -548.001818 
L 702.06809 -548.001818 
L 696.620866 -548.001818 
L 691.173642 -548.001818 
L 685.726419 -548.001818 
L 680.279195 -548.001818 
L 674.831971 -548.001818 
L 669.384747 -548.001818 
L 663.937523 -548.001818 
L 658.490299 -548.001818 
L 653.043075 -548.001818 
L 647.595851 -548.001818 
L 642.148627 -548.001818 
L 636.701403 -548.001818 
L 631.254179 -548.001818 
L 625.806955 -548.001818 
L 620.359732 -547.838512 
L 614.912508 -547.756859 
L 609.465284 -547.840554 
L 604.01806 -548.001818 
L 598.570836 -548.001818 
L 593.123612 -547.838512 
L 587.676388 -547.838512 
L 582.229164 -547.838512 
L 576.78194 -548.001818 
L 571.334716 -548.001818 
L 565.887492 -547.920165 
L 560.440268 -547.838512 
L 554.993045 -547.675206 
L 549.545821 -547.838512 
L 544.098597 -547.675206 
L 538.651373 -547.675206 
L 533.204149 -547.675206 
L 527.756925 -547.675206 
L 522.309701 -547.675206 
L 516.862477 -547.515983 
L 511.415253 -547.675206 
L 505.968029 -547.5119 
L 500.520805 -547.513942 
L 495.073581 -547.675206 
L 489.626358 -547.593553 
L 484.179134 -547.266942 
L 478.73191 -547.350636 
L 473.284686 -546.94033 
L 467.837462 -547.266942 
L 462.390238 -547.103636 
L 456.943014 -546.858677 
L 451.49579 -546.860718 
L 446.048566 -546.858677 
L 440.601342 -546.042147 
L 435.154118 -545.470577 
L 429.706894 -545.633883 
L 424.259671 -543.429253 
L 418.812447 -544.002865 
L 413.365223 -544.247824 
L 407.917999 -542.696418 
L 402.470775 -540.981706 
L 397.023551 -542.286111 
L 391.576327 -540.900053 
L 386.129103 -541.228706 
L 380.681879 -539.509911 
L 375.234655 -540.326441 
L 369.787431 -540.081482 
L 364.340207 -535.757958 
L 358.892984 -535.263957 
L 353.44576 -534.529081 
L 347.998536 -531.999881 
L 342.551312 -529.79321 
L 337.104088 -528.241803 
L 331.656864 -525.712603 
L 326.20964 -525.63095 
L 320.762416 -522.03822 
L 315.315192 -519.753979 
L 309.867968 -516.326596 
L 304.420744 -515.179372 
L 298.97352 -510.61089 
L 293.526297 -507.256995 
L 288.079073 -502.3619 
L 282.631849 -498.113905 
L 277.184625 -493.298422 
L 271.737401 -489.540345 
L 266.290177 -485.21478 
L 260.842953 -480.321727 
L 255.395729 -472.313613 
L 249.948505 -466.348865 
L 244.501281 -458.350958 
L 239.054057 -453.041475 
L 233.606833 -445.937668 
L 228.15961 -436.057661 
L 222.712386 -426.583877 
L 217.265162 -415.728117 
L 211.817938 -405.519456 
L 206.370714 -393.681819 
L 200.92349 -375.228252 
L 195.476266 -358.405702 
L 190.029042 -316.434043 
L 184.581818 -228.58363 
z
" id="ma491345e55" style="stroke:#1f77b4;stroke-opacity:0.2;"/>
    </defs>
    <g clip-path="url(#ped32726613)">
     <use style="fill:#1f77b4;fill-opacity:0.2;stroke:#1f77b4;stroke-opacity:0.2;" x="0" xlink:href="#ma491345e55" y="648"/>
    </g>
   </g>
   <g id="PolyCollection_2">
    <defs>
     <path d="M 184.581818 -170.685563 
L 184.581818 -130.018309 
L 190.029042 -111.076865 
L 195.476266 -116.21896 
L 200.92349 -140.633193 
L 206.370714 -166.680485 
L 211.817938 -175.907269 
L 217.265162 -188.973783 
L 222.712386 -203.663149 
L 228.15961 -212.894015 
L 233.606833 -232.90103 
L 239.054057 -246.528908 
L 244.501281 -251.760821 
L 249.948505 -262.047052 
L 255.395729 -271.269753 
L 260.842953 -277.071195 
L 266.290177 -287.516649 
L 271.737401 -289.966238 
L 277.184625 -290.790933 
L 282.631849 -295.361457 
L 288.079073 -294.30201 
L 293.526297 -299.107286 
L 298.97352 -303.608405 
L 304.420744 -299.609452 
L 309.867968 -306.304994 
L 315.315192 -305.163894 
L 320.762416 -304.673976 
L 326.20964 -309.720129 
L 331.656864 -309.96917 
L 337.104088 -309.079153 
L 342.551312 -307.109275 
L 347.998536 -310.220253 
L 353.44576 -310.877559 
L 358.892984 -313.078106 
L 364.340207 -313.804818 
L 369.787431 -313.408801 
L 375.234655 -316.995407 
L 380.681879 -317.238324 
L 386.129103 -320.026773 
L 391.576327 -317.240366 
L 397.023551 -321.482237 
L 402.470775 -324.025726 
L 407.917999 -320.02269 
L 413.365223 -326.216067 
L 418.812447 -322.308973 
L 424.259671 -328.269638 
L 429.706894 -333.078997 
L 435.154118 -336.357363 
L 440.601342 -336.112404 
L 446.048566 -335.773545 
L 451.49579 -337.251463 
L 456.943014 -341.664805 
L 462.390238 -341.415764 
L 467.837462 -341.572946 
L 473.284686 -347.051859 
L 478.73191 -352.18783 
L 484.179134 -351.054895 
L 489.626358 -351.134507 
L 495.073581 -352.18783 
L 500.520805 -348.435876 
L 505.968029 -354.398583 
L 511.415253 -359.544761 
L 516.862477 -357.825966 
L 522.309701 -359.446777 
L 527.756925 -359.212025 
L 533.204149 -359.28143 
L 538.651373 -366.730221 
L 544.098597 -361.724895 
L 549.545821 -363.872367 
L 554.993045 -368.667437 
L 560.440268 -369.75138 
L 565.887492 -373.258374 
L 571.334716 -371.468133 
L 576.78194 -377.918717 
L 582.229164 -376.252996 
L 587.676388 -376.204005 
L 593.123612 -374.815904 
L 598.570836 -377.09198 
L 604.01806 -378.490287 
L 609.465284 -379.796734 
L 614.912508 -381.829893 
L 620.359732 -383.381299 
L 625.806955 -388.768353 
L 631.254179 -391.473107 
L 636.701403 -391.219983 
L 642.148627 -394.326878 
L 647.595851 -397.268425 
L 653.043075 -398.632029 
L 658.490299 -399.475096 
L 663.937523 -400.367155 
L 669.384747 -402.251297 
L 674.831971 -404.945844 
L 680.279195 -411.312733 
L 685.726419 -414.32981 
L 691.173642 -411.804692 
L 696.620866 -414.82381 
L 702.06809 -415.94858 
L 707.515314 -417.66125 
L 712.962538 -420.455823 
L 718.409762 -422.329758 
L 723.856986 -419.790351 
L 729.30421 -424.046511 
L 734.751434 -425.277429 
L 740.198658 -427.549423 
L 745.645882 -424.787512 
L 751.093106 -427.96177 
L 756.540329 -430.172524 
L 761.987553 -428.864035 
L 767.434777 -429.684648 
L 772.882001 -434.255172 
L 778.329225 -430.907401 
L 783.776449 -429.278424 
L 789.223673 -434.910437 
L 794.670897 -433.432518 
L 800.118121 -438.005084 
L 805.565345 -435.400354 
L 811.012569 -441.605979 
L 816.459793 -439.238043 
L 821.907016 -438.668514 
L 827.35424 -442.667467 
L 832.801464 -443.72079 
L 838.248688 -438.746084 
L 843.695912 -443.157385 
L 849.143136 -444.210708 
L 854.59036 -444.545485 
L 860.037584 -448.787356 
L 865.484808 -446.260197 
L 870.932032 -444.292361 
L 876.379256 -446.582726 
L 881.82648 -448.875133 
L 887.273703 -449.277274 
L 892.720927 -446.343891 
L 898.168151 -448.303562 
L 903.615375 -449.844762 
L 909.062599 -452.790392 
L 914.509823 -451.649292 
L 919.957047 -454.100922 
L 925.404271 -453.611004 
L 930.851495 -455.080757 
L 936.298719 -457.285387 
L 941.745943 -451.977945 
L 947.193167 -457.691611 
L 952.64039 -459.081752 
L 958.087614 -458.173363 
L 963.534838 -457.44461 
L 968.982062 -457.12004 
L 974.429286 -459.159322 
L 979.87651 -462.345829 
L 985.323734 -463.156234 
L 990.770958 -460.957729 
L 996.218182 -459.230769 
L 996.218182 -499.920477 
L 996.218182 -499.920477 
L 990.770958 -500.890105 
L 985.323734 -498.936559 
L 979.87651 -498.195558 
L 974.429286 -497.299417 
L 968.982062 -498.12207 
L 963.534838 -497.542334 
L 958.087614 -499.01617 
L 952.64039 -498.197599 
L 947.193167 -500.649229 
L 941.745943 -496.6564 
L 936.298719 -497.468847 
L 930.851495 -498.283335 
L 925.404271 -497.217764 
L 919.957047 -492.069545 
L 914.509823 -494.355828 
L 909.062599 -495.829664 
L 903.615375 -493.298422 
L 898.168151 -494.449729 
L 892.720927 -490.844751 
L 887.273703 -488.80751 
L 881.82648 -492.485975 
L 876.379256 -490.926404 
L 870.932032 -486.194615 
L 865.484808 -485.547516 
L 860.037584 -490.928445 
L 854.59036 -488.891204 
L 849.143136 -489.462775 
L 843.695912 -489.052469 
L 838.248688 -487.264269 
L 832.801464 -486.274227 
L 827.35424 -487.986898 
L 821.907016 -486.766186 
L 816.459793 -486.437533 
L 811.012569 -486.702905 
L 805.565345 -483.006067 
L 800.118121 -484.561556 
L 794.670897 -483.255109 
L 789.223673 -484.234944 
L 783.776449 -479.333726 
L 778.329225 -482.926456 
L 772.882001 -480.23395 
L 767.434777 -479.178585 
L 761.987553 -476.722873 
L 756.540329 -477.623096 
L 751.093106 -478.351849 
L 745.645882 -477.131137 
L 740.198658 -477.700667 
L 734.751434 -474.777491 
L 729.30421 -473.536366 
L 723.856986 -474.765243 
L 718.409762 -474.76116 
L 712.962538 -471.427679 
L 707.515314 -471.911472 
L 702.06809 -470.923472 
L 696.620866 -469.778289 
L 691.173642 -471.909431 
L 685.726419 -470.59686 
L 680.279195 -470.678513 
L 674.831971 -469.372066 
L 669.384747 -466.512171 
L 663.937523 -462.843912 
L 658.490299 -461.625242 
L 653.043075 -461.06796 
L 647.595851 -461.053671 
L 642.148627 -460.800547 
L 636.701403 -460.808712 
L 631.254179 -457.371123 
L 625.806955 -456.962858 
L 620.359732 -455.899328 
L 614.912508 -459.573711 
L 609.465284 -454.427534 
L 604.01806 -458.361165 
L 598.570836 -455.983023 
L 593.123612 -449.046604 
L 587.676388 -453.043516 
L 582.229164 -452.469904 
L 576.78194 -452.406623 
L 571.334716 -450.426539 
L 565.887492 -447.570727 
L 560.440268 -445.939709 
L 554.993045 -445.776403 
L 549.545821 -442.916509 
L 544.098597 -439.915763 
L 538.651373 -440.554697 
L 533.204149 -436.467967 
L 527.756925 -441.369185 
L 522.309701 -437.282455 
L 516.862477 -435.984173 
L 511.415253 -436.708843 
L 505.968029 -436.888479 
L 500.520805 -432.238344 
L 495.073581 -432.80379 
L 489.626358 -429.372325 
L 484.179134 -431.901525 
L 478.73191 -430.425648 
L 473.284686 -420.796724 
L 467.837462 -419.653582 
L 462.390238 -414.417587 
L 456.943014 -414.501281 
L 451.49579 -412.051692 
L 446.048566 -410.830981 
L 440.601342 -410.01241 
L 435.154118 -407.967003 
L 429.706894 -406.911639 
L 424.259671 -405.682762 
L 418.812447 -401.518461 
L 413.365223 -401.687891 
L 407.917999 -400.781543 
L 402.470775 -398.519757 
L 397.023551 -403.488339 
L 391.576327 -399.158691 
L 386.129103 -393.930861 
L 380.681879 -396.625408 
L 375.234655 -394.910696 
L 369.787431 -391.732355 
L 364.340207 -390.828048 
L 358.892984 -391.807884 
L 353.44576 -386.906665 
L 347.998536 -385.518565 
L 342.551312 -385.353218 
L 337.104088 -384.714284 
L 331.656864 -380.207041 
L 326.20964 -380.209082 
L 320.762416 -375.638558 
L 315.315192 -373.680928 
L 309.867968 -371.713092 
L 304.420744 -369.598281 
L 298.97352 -365.591162 
L 293.526297 -359.875455 
L 288.079073 -355.637667 
L 282.631849 -355.05589 
L 277.184625 -350.240407 
L 271.737401 -351.383548 
L 266.290177 -346.1598 
L 260.842953 -345.584147 
L 255.395729 -338.010836 
L 249.948505 -328.602374 
L 244.501281 -318.893838 
L 239.054057 -309.993666 
L 233.606833 -306.247837 
L 228.15961 -292.113711 
L 222.712386 -273.974507 
L 217.265162 -258.79114 
L 211.817938 -244.922386 
L 206.370714 -226.144248 
L 200.92349 -195.187572 
L 195.476266 -175.841947 
L 190.029042 -143.25017 
L 184.581818 -170.685563 
z
" id="mebf48d09a6" style="stroke:#ff7f0e;stroke-opacity:0.2;"/>
    </defs>
    <g clip-path="url(#ped32726613)">
     <use style="fill:#ff7f0e;fill-opacity:0.2;stroke:#ff7f0e;stroke-opacity:0.2;" x="0" xlink:href="#mebf48d09a6" y="648"/>
    </g>
   </g>
   <g id="PolyCollection_3">
    <defs>
     <path d="M 184.581818 -207.100738 
L 184.581818 -158.42333 
L 190.029042 -232.982683 
L 195.476266 -301.489511 
L 200.92349 -338.723258 
L 206.370714 -361.341126 
L 211.817938 -378.816899 
L 217.265162 -399.636361 
L 222.712386 -414.254281 
L 228.15961 -423.315717 
L 233.606833 -431.972972 
L 239.054057 -437.764207 
L 244.501281 -446.180585 
L 249.948505 -455.811551 
L 255.395729 -461.60687 
L 260.842953 -462.750011 
L 266.290177 -473.205672 
L 271.737401 -474.922425 
L 277.184625 -485.124962 
L 282.631849 -491.987892 
L 288.079073 -493.620951 
L 293.526297 -497.942434 
L 298.97352 -504.152141 
L 304.420744 -508.5614 
L 309.867968 -511.411089 
L 315.315192 -515.581513 
L 320.762416 -515.501901 
L 326.20964 -520.811385 
L 331.656864 -521.86879 
L 337.104088 -527.096621 
L 342.551312 -528.97668 
L 347.998536 -528.892986 
L 353.44576 -529.538044 
L 358.892984 -531.997839 
L 364.340207 -536.897017 
L 369.787431 -533.871775 
L 375.234655 -537.060322 
L 380.681879 -535.833487 
L 386.129103 -535.998834 
L 391.576327 -541.14297 
L 397.023551 -540.979664 
L 402.470775 -544.570353 
L 407.917999 -544.327435 
L 413.365223 -544.572394 
L 418.812447 -546.1238 
L 424.259671 -547.266942 
L 429.706894 -547.430248 
L 435.154118 -547.756859 
L 440.601342 -548.001818 
L 446.048566 -548.001818 
L 451.49579 -547.756859 
L 456.943014 -548.001818 
L 462.390238 -548.001818 
L 467.837462 -548.001818 
L 473.284686 -548.001818 
L 478.73191 -548.001818 
L 484.179134 -548.001818 
L 489.626358 -548.001818 
L 495.073581 -548.001818 
L 500.520805 -548.001818 
L 505.968029 -548.001818 
L 511.415253 -548.001818 
L 516.862477 -548.001818 
L 522.309701 -548.001818 
L 527.756925 -548.001818 
L 533.204149 -548.001818 
L 538.651373 -548.001818 
L 544.098597 -548.001818 
L 549.545821 -548.001818 
L 554.993045 -548.001818 
L 560.440268 -548.001818 
L 565.887492 -548.001818 
L 571.334716 -548.001818 
L 576.78194 -548.001818 
L 582.229164 -548.001818 
L 587.676388 -548.001818 
L 593.123612 -548.001818 
L 598.570836 -548.001818 
L 604.01806 -548.001818 
L 609.465284 -548.001818 
L 614.912508 -548.001818 
L 620.359732 -548.001818 
L 625.806955 -548.001818 
L 631.254179 -548.001818 
L 636.701403 -548.001818 
L 642.148627 -548.001818 
L 647.595851 -548.001818 
L 653.043075 -548.001818 
L 658.490299 -548.001818 
L 663.937523 -548.001818 
L 669.384747 -548.001818 
L 674.831971 -548.001818 
L 680.279195 -548.001818 
L 685.726419 -548.001818 
L 691.173642 -548.001818 
L 696.620866 -548.001818 
L 702.06809 -548.001818 
L 707.515314 -548.001818 
L 712.962538 -548.001818 
L 718.409762 -548.001818 
L 723.856986 -548.001818 
L 729.30421 -548.001818 
L 734.751434 -548.001818 
L 740.198658 -548.001818 
L 745.645882 -548.001818 
L 751.093106 -548.001818 
L 756.540329 -548.001818 
L 761.987553 -548.001818 
L 767.434777 -548.001818 
L 772.882001 -548.001818 
L 778.329225 -548.001818 
L 783.776449 -548.001818 
L 789.223673 -548.001818 
L 794.670897 -548.001818 
L 800.118121 -548.001818 
L 805.565345 -548.001818 
L 811.012569 -548.001818 
L 816.459793 -548.001818 
L 821.907016 -548.001818 
L 827.35424 -548.001818 
L 832.801464 -548.001818 
L 838.248688 -548.001818 
L 843.695912 -548.001818 
L 849.143136 -548.001818 
L 854.59036 -548.001818 
L 860.037584 -548.001818 
L 865.484808 -548.001818 
L 870.932032 -548.001818 
L 876.379256 -548.001818 
L 881.82648 -548.001818 
L 887.273703 -548.001818 
L 892.720927 -548.001818 
L 898.168151 -548.001818 
L 903.615375 -548.001818 
L 909.062599 -548.001818 
L 914.509823 -548.001818 
L 919.957047 -548.001818 
L 925.404271 -548.001818 
L 930.851495 -548.001818 
L 936.298719 -548.001818 
L 941.745943 -548.001818 
L 947.193167 -548.001818 
L 952.64039 -548.001818 
L 958.087614 -548.001818 
L 963.534838 -548.001818 
L 968.982062 -548.001818 
L 974.429286 -548.001818 
L 979.87651 -548.001818 
L 985.323734 -548.001818 
L 990.770958 -548.001818 
L 996.218182 -548.001818 
L 996.218182 -548.001818 
L 996.218182 -548.001818 
L 990.770958 -548.001818 
L 985.323734 -548.001818 
L 979.87651 -548.001818 
L 974.429286 -548.001818 
L 968.982062 -548.001818 
L 963.534838 -548.001818 
L 958.087614 -548.001818 
L 952.64039 -548.001818 
L 947.193167 -548.001818 
L 941.745943 -548.001818 
L 936.298719 -548.001818 
L 930.851495 -548.001818 
L 925.404271 -548.001818 
L 919.957047 -548.001818 
L 914.509823 -548.001818 
L 909.062599 -548.001818 
L 903.615375 -548.001818 
L 898.168151 -548.001818 
L 892.720927 -548.001818 
L 887.273703 -548.001818 
L 881.82648 -548.001818 
L 876.379256 -548.001818 
L 870.932032 -548.001818 
L 865.484808 -548.001818 
L 860.037584 -548.001818 
L 854.59036 -548.001818 
L 849.143136 -548.001818 
L 843.695912 -548.001818 
L 838.248688 -548.001818 
L 832.801464 -548.001818 
L 827.35424 -548.001818 
L 821.907016 -548.001818 
L 816.459793 -548.001818 
L 811.012569 -548.001818 
L 805.565345 -548.001818 
L 800.118121 -548.001818 
L 794.670897 -548.001818 
L 789.223673 -548.001818 
L 783.776449 -548.001818 
L 778.329225 -548.001818 
L 772.882001 -548.001818 
L 767.434777 -548.001818 
L 761.987553 -548.001818 
L 756.540329 -548.001818 
L 751.093106 -548.001818 
L 745.645882 -548.001818 
L 740.198658 -548.001818 
L 734.751434 -548.001818 
L 729.30421 -548.001818 
L 723.856986 -548.001818 
L 718.409762 -548.001818 
L 712.962538 -548.001818 
L 707.515314 -548.001818 
L 702.06809 -548.001818 
L 696.620866 -548.001818 
L 691.173642 -548.001818 
L 685.726419 -548.001818 
L 680.279195 -548.001818 
L 674.831971 -548.001818 
L 669.384747 -548.001818 
L 663.937523 -548.001818 
L 658.490299 -548.001818 
L 653.043075 -548.001818 
L 647.595851 -548.001818 
L 642.148627 -548.001818 
L 636.701403 -548.001818 
L 631.254179 -548.001818 
L 625.806955 -548.001818 
L 620.359732 -548.001818 
L 614.912508 -548.001818 
L 609.465284 -548.001818 
L 604.01806 -548.001818 
L 598.570836 -548.001818 
L 593.123612 -548.001818 
L 587.676388 -548.001818 
L 582.229164 -548.001818 
L 576.78194 -548.001818 
L 571.334716 -548.001818 
L 565.887492 -548.001818 
L 560.440268 -548.001818 
L 554.993045 -548.001818 
L 549.545821 -548.001818 
L 544.098597 -548.001818 
L 538.651373 -548.001818 
L 533.204149 -548.001818 
L 527.756925 -548.001818 
L 522.309701 -548.001818 
L 516.862477 -548.001818 
L 511.415253 -548.001818 
L 505.968029 -548.001818 
L 500.520805 -548.001818 
L 495.073581 -548.001818 
L 489.626358 -548.001818 
L 484.179134 -548.001818 
L 478.73191 -548.001818 
L 473.284686 -548.001818 
L 467.837462 -548.001818 
L 462.390238 -548.001818 
L 456.943014 -548.001818 
L 451.49579 -548.001818 
L 446.048566 -548.001818 
L 440.601342 -548.001818 
L 435.154118 -548.001818 
L 429.706894 -548.001818 
L 424.259671 -548.001818 
L 418.812447 -548.001818 
L 413.365223 -548.001818 
L 407.917999 -547.838512 
L 402.470775 -547.756859 
L 397.023551 -547.675206 
L 391.576327 -547.5119 
L 386.129103 -547.266942 
L 380.681879 -547.021983 
L 375.234655 -545.715535 
L 369.787431 -544.901047 
L 364.340207 -545.388924 
L 358.892984 -544.739783 
L 353.44576 -543.755865 
L 347.998536 -544.327435 
L 342.551312 -543.757906 
L 337.104088 -543.020988 
L 331.656864 -540.489746 
L 326.20964 -537.55024 
L 320.762416 -534.939387 
L 315.315192 -534.367816 
L 309.867968 -533.469634 
L 304.420744 -530.123904 
L 298.97352 -527.343621 
L 293.526297 -523.260973 
L 288.079073 -520.160202 
L 282.631849 -519.998938 
L 277.184625 -511.992866 
L 271.737401 -504.31953 
L 266.290177 -499.179476 
L 260.842953 -492.982017 
L 255.395729 -489.211692 
L 249.948505 -482.844803 
L 244.501281 -476.565691 
L 239.054057 -466.840824 
L 233.606833 -458.103958 
L 228.15961 -448.548521 
L 222.712386 -441.528408 
L 217.265162 -429.525424 
L 211.817938 -414.989157 
L 206.370714 -397.354161 
L 200.92349 -374.90164 
L 195.476266 -345.606602 
L 190.029042 -307.537954 
L 184.581818 -207.100738 
z
" id="m12426a529b" style="stroke:#2ca02c;stroke-opacity:0.2;"/>
    </defs>
    <g clip-path="url(#ped32726613)">
     <use style="fill:#2ca02c;fill-opacity:0.2;stroke:#2ca02c;stroke-opacity:0.2;" x="0" xlink:href="#m12426a529b" y="648"/>
    </g>
   </g>
   <g id="PolyCollection_4">
    <defs>
     <path d="M 184.581818 -147.986042 
L 184.581818 -103.238182 
L 190.029042 -105.68777 
L 195.476266 -119.066607 
L 200.92349 -148.700505 
L 206.370714 -177.372939 
L 211.817938 -201.625908 
L 217.265162 -226.448406 
L 222.712386 -240.066077 
L 228.15961 -256.659998 
L 233.606833 -284.342391 
L 239.054057 -288.906791 
L 244.501281 -305.490506 
L 249.948505 -318.953036 
L 255.395729 -326.638621 
L 260.842953 -351.701995 
L 266.290177 -355.045683 
L 271.737401 -355.539683 
L 277.184625 -369.749339 
L 282.631849 -379.223122 
L 288.079073 -381.337934 
L 293.526297 -386.967905 
L 298.97352 -391.219983 
L 304.420744 -393.100042 
L 309.867968 -402.245173 
L 315.315192 -408.128268 
L 320.762416 -413.029486 
L 326.20964 -419.153458 
L 331.656864 -417.916416 
L 337.104088 -420.702823 
L 342.551312 -425.67957 
L 347.998536 -432.532294 
L 353.44576 -434.581783 
L 358.892984 -438.005084 
L 364.340207 -441.771326 
L 369.787431 -446.262238 
L 375.234655 -448.217827 
L 380.681879 -451.402292 
L 386.129103 -458.26114 
L 391.576327 -460.14324 
L 397.023551 -461.041423 
L 402.470775 -462.098829 
L 407.917999 -466.753047 
L 413.365223 -467.408312 
L 418.812447 -471.407265 
L 424.259671 -471.723671 
L 429.706894 -475.081648 
L 435.154118 -476.555484 
L 440.601342 -477.774154 
L 446.048566 -480.801438 
L 451.49579 -486.517144 
L 456.943014 -484.965738 
L 462.390238 -492.059339 
L 467.837462 -492.55538 
L 473.284686 -491.250974 
L 478.73191 -494.433398 
L 484.179134 -498.436434 
L 489.626358 -492.967728 
L 495.073581 -500.80437 
L 500.520805 -500.947263 
L 505.968029 -502.764041 
L 511.415253 -502.602776 
L 516.862477 -503.417264 
L 522.309701 -506.358812 
L 527.756925 -507.74283 
L 533.204149 -507.250871 
L 538.651373 -508.808401 
L 544.098597 -509.373847 
L 549.545821 -513.705536 
L 554.993045 -514.60576 
L 560.440268 -517.137002 
L 565.887492 -517.871878 
L 571.334716 -517.463614 
L 576.78194 -516.320472 
L 582.229164 -517.786143 
L 587.676388 -520.566426 
L 593.123612 -518.931326 
L 598.570836 -525.216562 
L 604.01806 -523.422238 
L 609.465284 -521.872873 
L 614.912508 -524.973644 
L 620.359732 -525.463562 
L 625.806955 -526.77205 
L 631.254179 -526.608744 
L 636.701403 -529.546209 
L 642.148627 -528.398985 
L 647.595851 -530.201474 
L 653.043075 -528.566374 
L 658.490299 -530.36478 
L 663.937523 -531.18131 
L 669.384747 -530.11778 
L 674.831971 -533.549245 
L 680.279195 -528.890944 
L 685.726419 -531.916186 
L 691.173642 -529.466598 
L 696.620866 -531.015963 
L 702.06809 -533.055245 
L 707.515314 -535.34561 
L 712.962538 -534.77404 
L 718.409762 -537.141975 
L 723.856986 -538.121811 
L 729.30421 -537.466546 
L 734.751434 -537.876852 
L 740.198658 -539.752829 
L 745.645882 -540.07944 
L 751.093106 -540.651011 
L 756.540329 -539.918176 
L 761.987553 -540.734705 
L 767.434777 -539.101646 
L 772.882001 -540.322358 
L 778.329225 -538.528034 
L 783.776449 -538.448423 
L 789.223673 -539.101646 
L 794.670897 -537.301199 
L 800.118121 -537.464505 
L 805.565345 -539.017952 
L 811.012569 -539.101646 
L 816.459793 -539.509911 
L 821.907016 -539.836523 
L 827.35424 -537.874811 
L 832.801464 -538.203464 
L 838.248688 -537.793158 
L 843.695912 -537.872769 
L 849.143136 -535.425222 
L 854.59036 -534.202469 
L 860.037584 -531.503839 
L 865.484808 -537.30324 
L 870.932032 -542.202417 
L 876.379256 -542.53107 
L 881.82648 -542.857682 
L 887.273703 -542.122806 
L 892.720927 -541.306276 
L 898.168151 -541.796194 
L 903.615375 -542.286111 
L 909.062599 -541.387929 
L 914.509823 -543.3476 
L 919.957047 -543.510906 
L 925.404271 -544.327435 
L 930.851495 -544.327435 
L 936.298719 -543.837518 
L 941.745943 -543.592559 
L 947.193167 -542.449417 
L 952.64039 -539.101646 
L 958.087614 -537.223628 
L 963.534838 -538.203464 
L 968.982062 -541.714541 
L 974.429286 -541.877847 
L 979.87651 -543.592559 
L 985.323734 -544.327435 
L 990.770958 -544.082476 
L 996.218182 -544.817353 
L 996.218182 -548.001818 
L 996.218182 -548.001818 
L 990.770958 -548.001818 
L 985.323734 -548.001818 
L 979.87651 -548.001818 
L 974.429286 -548.001818 
L 968.982062 -548.001818 
L 963.534838 -548.001818 
L 958.087614 -548.001818 
L 952.64039 -548.001818 
L 947.193167 -548.001818 
L 941.745943 -548.001818 
L 936.298719 -548.001818 
L 930.851495 -548.001818 
L 925.404271 -548.001818 
L 919.957047 -548.001818 
L 914.509823 -548.001818 
L 909.062599 -548.001818 
L 903.615375 -547.920165 
L 898.168151 -548.001818 
L 892.720927 -547.758901 
L 887.273703 -548.001818 
L 881.82648 -548.001818 
L 876.379256 -547.675206 
L 870.932032 -547.593553 
L 865.484808 -547.348595 
L 860.037584 -545.960494 
L 854.59036 -546.205453 
L 849.143136 -544.901047 
L 843.695912 -546.207495 
L 838.248688 -546.615759 
L 832.801464 -546.042147 
L 827.35424 -545.960494 
L 821.907016 -545.79923 
L 816.459793 -546.858677 
L 811.012569 -546.368759 
L 805.565345 -547.185289 
L 800.118121 -546.94033 
L 794.670897 -546.613718 
L 789.223673 -546.3708 
L 783.776449 -546.613718 
L 778.329225 -546.860718 
L 772.882001 -547.021983 
L 767.434777 -546.695371 
L 761.987553 -546.615759 
L 756.540329 -546.450412 
L 751.093106 -546.858677 
L 745.645882 -546.532065 
L 740.198658 -546.205453 
L 734.751434 -547.021983 
L 729.30421 -546.613718 
L 723.856986 -546.697412 
L 718.409762 -545.79923 
L 712.962538 -545.307271 
L 707.515314 -545.227659 
L 702.06809 -544.002865 
L 696.620866 -543.102641 
L 691.173642 -544.000823 
L 685.726419 -544.000823 
L 680.279195 -544.245782 
L 674.831971 -544.245782 
L 669.384747 -543.674212 
L 663.937523 -543.3476 
L 658.490299 -544.166171 
L 653.043075 -543.5946 
L 647.595851 -543.919171 
L 642.148627 -542.614765 
L 636.701403 -542.53107 
L 631.254179 -542.043194 
L 625.806955 -541.310359 
L 620.359732 -540.571399 
L 614.912508 -540.163135 
L 609.465284 -538.042199 
L 604.01806 -539.842647 
L 598.570836 -539.918176 
L 593.123612 -537.552281 
L 587.676388 -538.93834 
L 582.229164 -537.386934 
L 576.78194 -536.899058 
L 571.334716 -536.327487 
L 565.887492 -535.678346 
L 560.440268 -536.654099 
L 554.993045 -535.186387 
L 549.545821 -535.34561 
L 544.098597 -533.796246 
L 538.651373 -531.183351 
L 533.204149 -529.548251 
L 527.756925 -531.10374 
L 522.309701 -529.386986 
L 516.862477 -529.305333 
L 511.415253 -527.429357 
L 505.968029 -527.680439 
L 500.520805 -525.635033 
L 495.073581 -526.365827 
L 489.626358 -521.956567 
L 484.179134 -523.591668 
L 478.73191 -524.324503 
L 473.284686 -519.588632 
L 467.837462 -520.243897 
L 462.390238 -520.076508 
L 456.943014 -515.018108 
L 451.49579 -518.039267 
L 446.048566 -513.301354 
L 440.601342 -510.196501 
L 435.154118 -510.198542 
L 429.706894 -508.569566 
L 424.259671 -509.798443 
L 418.812447 -505.875018 
L 413.365223 -504.399141 
L 407.917999 -501.214676 
L 402.470775 -499.091699 
L 397.023551 -495.582664 
L 391.576327 -494.03534 
L 386.129103 -495.752093 
L 380.681879 -487.676616 
L 375.234655 -487.662327 
L 369.787431 -484.067556 
L 364.340207 -481.875174 
L 358.892984 -481.297479 
L 353.44576 -477.784361 
L 347.998536 -472.066613 
L 342.551312 -473.213837 
L 337.104088 -466.352948 
L 331.656864 -467.412395 
L 326.20964 -463.4114 
L 320.762416 -462.104953 
L 315.315192 -459.734976 
L 309.867968 -454.192782 
L 304.420744 -446.672545 
L 298.97352 -445.445709 
L 293.526297 -439.815738 
L 288.079073 -433.442725 
L 282.631849 -426.671654 
L 277.184625 -422.174617 
L 271.737401 -410.661551 
L 266.290177 -404.29262 
L 260.842953 -398.086996 
L 255.395729 -384.132506 
L 249.948505 -370.341322 
L 244.501281 -360.959398 
L 239.054057 -345.910759 
L 233.606833 -332.440063 
L 228.15961 -317.98749 
L 222.712386 -304.353488 
L 217.265162 -286.957327 
L 211.817938 -264.257806 
L 206.370714 -240.747879 
L 200.92349 -206.531209 
L 195.476266 -176.15631 
L 190.029042 -159.254149 
L 184.581818 -147.986042 
z
" id="mf45af6cf9b" style="stroke:#d62728;stroke-opacity:0.2;"/>
    </defs>
    <g clip-path="url(#ped32726613)">
     <use style="fill:#d62728;fill-opacity:0.2;stroke:#d62728;stroke-opacity:0.2;" x="0" xlink:href="#mf45af6cf9b" y="648"/>
    </g>
   </g>
   <g id="matplotlib.axis_1">
    <g id="xtick_1">
     <g id="line2d_1">
      <defs>
       <path d="M 0 0 
L 0 3.5 
" id="md85170051c" style="stroke:#000000;stroke-width:0.8;"/>
      </defs>
      <g>
       <use style="stroke:#000000;stroke-width:0.8;" x="184.581818" xlink:href="#md85170051c" y="567"/>
      </g>
     </g>
     <g id="text_1">
      <!-- 0 -->
      <defs>
       <path d="M 31.78125 66.40625 
Q 24.171875 66.40625 20.328125 58.90625 
Q 16.5 51.421875 16.5 36.375 
Q 16.5 21.390625 20.328125 13.890625 
Q 24.171875 6.390625 31.78125 6.390625 
Q 39.453125 6.390625 43.28125 13.890625 
Q 47.125 21.390625 47.125 36.375 
Q 47.125 51.421875 43.28125 58.90625 
Q 39.453125 66.40625 31.78125 66.40625 
z
M 31.78125 74.21875 
Q 44.046875 74.21875 50.515625 64.515625 
Q 56.984375 54.828125 56.984375 36.375 
Q 56.984375 17.96875 50.515625 8.265625 
Q 44.046875 -1.421875 31.78125 -1.421875 
Q 19.53125 -1.421875 13.0625 8.265625 
Q 6.59375 17.96875 6.59375 36.375 
Q 6.59375 54.828125 13.0625 64.515625 
Q 19.53125 74.21875 31.78125 74.21875 
z
" id="DejaVuSans-48"/>
      </defs>
      <g transform="translate(181.400568 581.598438)scale(0.1 -0.1)">
       <use xlink:href="#DejaVuSans-48"/>
      </g>
     </g>
    </g>
    <g id="xtick_2">
     <g id="line2d_2">
      <g>
       <use style="stroke:#000000;stroke-width:0.8;" x="293.526297" xlink:href="#md85170051c" y="567"/>
      </g>
     </g>
     <g id="text_2">
      <!-- 20 -->
      <defs>
       <path d="M 19.1875 8.296875 
L 53.609375 8.296875 
L 53.609375 0 
L 7.328125 0 
L 7.328125 8.296875 
Q 12.9375 14.109375 22.625 23.890625 
Q 32.328125 33.6875 34.8125 36.53125 
Q 39.546875 41.84375 41.421875 45.53125 
Q 43.3125 49.21875 43.3125 52.78125 
Q 43.3125 58.59375 39.234375 62.25 
Q 35.15625 65.921875 28.609375 65.921875 
Q 23.96875 65.921875 18.8125 64.3125 
Q 13.671875 62.703125 7.8125 59.421875 
L 7.8125 69.390625 
Q 13.765625 71.78125 18.9375 73 
Q 24.125 74.21875 28.421875 74.21875 
Q 39.75 74.21875 46.484375 68.546875 
Q 53.21875 62.890625 53.21875 53.421875 
Q 53.21875 48.921875 51.53125 44.890625 
Q 49.859375 40.875 45.40625 35.40625 
Q 44.1875 33.984375 37.640625 27.21875 
Q 31.109375 20.453125 19.1875 8.296875 
z
" id="DejaVuSans-50"/>
      </defs>
      <g transform="translate(287.163797 581.598438)scale(0.1 -0.1)">
       <use xlink:href="#DejaVuSans-50"/>
       <use x="63.623047" xlink:href="#DejaVuSans-48"/>
      </g>
     </g>
    </g>
    <g id="xtick_3">
     <g id="line2d_3">
      <g>
       <use style="stroke:#000000;stroke-width:0.8;" x="402.470775" xlink:href="#md85170051c" y="567"/>
      </g>
     </g>
     <g id="text_3">
      <!-- 40 -->
      <defs>
       <path d="M 37.796875 64.3125 
L 12.890625 25.390625 
L 37.796875 25.390625 
z
M 35.203125 72.90625 
L 47.609375 72.90625 
L 47.609375 25.390625 
L 58.015625 25.390625 
L 58.015625 17.1875 
L 47.609375 17.1875 
L 47.609375 0 
L 37.796875 0 
L 37.796875 17.1875 
L 4.890625 17.1875 
L 4.890625 26.703125 
z
" id="DejaVuSans-52"/>
      </defs>
      <g transform="translate(396.108275 581.598438)scale(0.1 -0.1)">
       <use xlink:href="#DejaVuSans-52"/>
       <use x="63.623047" xlink:href="#DejaVuSans-48"/>
      </g>
     </g>
    </g>
    <g id="xtick_4">
     <g id="line2d_4">
      <g>
       <use style="stroke:#000000;stroke-width:0.8;" x="511.415253" xlink:href="#md85170051c" y="567"/>
      </g>
     </g>
     <g id="text_4">
      <!-- 60 -->
      <defs>
       <path d="M 33.015625 40.375 
Q 26.375 40.375 22.484375 35.828125 
Q 18.609375 31.296875 18.609375 23.390625 
Q 18.609375 15.53125 22.484375 10.953125 
Q 26.375 6.390625 33.015625 6.390625 
Q 39.65625 6.390625 43.53125 10.953125 
Q 47.40625 15.53125 47.40625 23.390625 
Q 47.40625 31.296875 43.53125 35.828125 
Q 39.65625 40.375 33.015625 40.375 
z
M 52.59375 71.296875 
L 52.59375 62.3125 
Q 48.875 64.0625 45.09375 64.984375 
Q 41.3125 65.921875 37.59375 65.921875 
Q 27.828125 65.921875 22.671875 59.328125 
Q 17.53125 52.734375 16.796875 39.40625 
Q 19.671875 43.65625 24.015625 45.921875 
Q 28.375 48.1875 33.59375 48.1875 
Q 44.578125 48.1875 50.953125 41.515625 
Q 57.328125 34.859375 57.328125 23.390625 
Q 57.328125 12.15625 50.6875 5.359375 
Q 44.046875 -1.421875 33.015625 -1.421875 
Q 20.359375 -1.421875 13.671875 8.265625 
Q 6.984375 17.96875 6.984375 36.375 
Q 6.984375 53.65625 15.1875 63.9375 
Q 23.390625 74.21875 37.203125 74.21875 
Q 40.921875 74.21875 44.703125 73.484375 
Q 48.484375 72.75 52.59375 71.296875 
z
" id="DejaVuSans-54"/>
      </defs>
      <g transform="translate(505.052753 581.598438)scale(0.1 -0.1)">
       <use xlink:href="#DejaVuSans-54"/>
       <use x="63.623047" xlink:href="#DejaVuSans-48"/>
      </g>
     </g>
    </g>
    <g id="xtick_5">
     <g id="line2d_5">
      <g>
       <use style="stroke:#000000;stroke-width:0.8;" x="620.359732" xlink:href="#md85170051c" y="567"/>
      </g>
     </g>
     <g id="text_5">
      <!-- 80 -->
      <defs>
       <path d="M 31.78125 34.625 
Q 24.75 34.625 20.71875 30.859375 
Q 16.703125 27.09375 16.703125 20.515625 
Q 16.703125 13.921875 20.71875 10.15625 
Q 24.75 6.390625 31.78125 6.390625 
Q 38.8125 6.390625 42.859375 10.171875 
Q 46.921875 13.96875 46.921875 20.515625 
Q 46.921875 27.09375 42.890625 30.859375 
Q 38.875 34.625 31.78125 34.625 
z
M 21.921875 38.8125 
Q 15.578125 40.375 12.03125 44.71875 
Q 8.5 49.078125 8.5 55.328125 
Q 8.5 64.0625 14.71875 69.140625 
Q 20.953125 74.21875 31.78125 74.21875 
Q 42.671875 74.21875 48.875 69.140625 
Q 55.078125 64.0625 55.078125 55.328125 
Q 55.078125 49.078125 51.53125 44.71875 
Q 48 40.375 41.703125 38.8125 
Q 48.828125 37.15625 52.796875 32.3125 
Q 56.78125 27.484375 56.78125 20.515625 
Q 56.78125 9.90625 50.3125 4.234375 
Q 43.84375 -1.421875 31.78125 -1.421875 
Q 19.734375 -1.421875 13.25 4.234375 
Q 6.78125 9.90625 6.78125 20.515625 
Q 6.78125 27.484375 10.78125 32.3125 
Q 14.796875 37.15625 21.921875 38.8125 
z
M 18.3125 54.390625 
Q 18.3125 48.734375 21.84375 45.5625 
Q 25.390625 42.390625 31.78125 42.390625 
Q 38.140625 42.390625 41.71875 45.5625 
Q 45.3125 48.734375 45.3125 54.390625 
Q 45.3125 60.0625 41.71875 63.234375 
Q 38.140625 66.40625 31.78125 66.40625 
Q 25.390625 66.40625 21.84375 63.234375 
Q 18.3125 60.0625 18.3125 54.390625 
z
" id="DejaVuSans-56"/>
      </defs>
      <g transform="translate(613.997232 581.598438)scale(0.1 -0.1)">
       <use xlink:href="#DejaVuSans-56"/>
       <use x="63.623047" xlink:href="#DejaVuSans-48"/>
      </g>
     </g>
    </g>
    <g id="xtick_6">
     <g id="line2d_6">
      <g>
       <use style="stroke:#000000;stroke-width:0.8;" x="729.30421" xlink:href="#md85170051c" y="567"/>
      </g>
     </g>
     <g id="text_6">
      <!-- 100 -->
      <defs>
       <path d="M 12.40625 8.296875 
L 28.515625 8.296875 
L 28.515625 63.921875 
L 10.984375 60.40625 
L 10.984375 69.390625 
L 28.421875 72.90625 
L 38.28125 72.90625 
L 38.28125 8.296875 
L 54.390625 8.296875 
L 54.390625 0 
L 12.40625 0 
z
" id="DejaVuSans-49"/>
      </defs>
      <g transform="translate(719.76046 581.598438)scale(0.1 -0.1)">
       <use xlink:href="#DejaVuSans-49"/>
       <use x="63.623047" xlink:href="#DejaVuSans-48"/>
       <use x="127.246094" xlink:href="#DejaVuSans-48"/>
      </g>
     </g>
    </g>
    <g id="xtick_7">
     <g id="line2d_7">
      <g>
       <use style="stroke:#000000;stroke-width:0.8;" x="838.248688" xlink:href="#md85170051c" y="567"/>
      </g>
     </g>
     <g id="text_7">
      <!-- 120 -->
      <g transform="translate(828.704938 581.598438)scale(0.1 -0.1)">
       <use xlink:href="#DejaVuSans-49"/>
       <use x="63.623047" xlink:href="#DejaVuSans-50"/>
       <use x="127.246094" xlink:href="#DejaVuSans-48"/>
      </g>
     </g>
    </g>
    <g id="xtick_8">
     <g id="line2d_8">
      <g>
       <use style="stroke:#000000;stroke-width:0.8;" x="947.193167" xlink:href="#md85170051c" y="567"/>
      </g>
     </g>
     <g id="text_8">
      <!-- 140 -->
      <g transform="translate(937.649417 581.598438)scale(0.1 -0.1)">
       <use xlink:href="#DejaVuSans-49"/>
       <use x="63.623047" xlink:href="#DejaVuSans-52"/>
       <use x="127.246094" xlink:href="#DejaVuSans-48"/>
      </g>
     </g>
    </g>
    <g id="text_9">
     <!-- epoch -->
     <defs>
      <path d="M 56.203125 29.59375 
L 56.203125 25.203125 
L 14.890625 25.203125 
Q 15.484375 15.921875 20.484375 11.0625 
Q 25.484375 6.203125 34.421875 6.203125 
Q 39.59375 6.203125 44.453125 7.46875 
Q 49.3125 8.734375 54.109375 11.28125 
L 54.109375 2.78125 
Q 49.265625 0.734375 44.1875 -0.34375 
Q 39.109375 -1.421875 33.890625 -1.421875 
Q 20.796875 -1.421875 13.15625 6.1875 
Q 5.515625 13.8125 5.515625 26.8125 
Q 5.515625 40.234375 12.765625 48.109375 
Q 20.015625 56 32.328125 56 
Q 43.359375 56 49.78125 48.890625 
Q 56.203125 41.796875 56.203125 29.59375 
z
M 47.21875 32.234375 
Q 47.125 39.59375 43.09375 43.984375 
Q 39.0625 48.390625 32.421875 48.390625 
Q 24.90625 48.390625 20.390625 44.140625 
Q 15.875 39.890625 15.1875 32.171875 
z
" id="DejaVuSans-101"/>
      <path d="M 18.109375 8.203125 
L 18.109375 -20.796875 
L 9.078125 -20.796875 
L 9.078125 54.6875 
L 18.109375 54.6875 
L 18.109375 46.390625 
Q 20.953125 51.265625 25.265625 53.625 
Q 29.59375 56 35.59375 56 
Q 45.5625 56 51.78125 48.09375 
Q 58.015625 40.1875 58.015625 27.296875 
Q 58.015625 14.40625 51.78125 6.484375 
Q 45.5625 -1.421875 35.59375 -1.421875 
Q 29.59375 -1.421875 25.265625 0.953125 
Q 20.953125 3.328125 18.109375 8.203125 
z
M 48.6875 27.296875 
Q 48.6875 37.203125 44.609375 42.84375 
Q 40.53125 48.484375 33.40625 48.484375 
Q 26.265625 48.484375 22.1875 42.84375 
Q 18.109375 37.203125 18.109375 27.296875 
Q 18.109375 17.390625 22.1875 11.75 
Q 26.265625 6.109375 33.40625 6.109375 
Q 40.53125 6.109375 44.609375 11.75 
Q 48.6875 17.390625 48.6875 27.296875 
z
" id="DejaVuSans-112"/>
      <path d="M 30.609375 48.390625 
Q 23.390625 48.390625 19.1875 42.75 
Q 14.984375 37.109375 14.984375 27.296875 
Q 14.984375 17.484375 19.15625 11.84375 
Q 23.34375 6.203125 30.609375 6.203125 
Q 37.796875 6.203125 41.984375 11.859375 
Q 46.1875 17.53125 46.1875 27.296875 
Q 46.1875 37.015625 41.984375 42.703125 
Q 37.796875 48.390625 30.609375 48.390625 
z
M 30.609375 56 
Q 42.328125 56 49.015625 48.375 
Q 55.71875 40.765625 55.71875 27.296875 
Q 55.71875 13.875 49.015625 6.21875 
Q 42.328125 -1.421875 30.609375 -1.421875 
Q 18.84375 -1.421875 12.171875 6.21875 
Q 5.515625 13.875 5.515625 27.296875 
Q 5.515625 40.765625 12.171875 48.375 
Q 18.84375 56 30.609375 56 
z
" id="DejaVuSans-111"/>
      <path d="M 48.78125 52.59375 
L 48.78125 44.1875 
Q 44.96875 46.296875 41.140625 47.34375 
Q 37.3125 48.390625 33.40625 48.390625 
Q 24.65625 48.390625 19.8125 42.84375 
Q 14.984375 37.3125 14.984375 27.296875 
Q 14.984375 17.28125 19.8125 11.734375 
Q 24.65625 6.203125 33.40625 6.203125 
Q 37.3125 6.203125 41.140625 7.25 
Q 44.96875 8.296875 48.78125 10.40625 
L 48.78125 2.09375 
Q 45.015625 0.34375 40.984375 -0.53125 
Q 36.96875 -1.421875 32.421875 -1.421875 
Q 20.0625 -1.421875 12.78125 6.34375 
Q 5.515625 14.109375 5.515625 27.296875 
Q 5.515625 40.671875 12.859375 48.328125 
Q 20.21875 56 33.015625 56 
Q 37.15625 56 41.109375 55.140625 
Q 45.0625 54.296875 48.78125 52.59375 
z
" id="DejaVuSans-99"/>
      <path d="M 54.890625 33.015625 
L 54.890625 0 
L 45.90625 0 
L 45.90625 32.71875 
Q 45.90625 40.484375 42.875 44.328125 
Q 39.84375 48.1875 33.796875 48.1875 
Q 26.515625 48.1875 22.3125 43.546875 
Q 18.109375 38.921875 18.109375 30.90625 
L 18.109375 0 
L 9.078125 0 
L 9.078125 75.984375 
L 18.109375 75.984375 
L 18.109375 46.1875 
Q 21.34375 51.125 25.703125 53.5625 
Q 30.078125 56 35.796875 56 
Q 45.21875 56 50.046875 50.171875 
Q 54.890625 44.34375 54.890625 33.015625 
z
" id="DejaVuSans-104"/>
     </defs>
     <g transform="translate(575.171875 595.276562)scale(0.1 -0.1)">
      <use xlink:href="#DejaVuSans-101"/>
      <use x="61.523438" xlink:href="#DejaVuSans-112"/>
      <use x="125" xlink:href="#DejaVuSans-111"/>
      <use x="186.181641" xlink:href="#DejaVuSans-99"/>
      <use x="241.162109" xlink:href="#DejaVuSans-104"/>
     </g>
    </g>
   </g>
   <g id="matplotlib.axis_2">
    <g id="ytick_1">
     <g id="line2d_9">
      <defs>
       <path d="M 0 0 
L -3.5 0 
" id="m6b2701882f" style="stroke:#000000;stroke-width:0.8;"/>
      </defs>
      <g>
       <use style="stroke:#000000;stroke-width:0.8;" x="144" xlink:href="#m6b2701882f" y="518.061302"/>
      </g>
     </g>
     <g id="text_10">
      <!-- 0.5 -->
      <defs>
       <path d="M 10.6875 12.40625 
L 21 12.40625 
L 21 0 
L 10.6875 0 
z
" id="DejaVuSans-46"/>
       <path d="M 10.796875 72.90625 
L 49.515625 72.90625 
L 49.515625 64.59375 
L 19.828125 64.59375 
L 19.828125 46.734375 
Q 21.96875 47.46875 24.109375 47.828125 
Q 26.265625 48.1875 28.421875 48.1875 
Q 40.625 48.1875 47.75 41.5 
Q 54.890625 34.8125 54.890625 23.390625 
Q 54.890625 11.625 47.5625 5.09375 
Q 40.234375 -1.421875 26.90625 -1.421875 
Q 22.3125 -1.421875 17.546875 -0.640625 
Q 12.796875 0.140625 7.71875 1.703125 
L 7.71875 11.625 
Q 12.109375 9.234375 16.796875 8.0625 
Q 21.484375 6.890625 26.703125 6.890625 
Q 35.15625 6.890625 40.078125 11.328125 
Q 45.015625 15.765625 45.015625 23.390625 
Q 45.015625 31 40.078125 35.4375 
Q 35.15625 39.890625 26.703125 39.890625 
Q 22.75 39.890625 18.8125 39.015625 
Q 14.890625 38.140625 10.796875 36.28125 
z
" id="DejaVuSans-53"/>
      </defs>
      <g transform="translate(121.096875 521.860521)scale(0.1 -0.1)">
       <use xlink:href="#DejaVuSans-48"/>
       <use x="63.623047" xlink:href="#DejaVuSans-46"/>
       <use x="95.410156" xlink:href="#DejaVuSans-53"/>
      </g>
     </g>
    </g>
    <g id="ytick_2">
     <g id="line2d_10">
      <g>
       <use style="stroke:#000000;stroke-width:0.8;" x="144" xlink:href="#m6b2701882f" y="434.448678"/>
      </g>
     </g>
     <g id="text_11">
      <!-- 0.6 -->
      <g transform="translate(121.096875 438.247897)scale(0.1 -0.1)">
       <use xlink:href="#DejaVuSans-48"/>
       <use x="63.623047" xlink:href="#DejaVuSans-46"/>
       <use x="95.410156" xlink:href="#DejaVuSans-54"/>
      </g>
     </g>
    </g>
    <g id="ytick_3">
     <g id="line2d_11">
      <g>
       <use style="stroke:#000000;stroke-width:0.8;" x="144" xlink:href="#m6b2701882f" y="350.836054"/>
      </g>
     </g>
     <g id="text_12">
      <!-- 0.7 -->
      <defs>
       <path d="M 8.203125 72.90625 
L 55.078125 72.90625 
L 55.078125 68.703125 
L 28.609375 0 
L 18.3125 0 
L 43.21875 64.59375 
L 8.203125 64.59375 
z
" id="DejaVuSans-55"/>
      </defs>
      <g transform="translate(121.096875 354.635273)scale(0.1 -0.1)">
       <use xlink:href="#DejaVuSans-48"/>
       <use x="63.623047" xlink:href="#DejaVuSans-46"/>
       <use x="95.410156" xlink:href="#DejaVuSans-55"/>
      </g>
     </g>
    </g>
    <g id="ytick_4">
     <g id="line2d_12">
      <g>
       <use style="stroke:#000000;stroke-width:0.8;" x="144" xlink:href="#m6b2701882f" y="267.22343"/>
      </g>
     </g>
     <g id="text_13">
      <!-- 0.8 -->
      <g transform="translate(121.096875 271.022649)scale(0.1 -0.1)">
       <use xlink:href="#DejaVuSans-48"/>
       <use x="63.623047" xlink:href="#DejaVuSans-46"/>
       <use x="95.410156" xlink:href="#DejaVuSans-56"/>
      </g>
     </g>
    </g>
    <g id="ytick_5">
     <g id="line2d_13">
      <g>
       <use style="stroke:#000000;stroke-width:0.8;" x="144" xlink:href="#m6b2701882f" y="183.610806"/>
      </g>
     </g>
     <g id="text_14">
      <!-- 0.9 -->
      <defs>
       <path d="M 10.984375 1.515625 
L 10.984375 10.5 
Q 14.703125 8.734375 18.5 7.8125 
Q 22.3125 6.890625 25.984375 6.890625 
Q 35.75 6.890625 40.890625 13.453125 
Q 46.046875 20.015625 46.78125 33.40625 
Q 43.953125 29.203125 39.59375 26.953125 
Q 35.25 24.703125 29.984375 24.703125 
Q 19.046875 24.703125 12.671875 31.3125 
Q 6.296875 37.9375 6.296875 49.421875 
Q 6.296875 60.640625 12.9375 67.421875 
Q 19.578125 74.21875 30.609375 74.21875 
Q 43.265625 74.21875 49.921875 64.515625 
Q 56.59375 54.828125 56.59375 36.375 
Q 56.59375 19.140625 48.40625 8.859375 
Q 40.234375 -1.421875 26.421875 -1.421875 
Q 22.703125 -1.421875 18.890625 -0.6875 
Q 15.09375 0.046875 10.984375 1.515625 
z
M 30.609375 32.421875 
Q 37.25 32.421875 41.125 36.953125 
Q 45.015625 41.5 45.015625 49.421875 
Q 45.015625 57.28125 41.125 61.84375 
Q 37.25 66.40625 30.609375 66.40625 
Q 23.96875 66.40625 20.09375 61.84375 
Q 16.21875 57.28125 16.21875 49.421875 
Q 16.21875 41.5 20.09375 36.953125 
Q 23.96875 32.421875 30.609375 32.421875 
z
" id="DejaVuSans-57"/>
      </defs>
      <g transform="translate(121.096875 187.410025)scale(0.1 -0.1)">
       <use xlink:href="#DejaVuSans-48"/>
       <use x="63.623047" xlink:href="#DejaVuSans-46"/>
       <use x="95.410156" xlink:href="#DejaVuSans-57"/>
      </g>
     </g>
    </g>
    <g id="ytick_6">
     <g id="line2d_14">
      <g>
       <use style="stroke:#000000;stroke-width:0.8;" x="144" xlink:href="#m6b2701882f" y="99.998182"/>
      </g>
     </g>
     <g id="text_15">
      <!-- 1.0 -->
      <g transform="translate(121.096875 103.797401)scale(0.1 -0.1)">
       <use xlink:href="#DejaVuSans-49"/>
       <use x="63.623047" xlink:href="#DejaVuSans-46"/>
       <use x="95.410156" xlink:href="#DejaVuSans-48"/>
      </g>
     </g>
    </g>
    <g id="text_16">
     <!-- acc -->
     <defs>
      <path d="M 34.28125 27.484375 
Q 23.390625 27.484375 19.1875 25 
Q 14.984375 22.515625 14.984375 16.5 
Q 14.984375 11.71875 18.140625 8.90625 
Q 21.296875 6.109375 26.703125 6.109375 
Q 34.1875 6.109375 38.703125 11.40625 
Q 43.21875 16.703125 43.21875 25.484375 
L 43.21875 27.484375 
z
M 52.203125 31.203125 
L 52.203125 0 
L 43.21875 0 
L 43.21875 8.296875 
Q 40.140625 3.328125 35.546875 0.953125 
Q 30.953125 -1.421875 24.3125 -1.421875 
Q 15.921875 -1.421875 10.953125 3.296875 
Q 6 8.015625 6 15.921875 
Q 6 25.140625 12.171875 29.828125 
Q 18.359375 34.515625 30.609375 34.515625 
L 43.21875 34.515625 
L 43.21875 35.40625 
Q 43.21875 41.609375 39.140625 45 
Q 35.0625 48.390625 27.6875 48.390625 
Q 23 48.390625 18.546875 47.265625 
Q 14.109375 46.140625 10.015625 43.890625 
L 10.015625 52.203125 
Q 14.9375 54.109375 19.578125 55.046875 
Q 24.21875 56 28.609375 56 
Q 40.484375 56 46.34375 49.84375 
Q 52.203125 43.703125 52.203125 31.203125 
z
" id="DejaVuSans-97"/>
     </defs>
     <g transform="translate(115.017187 330.9425)rotate(-90)scale(0.1 -0.1)">
      <use xlink:href="#DejaVuSans-97"/>
      <use x="61.279297" xlink:href="#DejaVuSans-99"/>
      <use x="116.259766" xlink:href="#DejaVuSans-99"/>
     </g>
    </g>
   </g>
   <g id="line2d_15">
    <path clip-path="url(#ped32726613)" d="M 184.581818 443.022238 
L 190.029042 350.836054 
L 195.476266 306.906765 
L 200.92349 288.126586 
L 206.370714 269.836325 
L 211.817938 254.975487 
L 217.265162 244.115644 
L 222.712386 231.54109 
L 228.15961 223.049182 
L 233.606833 214.230663 
L 239.054057 206.39198 
L 244.501281 199.696438 
L 249.948505 192.674284 
L 255.395729 186.387006 
L 260.842953 178.874935 
L 266.290177 174.547328 
L 282.631849 162.054426 
L 288.079073 157.318555 
L 293.526297 153.807478 
L 298.97352 148.581689 
L 304.420744 144.662347 
L 309.867968 143.274247 
L 315.315192 140.253088 
L 320.762416 137.068623 
L 326.20964 133.312587 
L 331.656864 133.639199 
L 337.104088 131.761181 
L 342.551312 128.005145 
L 347.998536 125.310597 
L 353.44576 122.942662 
L 358.892984 121.309603 
L 364.340207 120.656379 
L 369.787431 117.145302 
L 375.234655 115.512243 
L 380.681879 116.328772 
L 386.129103 114.859019 
L 391.576327 114.04249 
L 397.023551 111.919513 
L 402.470775 112.572737 
L 407.917999 111.83786 
L 413.365223 108.490089 
L 418.812447 108.898354 
L 424.259671 109.796536 
L 429.706894 107.673559 
L 435.154118 108.408436 
L 440.601342 106.0405 
L 446.048566 105.142318 
L 451.49579 105.223971 
L 456.943014 104.244135 
L 462.390238 105.060665 
L 467.837462 104.080829 
L 473.284686 103.999177 
L 478.73191 102.937688 
L 484.179134 103.2643 
L 489.626358 102.856035 
L 495.073581 102.611076 
L 500.520805 102.692729 
L 505.968029 102.44777 
L 511.415253 101.712894 
L 516.862477 101.794547 
L 522.309701 102.529423 
L 527.756925 102.856035 
L 533.204149 103.509259 
L 538.651373 103.917524 
L 544.098597 102.856035 
L 549.545821 102.039506 
L 554.993045 101.467935 
L 565.887492 100.569752 
L 571.334716 100.4881 
L 576.78194 100.896364 
L 582.229164 104.325788 
L 587.676388 103.509259 
L 598.570836 102.284465 
L 604.01806 101.222976 
L 609.465284 100.814711 
L 614.912508 101.631241 
L 620.359732 101.631241 
L 625.806955 101.304629 
L 631.254179 101.386282 
L 636.701403 100.569752 
L 642.148627 100.243141 
L 674.831971 100.243141 
L 680.279195 100.4881 
L 685.726419 100.243141 
L 702.06809 100.161488 
L 712.962538 100.079835 
L 974.429286 100.161488 
L 979.87651 102.202812 
L 985.323734 111.592901 
L 990.770958 110.041495 
L 996.218182 113.634225 
L 996.218182 113.634225 
" style="fill:none;stroke:#1f77b4;stroke-linecap:square;stroke-width:1.5;"/>
   </g>
   <g id="line2d_16">
    <path clip-path="url(#ped32726613)" d="M 184.581818 498.464594 
L 190.029042 521.490727 
L 195.476266 504.261953 
L 200.92349 484.25698 
L 206.370714 451.595799 
L 211.817938 436.898267 
L 217.265162 424.405365 
L 222.712386 410.034445 
L 228.15961 394.193772 
L 233.606833 380.231117 
L 239.054057 368.799704 
L 244.501281 362.104162 
L 249.948505 353.530602 
L 255.395729 343.24233 
L 260.842953 335.811911 
L 266.290177 331.729263 
L 271.737401 328.463145 
L 282.631849 322.665785 
L 288.079073 320.624462 
L 293.526297 317.848261 
L 298.97352 315.561978 
L 304.420744 315.31702 
L 309.867968 309.764619 
L 315.315192 310.172883 
L 320.762416 308.049907 
L 326.20964 305.600318 
L 331.656864 302.905771 
L 337.104088 302.252547 
L 342.551312 302.089241 
L 347.998536 300.701141 
L 353.44576 300.456182 
L 358.892984 297.598329 
L 364.340207 295.14874 
L 369.787431 294.903781 
L 375.234655 292.862457 
L 380.681879 291.637663 
L 386.129103 290.249563 
L 391.576327 288.616504 
L 397.023551 287.146751 
L 402.470775 283.880633 
L 407.917999 286.248568 
L 413.365223 285.105427 
L 418.812447 284.288897 
L 424.259671 280.77782 
L 429.706894 277.511702 
L 435.154118 275.79699 
L 440.601342 275.225419 
L 446.048566 274.817155 
L 451.49579 271.469384 
L 456.943014 270.244589 
L 462.390238 269.836325 
L 467.837462 268.203266 
L 473.284686 263.385741 
L 478.73191 257.751688 
L 484.179134 257.914993 
L 489.626358 257.425076 
L 495.073581 257.670035 
L 500.520805 256.363587 
L 505.968029 253.260775 
L 511.415253 250.729534 
L 516.862477 249.913004 
L 522.309701 249.504739 
L 527.756925 247.87168 
L 533.204149 248.524904 
L 538.651373 243.789032 
L 544.098597 245.258786 
L 549.545821 245.748703 
L 554.993045 241.094485 
L 560.440268 240.441261 
L 565.887492 237.09349 
L 571.334716 237.420102 
L 576.78194 233.010843 
L 582.229164 233.010843 
L 587.676388 232.684231 
L 593.123612 234.235637 
L 598.570836 229.826377 
L 604.01806 230.397948 
L 609.465284 230.152989 
L 614.912508 228.846542 
L 620.359732 227.866707 
L 625.806955 224.437283 
L 631.254179 224.845547 
L 636.701403 220.109676 
L 642.148627 220.191329 
L 647.595851 219.783064 
L 653.043075 218.476617 
L 658.490299 216.108681 
L 663.937523 215.618764 
L 669.384747 213.169175 
L 674.831971 212.679257 
L 680.279195 207.371815 
L 685.726419 206.147021 
L 691.173642 205.820409 
L 696.620866 205.738756 
L 702.06809 205.085533 
L 707.515314 202.79925 
L 712.962538 202.962556 
L 718.409762 199.614785 
L 723.856986 200.676273 
L 729.30421 199.533132 
L 734.751434 197.81842 
L 740.198658 196.43032 
L 745.645882 196.756931 
L 751.093106 194.552302 
L 756.540329 195.368831 
L 761.987553 195.123872 
L 767.434777 195.205525 
L 772.882001 191.367837 
L 778.329225 191.204531 
L 783.776449 192.429325 
L 789.223673 188.836595 
L 794.670897 188.754942 
L 800.118121 187.121883 
L 805.565345 187.938412 
L 811.012569 184.753947 
L 816.459793 185.815436 
L 821.907016 185.897089 
L 827.35424 184.26403 
L 832.801464 183.284194 
L 838.248688 183.855765 
L 843.695912 182.0594 
L 849.143136 181.406176 
L 854.59036 182.304359 
L 860.037584 178.303364 
L 865.484808 181.569482 
L 870.932032 182.794276 
L 881.82648 178.46667 
L 887.273703 178.711629 
L 892.720927 179.119894 
L 898.168151 177.65014 
L 903.615375 176.017081 
L 909.062599 173.975757 
L 914.509823 175.690469 
L 919.957047 174.87394 
L 925.404271 173.567493 
L 930.851495 172.506004 
L 936.298719 171.771128 
L 941.745943 173.894105 
L 947.193167 168.994927 
L 952.64039 170.627986 
L 958.087614 169.403192 
L 963.534838 170.709639 
L 974.429286 170.791292 
L 979.87651 167.606827 
L 990.770958 167.851786 
L 996.218182 169.484845 
L 996.218182 169.484845 
" style="fill:none;stroke:#ff7f0e;stroke-linecap:square;stroke-width:1.5;"/>
   </g>
   <g id="line2d_17">
    <path clip-path="url(#ped32726613)" d="M 184.581818 463.680436 
L 190.029042 376.964999 
L 195.476266 324.298844 
L 200.92349 290.739481 
L 206.370714 268.366571 
L 211.817938 250.974492 
L 217.265162 232.765884 
L 222.712386 219.374799 
L 228.15961 212.107687 
L 233.606833 202.064373 
L 239.054057 194.715608 
L 244.501281 186.387006 
L 249.948505 178.629976 
L 255.395729 171.771128 
L 260.842953 170.056416 
L 266.290177 161.972773 
L 271.737401 158.869961 
L 277.184625 148.826648 
L 282.631849 142.212759 
L 288.079073 140.5797 
L 293.526297 136.823664 
L 298.97352 131.18961 
L 304.420744 128.495063 
L 309.867968 124.82068 
L 315.315192 122.942662 
L 320.762416 122.861009 
L 326.20964 118.533402 
L 331.656864 116.002161 
L 337.104088 112.572737 
L 342.551312 110.858025 
L 347.998536 110.613066 
L 353.44576 110.939678 
L 358.892984 109.143313 
L 364.340207 106.693724 
L 369.787431 108.408436 
L 375.234655 106.775377 
L 380.681879 105.305624 
L 386.129103 104.897359 
L 391.576327 103.100994 
L 397.023551 102.856035 
L 402.470775 101.631241 
L 413.365223 101.386282 
L 418.812447 100.733058 
L 424.259671 100.243141 
L 429.706894 100.243141 
L 440.601342 99.998182 
L 996.218182 99.998182 
L 996.218182 99.998182 
" style="fill:none;stroke:#2ca02c;stroke-linecap:square;stroke-width:1.5;"/>
   </g>
   <g id="line2d_18">
    <path clip-path="url(#ped32726613)" d="M 184.581818 522.307256 
L 190.029042 515.611714 
L 195.476266 500.342612 
L 200.92349 468.089695 
L 206.370714 433.877108 
L 211.817938 409.136263 
L 217.265162 387.008312 
L 222.712386 371.494251 
L 228.15961 356.470108 
L 233.606833 339.567947 
L 239.054057 328.789757 
L 244.501281 314.663796 
L 249.948505 301.599323 
L 255.395729 291.637663 
L 260.842953 274.572196 
L 266.290177 267.876654 
L 271.737401 263.222435 
L 277.184625 251.872675 
L 282.631849 242.564238 
L 288.079073 239.951344 
L 293.526297 232.92919 
L 298.97352 227.458442 
L 304.420744 225.172159 
L 309.867968 217.17017 
L 315.315192 213.659093 
L 320.762416 209.086527 
L 326.20964 205.983715 
L 331.656864 204.758921 
L 337.104088 202.227679 
L 342.551312 196.593626 
L 347.998536 194.878913 
L 353.44576 190.714613 
L 358.892984 188.101718 
L 369.787431 183.202541 
L 375.234655 180.426341 
L 380.681879 177.976752 
L 386.129103 172.261045 
L 391.576327 170.546333 
L 397.023551 169.729804 
L 402.470775 167.198562 
L 407.917999 164.993933 
L 413.365223 161.482856 
L 424.259671 157.481861 
L 429.706894 157.073596 
L 435.154118 154.868966 
L 440.601342 154.297396 
L 446.048566 151.031278 
L 451.49579 145.805489 
L 456.943014 148.173424 
L 462.390238 142.212759 
L 467.837462 141.804494 
L 473.284686 141.722841 
L 484.179134 137.068623 
L 489.626358 140.5797 
L 495.073581 134.700687 
L 500.520805 135.925481 
L 505.968029 133.067628 
L 511.415253 133.312587 
L 516.862477 132.332751 
L 522.309701 130.128122 
L 527.756925 128.576715 
L 533.204149 129.393245 
L 538.651373 127.841839 
L 549.545821 123.840844 
L 554.993045 123.514232 
L 560.440268 121.391256 
L 565.887492 120.819685 
L 571.334716 121.064644 
L 576.78194 121.554561 
L 582.229164 120.41142 
L 587.676388 118.451749 
L 593.123612 119.676544 
L 598.570836 115.512243 
L 604.01806 116.083814 
L 609.465284 117.961832 
L 614.912508 115.348937 
L 625.806955 114.287449 
L 631.254179 113.144307 
L 636.701403 111.756207 
L 642.148627 111.83786 
L 647.595851 111.102983 
L 653.043075 111.592901 
L 658.490299 110.531413 
L 663.937523 110.44976 
L 669.384747 111.021331 
L 674.831971 108.816701 
L 680.279195 111.184636 
L 685.726419 109.551577 
L 691.173642 110.368107 
L 696.620866 110.776372 
L 702.06809 109.143313 
L 707.515314 107.346948 
L 712.962538 107.755212 
L 718.409762 106.530418 
L 723.856986 105.142318 
L 729.30421 105.713889 
L 734.751434 104.570747 
L 740.198658 104.734053 
L 751.093106 103.917524 
L 756.540329 104.325788 
L 761.987553 104.080829 
L 767.434777 104.734053 
L 772.882001 103.835871 
L 778.329225 104.407441 
L 783.776449 104.570747 
L 789.223673 104.897359 
L 794.670897 105.46893 
L 800.118121 105.142318 
L 805.565345 104.244135 
L 811.012569 104.734053 
L 816.459793 104.489094 
L 821.907016 104.815706 
L 827.35424 105.632236 
L 832.801464 105.713889 
L 838.248688 105.387277 
L 843.695912 105.550583 
L 849.143136 107.591906 
L 854.59036 107.020336 
L 860.037584 107.836865 
L 865.484808 104.489094 
L 870.932032 102.774382 
L 876.379256 102.202812 
L 881.82648 101.957853 
L 887.273703 102.44777 
L 892.720927 102.611076 
L 898.168151 102.202812 
L 903.615375 102.039506 
L 909.062599 102.202812 
L 914.509823 101.549588 
L 919.957047 101.549588 
L 925.404271 101.222976 
L 930.851495 101.222976 
L 936.298719 101.549588 
L 941.745943 101.631241 
L 947.193167 102.121159 
L 952.64039 103.182647 
L 958.087614 104.570747 
L 963.534838 103.917524 
L 968.982062 102.611076 
L 974.429286 102.366117 
L 979.87651 101.631241 
L 985.323734 101.222976 
L 990.770958 101.304629 
L 996.218182 101.05967 
L 996.218182 101.05967 
" style="fill:none;stroke:#d62728;stroke-linecap:square;stroke-width:1.5;"/>
   </g>
   <g id="line2d_19"/>
   <g id="line2d_20"/>
   <g id="line2d_21"/>
   <g id="line2d_22"/>
   <g id="line2d_23"/>
   <g id="patch_3">
    <path d="M 144 567 
L 144 77.76 
" style="fill:none;stroke:#000000;stroke-linecap:square;stroke-linejoin:miter;stroke-width:0.8;"/>
   </g>
   <g id="patch_4">
    <path d="M 1036.8 567 
L 1036.8 77.76 
" style="fill:none;stroke:#000000;stroke-linecap:square;stroke-linejoin:miter;stroke-width:0.8;"/>
   </g>
   <g id="patch_5">
    <path d="M 144 567 
L 1036.8 567 
" style="fill:none;stroke:#000000;stroke-linecap:square;stroke-linejoin:miter;stroke-width:0.8;"/>
   </g>
   <g id="patch_6">
    <path d="M 144 77.76 
L 1036.8 77.76 
" style="fill:none;stroke:#000000;stroke-linecap:square;stroke-linejoin:miter;stroke-width:0.8;"/>
   </g>
   <g id="text_17">
    <!-- Acc (train) -->
    <defs>
     <path d="M 34.1875 63.1875 
L 20.796875 26.90625 
L 47.609375 26.90625 
z
M 28.609375 72.90625 
L 39.796875 72.90625 
L 67.578125 0 
L 57.328125 0 
L 50.6875 18.703125 
L 17.828125 18.703125 
L 11.1875 0 
L 0.78125 0 
z
" id="DejaVuSans-65"/>
     <path id="DejaVuSans-32"/>
     <path d="M 31 75.875 
Q 24.46875 64.65625 21.28125 53.65625 
Q 18.109375 42.671875 18.109375 31.390625 
Q 18.109375 20.125 21.3125 9.0625 
Q 24.515625 -2 31 -13.1875 
L 23.1875 -13.1875 
Q 15.875 -1.703125 12.234375 9.375 
Q 8.59375 20.453125 8.59375 31.390625 
Q 8.59375 42.28125 12.203125 53.3125 
Q 15.828125 64.359375 23.1875 75.875 
z
" id="DejaVuSans-40"/>
     <path d="M 18.3125 70.21875 
L 18.3125 54.6875 
L 36.8125 54.6875 
L 36.8125 47.703125 
L 18.3125 47.703125 
L 18.3125 18.015625 
Q 18.3125 11.328125 20.140625 9.421875 
Q 21.96875 7.515625 27.59375 7.515625 
L 36.8125 7.515625 
L 36.8125 0 
L 27.59375 0 
Q 17.1875 0 13.234375 3.875 
Q 9.28125 7.765625 9.28125 18.015625 
L 9.28125 47.703125 
L 2.6875 47.703125 
L 2.6875 54.6875 
L 9.28125 54.6875 
L 9.28125 70.21875 
z
" id="DejaVuSans-116"/>
     <path d="M 41.109375 46.296875 
Q 39.59375 47.171875 37.8125 47.578125 
Q 36.03125 48 33.890625 48 
Q 26.265625 48 22.1875 43.046875 
Q 18.109375 38.09375 18.109375 28.8125 
L 18.109375 0 
L 9.078125 0 
L 9.078125 54.6875 
L 18.109375 54.6875 
L 18.109375 46.1875 
Q 20.953125 51.171875 25.484375 53.578125 
Q 30.03125 56 36.53125 56 
Q 37.453125 56 38.578125 55.875 
Q 39.703125 55.765625 41.0625 55.515625 
z
" id="DejaVuSans-114"/>
     <path d="M 9.421875 54.6875 
L 18.40625 54.6875 
L 18.40625 0 
L 9.421875 0 
z
M 9.421875 75.984375 
L 18.40625 75.984375 
L 18.40625 64.59375 
L 9.421875 64.59375 
z
" id="DejaVuSans-105"/>
     <path d="M 54.890625 33.015625 
L 54.890625 0 
L 45.90625 0 
L 45.90625 32.71875 
Q 45.90625 40.484375 42.875 44.328125 
Q 39.84375 48.1875 33.796875 48.1875 
Q 26.515625 48.1875 22.3125 43.546875 
Q 18.109375 38.921875 18.109375 30.90625 
L 18.109375 0 
L 9.078125 0 
L 9.078125 54.6875 
L 18.109375 54.6875 
L 18.109375 46.1875 
Q 21.34375 51.125 25.703125 53.5625 
Q 30.078125 56 35.796875 56 
Q 45.21875 56 50.046875 50.171875 
Q 54.890625 44.34375 54.890625 33.015625 
z
" id="DejaVuSans-110"/>
     <path d="M 8.015625 75.875 
L 15.828125 75.875 
Q 23.140625 64.359375 26.78125 53.3125 
Q 30.421875 42.28125 30.421875 31.390625 
Q 30.421875 20.453125 26.78125 9.375 
Q 23.140625 -1.703125 15.828125 -13.1875 
L 8.015625 -13.1875 
Q 14.5 -2 17.703125 9.0625 
Q 20.90625 20.125 20.90625 31.390625 
Q 20.90625 42.671875 17.703125 53.65625 
Q 14.5 64.65625 8.015625 75.875 
z
" id="DejaVuSans-41"/>
    </defs>
    <g transform="translate(559.144688 71.76)scale(0.12 -0.12)">
     <use xlink:href="#DejaVuSans-65"/>
     <use x="68.392578" xlink:href="#DejaVuSans-99"/>
     <use x="123.373047" xlink:href="#DejaVuSans-99"/>
     <use x="178.353516" xlink:href="#DejaVuSans-32"/>
     <use x="210.140625" xlink:href="#DejaVuSans-40"/>
     <use x="249.154297" xlink:href="#DejaVuSans-116"/>
     <use x="288.363281" xlink:href="#DejaVuSans-114"/>
     <use x="329.476562" xlink:href="#DejaVuSans-97"/>
     <use x="390.755859" xlink:href="#DejaVuSans-105"/>
     <use x="418.539062" xlink:href="#DejaVuSans-110"/>
     <use x="481.917969" xlink:href="#DejaVuSans-41"/>
    </g>
   </g>
   <g id="legend_1">
    <g id="patch_7">
     <path d="M 151 159.706875 
L 228.329688 159.706875 
Q 230.329688 159.706875 230.329688 157.706875 
L 230.329688 84.76 
Q 230.329688 82.76 228.329688 82.76 
L 151 82.76 
Q 149 82.76 149 84.76 
L 149 157.706875 
Q 149 159.706875 151 159.706875 
z
" style="fill:#ffffff;opacity:0.8;stroke:#cccccc;stroke-linejoin:miter;"/>
    </g>
    <g id="line2d_24">
     <path d="M 153 90.858437 
L 173 90.858437 
" style="fill:none;"/>
    </g>
    <g id="line2d_25"/>
    <g id="text_18">
     <!-- model -->
     <defs>
      <path d="M 52 44.1875 
Q 55.375 50.25 60.0625 53.125 
Q 64.75 56 71.09375 56 
Q 79.640625 56 84.28125 50.015625 
Q 88.921875 44.046875 88.921875 33.015625 
L 88.921875 0 
L 79.890625 0 
L 79.890625 32.71875 
Q 79.890625 40.578125 77.09375 44.375 
Q 74.3125 48.1875 68.609375 48.1875 
Q 61.625 48.1875 57.5625 43.546875 
Q 53.515625 38.921875 53.515625 30.90625 
L 53.515625 0 
L 44.484375 0 
L 44.484375 32.71875 
Q 44.484375 40.625 41.703125 44.40625 
Q 38.921875 48.1875 33.109375 48.1875 
Q 26.21875 48.1875 22.15625 43.53125 
Q 18.109375 38.875 18.109375 30.90625 
L 18.109375 0 
L 9.078125 0 
L 9.078125 54.6875 
L 18.109375 54.6875 
L 18.109375 46.1875 
Q 21.1875 51.21875 25.484375 53.609375 
Q 29.78125 56 35.6875 56 
Q 41.65625 56 45.828125 52.96875 
Q 50 49.953125 52 44.1875 
z
" id="DejaVuSans-109"/>
      <path d="M 45.40625 46.390625 
L 45.40625 75.984375 
L 54.390625 75.984375 
L 54.390625 0 
L 45.40625 0 
L 45.40625 8.203125 
Q 42.578125 3.328125 38.25 0.953125 
Q 33.9375 -1.421875 27.875 -1.421875 
Q 17.96875 -1.421875 11.734375 6.484375 
Q 5.515625 14.40625 5.515625 27.296875 
Q 5.515625 40.1875 11.734375 48.09375 
Q 17.96875 56 27.875 56 
Q 33.9375 56 38.25 53.625 
Q 42.578125 51.265625 45.40625 46.390625 
z
M 14.796875 27.296875 
Q 14.796875 17.390625 18.875 11.75 
Q 22.953125 6.109375 30.078125 6.109375 
Q 37.203125 6.109375 41.296875 11.75 
Q 45.40625 17.390625 45.40625 27.296875 
Q 45.40625 37.203125 41.296875 42.84375 
Q 37.203125 48.484375 30.078125 48.484375 
Q 22.953125 48.484375 18.875 42.84375 
Q 14.796875 37.203125 14.796875 27.296875 
z
" id="DejaVuSans-100"/>
      <path d="M 9.421875 75.984375 
L 18.40625 75.984375 
L 18.40625 0 
L 9.421875 0 
z
" id="DejaVuSans-108"/>
     </defs>
     <g transform="translate(181 94.358437)scale(0.1 -0.1)">
      <use xlink:href="#DejaVuSans-109"/>
      <use x="97.412109" xlink:href="#DejaVuSans-111"/>
      <use x="158.59375" xlink:href="#DejaVuSans-100"/>
      <use x="222.070312" xlink:href="#DejaVuSans-101"/>
      <use x="283.59375" xlink:href="#DejaVuSans-108"/>
     </g>
    </g>
    <g id="line2d_26">
     <path d="M 153 105.536562 
L 173 105.536562 
" style="fill:none;stroke:#1f77b4;stroke-linecap:square;stroke-width:1.5;"/>
    </g>
    <g id="line2d_27"/>
    <g id="text_19">
     <!-- FC -->
     <defs>
      <path d="M 9.8125 72.90625 
L 51.703125 72.90625 
L 51.703125 64.59375 
L 19.671875 64.59375 
L 19.671875 43.109375 
L 48.578125 43.109375 
L 48.578125 34.8125 
L 19.671875 34.8125 
L 19.671875 0 
L 9.8125 0 
z
" id="DejaVuSans-70"/>
      <path d="M 64.40625 67.28125 
L 64.40625 56.890625 
Q 59.421875 61.53125 53.78125 63.8125 
Q 48.140625 66.109375 41.796875 66.109375 
Q 29.296875 66.109375 22.65625 58.46875 
Q 16.015625 50.828125 16.015625 36.375 
Q 16.015625 21.96875 22.65625 14.328125 
Q 29.296875 6.6875 41.796875 6.6875 
Q 48.140625 6.6875 53.78125 8.984375 
Q 59.421875 11.28125 64.40625 15.921875 
L 64.40625 5.609375 
Q 59.234375 2.09375 53.4375 0.328125 
Q 47.65625 -1.421875 41.21875 -1.421875 
Q 24.65625 -1.421875 15.125 8.703125 
Q 5.609375 18.84375 5.609375 36.375 
Q 5.609375 53.953125 15.125 64.078125 
Q 24.65625 74.21875 41.21875 74.21875 
Q 47.75 74.21875 53.53125 72.484375 
Q 59.328125 70.75 64.40625 67.28125 
z
" id="DejaVuSans-67"/>
     </defs>
     <g transform="translate(181 109.036562)scale(0.1 -0.1)">
      <use xlink:href="#DejaVuSans-70"/>
      <use x="57.519531" xlink:href="#DejaVuSans-67"/>
     </g>
    </g>
    <g id="line2d_28">
     <path d="M 153 120.214687 
L 173 120.214687 
" style="fill:none;stroke:#ff7f0e;stroke-linecap:square;stroke-width:1.5;"/>
    </g>
    <g id="line2d_29"/>
    <g id="text_20">
     <!-- FC_aux -->
     <defs>
      <path d="M 50.984375 -16.609375 
L 50.984375 -23.578125 
L -0.984375 -23.578125 
L -0.984375 -16.609375 
z
" id="DejaVuSans-95"/>
      <path d="M 8.5 21.578125 
L 8.5 54.6875 
L 17.484375 54.6875 
L 17.484375 21.921875 
Q 17.484375 14.15625 20.5 10.265625 
Q 23.53125 6.390625 29.59375 6.390625 
Q 36.859375 6.390625 41.078125 11.03125 
Q 45.3125 15.671875 45.3125 23.6875 
L 45.3125 54.6875 
L 54.296875 54.6875 
L 54.296875 0 
L 45.3125 0 
L 45.3125 8.40625 
Q 42.046875 3.421875 37.71875 1 
Q 33.40625 -1.421875 27.6875 -1.421875 
Q 18.265625 -1.421875 13.375 4.4375 
Q 8.5 10.296875 8.5 21.578125 
z
M 31.109375 56 
z
" id="DejaVuSans-117"/>
      <path d="M 54.890625 54.6875 
L 35.109375 28.078125 
L 55.90625 0 
L 45.3125 0 
L 29.390625 21.484375 
L 13.484375 0 
L 2.875 0 
L 24.125 28.609375 
L 4.6875 54.6875 
L 15.28125 54.6875 
L 29.78125 35.203125 
L 44.28125 54.6875 
z
" id="DejaVuSans-120"/>
     </defs>
     <g transform="translate(181 123.714687)scale(0.1 -0.1)">
      <use xlink:href="#DejaVuSans-70"/>
      <use x="57.519531" xlink:href="#DejaVuSans-67"/>
      <use x="127.34375" xlink:href="#DejaVuSans-95"/>
      <use x="177.34375" xlink:href="#DejaVuSans-97"/>
      <use x="238.623047" xlink:href="#DejaVuSans-117"/>
      <use x="302.001953" xlink:href="#DejaVuSans-120"/>
     </g>
    </g>
    <g id="line2d_30">
     <path d="M 153 135.170937 
L 173 135.170937 
" style="fill:none;stroke:#2ca02c;stroke-linecap:square;stroke-width:1.5;"/>
    </g>
    <g id="line2d_31"/>
    <g id="text_21">
     <!-- CNN -->
     <defs>
      <path d="M 9.8125 72.90625 
L 23.09375 72.90625 
L 55.421875 11.921875 
L 55.421875 72.90625 
L 64.984375 72.90625 
L 64.984375 0 
L 51.703125 0 
L 19.390625 60.984375 
L 19.390625 0 
L 9.8125 0 
z
" id="DejaVuSans-78"/>
     </defs>
     <g transform="translate(181 138.670937)scale(0.1 -0.1)">
      <use xlink:href="#DejaVuSans-67"/>
      <use x="69.824219" xlink:href="#DejaVuSans-78"/>
      <use x="144.628906" xlink:href="#DejaVuSans-78"/>
     </g>
    </g>
    <g id="line2d_32">
     <path d="M 153 149.849062 
L 173 149.849062 
" style="fill:none;stroke:#d62728;stroke-linecap:square;stroke-width:1.5;"/>
    </g>
    <g id="line2d_33"/>
    <g id="text_22">
     <!-- CNN_aux -->
     <g transform="translate(181 153.349062)scale(0.1 -0.1)">
      <use xlink:href="#DejaVuSans-67"/>
      <use x="69.824219" xlink:href="#DejaVuSans-78"/>
      <use x="144.628906" xlink:href="#DejaVuSans-78"/>
      <use x="219.433594" xlink:href="#DejaVuSans-95"/>
      <use x="269.433594" xlink:href="#DejaVuSans-97"/>
      <use x="330.712891" xlink:href="#DejaVuSans-117"/>
      <use x="394.091797" xlink:href="#DejaVuSans-120"/>
     </g>
    </g>
   </g>
  </g>
 </g>
 <defs>
  <clipPath id="ped32726613">
   <rect height="489.24" width="892.8" x="144" y="77.76"/>
  </clipPath>
 </defs>
</svg>
