<?xml version="1.0" encoding="utf-8" standalone="no"?>
<!DOCTYPE svg PUBLIC "-//W3C//DTD SVG 1.1//EN"
  "http://www.w3.org/Graphics/SVG/1.1/DTD/svg11.dtd">
<!-- Created with matplotlib (https://matplotlib.org/) -->
<svg xmlns:xlink="http://www.w3.org/1999/xlink" height="288pt" version="1.1" viewBox="0 0 720 288" width="720pt"
     xmlns="http://www.w3.org/2000/svg">
 <defs>
  <style type="text/css">
*{stroke-linecap:butt;stroke-linejoin:round;}
  </style>
 </defs>
 <g id="figure_1">
  <g id="patch_1">
      <path d="M 0 288
L 720 288 
L 720 0 
L 0 0 
z
" style="fill:#ffffff;"/>
  </g>
  <g id="axes_1">
   <g id="patch_2">
       <path d="M 90 252
L 648 252 
L 648 34.56 
L 90 34.56 
z
" style="fill:#ffffff;"/>
   </g>
   <g id="matplotlib.axis_1">
    <g id="xtick_1">
     <g id="line2d_1">
         <path clip-path="url(#p62c8613240)" d="M 115.363636 252
L 115.363636 34.56 
" style="fill:none;stroke:#cccccc;stroke-linecap:round;stroke-width:0.8;"/>
     </g>
     <g id="text_1">
      <!-- 0 -->
      <defs>
       <path d="M 31.78125 66.40625 
Q 24.171875 66.40625 20.328125 58.90625 
Q 16.5 51.421875 16.5 36.375 
Q 16.5 21.390625 20.328125 13.890625 
Q 24.171875 6.390625 31.78125 6.390625 
Q 39.453125 6.390625 43.28125 13.890625 
Q 47.125 21.390625 47.125 36.375 
Q 47.125 51.421875 43.28125 58.90625 
Q 39.453125 66.40625 31.78125 66.40625 
z
M 31.78125 74.21875 
Q 44.046875 74.21875 50.515625 64.515625 
Q 56.984375 54.828125 56.984375 36.375 
Q 56.984375 17.96875 50.515625 8.265625 
Q 44.046875 -1.421875 31.78125 -1.421875 
Q 19.53125 -1.421875 13.0625 8.265625 
Q 6.59375 17.96875 6.59375 36.375 
Q 6.59375 54.828125 13.0625 64.515625 
Q 19.53125 74.21875 31.78125 74.21875 
z
" id="DejaVuSans-48"/>
      </defs>
         <g style="fill:#262626;" transform="translate(112.182386 266.598437)scale(0.1 -0.1)">
       <use xlink:href="#DejaVuSans-48"/>
      </g>
     </g>
    </g>
    <g id="xtick_2">
     <g id="line2d_2">
         <path clip-path="url(#p62c8613240)" d="M 183.453935 252
L 183.453935 34.56 
" style="fill:none;stroke:#cccccc;stroke-linecap:round;stroke-width:0.8;"/>
     </g>
     <g id="text_2">
      <!-- 20 -->
      <defs>
       <path d="M 19.1875 8.296875 
L 53.609375 8.296875 
L 53.609375 0 
L 7.328125 0 
L 7.328125 8.296875 
Q 12.9375 14.109375 22.625 23.890625 
Q 32.328125 33.6875 34.8125 36.53125 
Q 39.546875 41.84375 41.421875 45.53125 
Q 43.3125 49.21875 43.3125 52.78125 
Q 43.3125 58.59375 39.234375 62.25 
Q 35.15625 65.921875 28.609375 65.921875 
Q 23.96875 65.921875 18.8125 64.3125 
Q 13.671875 62.703125 7.8125 59.421875 
L 7.8125 69.390625 
Q 13.765625 71.78125 18.9375 73 
Q 24.125 74.21875 28.421875 74.21875 
Q 39.75 74.21875 46.484375 68.546875 
Q 53.21875 62.890625 53.21875 53.421875 
Q 53.21875 48.921875 51.53125 44.890625 
Q 49.859375 40.875 45.40625 35.40625 
Q 44.1875 33.984375 37.640625 27.21875 
Q 31.109375 20.453125 19.1875 8.296875 
z
" id="DejaVuSans-50"/>
      </defs>
         <g style="fill:#262626;" transform="translate(177.091435 266.598437)scale(0.1 -0.1)">
       <use xlink:href="#DejaVuSans-50"/>
       <use x="63.623047" xlink:href="#DejaVuSans-48"/>
      </g>
     </g>
    </g>
    <g id="xtick_3">
     <g id="line2d_3">
         <path clip-path="url(#p62c8613240)" d="M 251.544234 252
L 251.544234 34.56 
" style="fill:none;stroke:#cccccc;stroke-linecap:round;stroke-width:0.8;"/>
     </g>
     <g id="text_3">
      <!-- 40 -->
      <defs>
       <path d="M 37.796875 64.3125 
L 12.890625 25.390625 
L 37.796875 25.390625 
z
M 35.203125 72.90625 
L 47.609375 72.90625 
L 47.609375 25.390625 
L 58.015625 25.390625 
L 58.015625 17.1875 
L 47.609375 17.1875 
L 47.609375 0 
L 37.796875 0 
L 37.796875 17.1875 
L 4.890625 17.1875 
L 4.890625 26.703125 
z
" id="DejaVuSans-52"/>
      </defs>
         <g style="fill:#262626;" transform="translate(245.181734 266.598437)scale(0.1 -0.1)">
       <use xlink:href="#DejaVuSans-52"/>
       <use x="63.623047" xlink:href="#DejaVuSans-48"/>
      </g>
     </g>
    </g>
    <g id="xtick_4">
     <g id="line2d_4">
         <path clip-path="url(#p62c8613240)" d="M 319.634533 252
L 319.634533 34.56 
" style="fill:none;stroke:#cccccc;stroke-linecap:round;stroke-width:0.8;"/>
     </g>
     <g id="text_4">
      <!-- 60 -->
      <defs>
       <path d="M 33.015625 40.375 
Q 26.375 40.375 22.484375 35.828125 
Q 18.609375 31.296875 18.609375 23.390625 
Q 18.609375 15.53125 22.484375 10.953125 
Q 26.375 6.390625 33.015625 6.390625 
Q 39.65625 6.390625 43.53125 10.953125 
Q 47.40625 15.53125 47.40625 23.390625 
Q 47.40625 31.296875 43.53125 35.828125 
Q 39.65625 40.375 33.015625 40.375 
z
M 52.59375 71.296875 
L 52.59375 62.3125 
Q 48.875 64.0625 45.09375 64.984375 
Q 41.3125 65.921875 37.59375 65.921875 
Q 27.828125 65.921875 22.671875 59.328125 
Q 17.53125 52.734375 16.796875 39.40625 
Q 19.671875 43.65625 24.015625 45.921875 
Q 28.375 48.1875 33.59375 48.1875 
Q 44.578125 48.1875 50.953125 41.515625 
Q 57.328125 34.859375 57.328125 23.390625 
Q 57.328125 12.15625 50.6875 5.359375 
Q 44.046875 -1.421875 33.015625 -1.421875 
Q 20.359375 -1.421875 13.671875 8.265625 
Q 6.984375 17.96875 6.984375 36.375 
Q 6.984375 53.65625 15.1875 63.9375 
Q 23.390625 74.21875 37.203125 74.21875 
Q 40.921875 74.21875 44.703125 73.484375 
Q 48.484375 72.75 52.59375 71.296875 
z
" id="DejaVuSans-54"/>
      </defs>
         <g style="fill:#262626;" transform="translate(313.272033 266.598437)scale(0.1 -0.1)">
       <use xlink:href="#DejaVuSans-54"/>
       <use x="63.623047" xlink:href="#DejaVuSans-48"/>
      </g>
     </g>
    </g>
    <g id="xtick_5">
     <g id="line2d_5">
         <path clip-path="url(#p62c8613240)" d="M 387.724832 252
L 387.724832 34.56 
" style="fill:none;stroke:#cccccc;stroke-linecap:round;stroke-width:0.8;"/>
     </g>
     <g id="text_5">
      <!-- 80 -->
      <defs>
       <path d="M 31.78125 34.625 
Q 24.75 34.625 20.71875 30.859375 
Q 16.703125 27.09375 16.703125 20.515625 
Q 16.703125 13.921875 20.71875 10.15625 
Q 24.75 6.390625 31.78125 6.390625 
Q 38.8125 6.390625 42.859375 10.171875 
Q 46.921875 13.96875 46.921875 20.515625 
Q 46.921875 27.09375 42.890625 30.859375 
Q 38.875 34.625 31.78125 34.625 
z
M 21.921875 38.8125 
Q 15.578125 40.375 12.03125 44.71875 
Q 8.5 49.078125 8.5 55.328125 
Q 8.5 64.0625 14.71875 69.140625 
Q 20.953125 74.21875 31.78125 74.21875 
Q 42.671875 74.21875 48.875 69.140625 
Q 55.078125 64.0625 55.078125 55.328125 
Q 55.078125 49.078125 51.53125 44.71875 
Q 48 40.375 41.703125 38.8125 
Q 48.828125 37.15625 52.796875 32.3125 
Q 56.78125 27.484375 56.78125 20.515625 
Q 56.78125 9.90625 50.3125 4.234375 
Q 43.84375 -1.421875 31.78125 -1.421875 
Q 19.734375 -1.421875 13.25 4.234375 
Q 6.78125 9.90625 6.78125 20.515625 
Q 6.78125 27.484375 10.78125 32.3125 
Q 14.796875 37.15625 21.921875 38.8125 
z
M 18.3125 54.390625 
Q 18.3125 48.734375 21.84375 45.5625 
Q 25.390625 42.390625 31.78125 42.390625 
Q 38.140625 42.390625 41.71875 45.5625 
Q 45.3125 48.734375 45.3125 54.390625 
Q 45.3125 60.0625 41.71875 63.234375 
Q 38.140625 66.40625 31.78125 66.40625 
Q 25.390625 66.40625 21.84375 63.234375 
Q 18.3125 60.0625 18.3125 54.390625 
z
" id="DejaVuSans-56"/>
      </defs>
         <g style="fill:#262626;" transform="translate(381.362332 266.598437)scale(0.1 -0.1)">
       <use xlink:href="#DejaVuSans-56"/>
       <use x="63.623047" xlink:href="#DejaVuSans-48"/>
      </g>
     </g>
    </g>
    <g id="xtick_6">
     <g id="line2d_6">
         <path clip-path="url(#p62c8613240)" d="M 455.815131 252
L 455.815131 34.56 
" style="fill:none;stroke:#cccccc;stroke-linecap:round;stroke-width:0.8;"/>
     </g>
     <g id="text_6">
      <!-- 100 -->
      <defs>
       <path d="M 12.40625 8.296875 
L 28.515625 8.296875 
L 28.515625 63.921875 
L 10.984375 60.40625 
L 10.984375 69.390625 
L 28.421875 72.90625 
L 38.28125 72.90625 
L 38.28125 8.296875 
L 54.390625 8.296875 
L 54.390625 0 
L 12.40625 0 
z
" id="DejaVuSans-49"/>
      </defs>
         <g style="fill:#262626;" transform="translate(446.271381 266.598437)scale(0.1 -0.1)">
       <use xlink:href="#DejaVuSans-49"/>
       <use x="63.623047" xlink:href="#DejaVuSans-48"/>
       <use x="127.246094" xlink:href="#DejaVuSans-48"/>
      </g>
     </g>
    </g>
    <g id="xtick_7">
     <g id="line2d_7">
         <path clip-path="url(#p62c8613240)" d="M 523.90543 252
L 523.90543 34.56 
" style="fill:none;stroke:#cccccc;stroke-linecap:round;stroke-width:0.8;"/>
     </g>
     <g id="text_7">
      <!-- 120 -->
         <g style="fill:#262626;" transform="translate(514.36168 266.598437)scale(0.1 -0.1)">
       <use xlink:href="#DejaVuSans-49"/>
       <use x="63.623047" xlink:href="#DejaVuSans-50"/>
       <use x="127.246094" xlink:href="#DejaVuSans-48"/>
      </g>
     </g>
    </g>
    <g id="xtick_8">
     <g id="line2d_8">
         <path clip-path="url(#p62c8613240)" d="M 591.995729 252
L 591.995729 34.56 
" style="fill:none;stroke:#cccccc;stroke-linecap:round;stroke-width:0.8;"/>
     </g>
     <g id="text_8">
      <!-- 140 -->
         <g style="fill:#262626;" transform="translate(582.451979 266.598437)scale(0.1 -0.1)">
       <use xlink:href="#DejaVuSans-49"/>
       <use x="63.623047" xlink:href="#DejaVuSans-52"/>
       <use x="127.246094" xlink:href="#DejaVuSans-48"/>
      </g>
     </g>
    </g>
    <g id="text_9">
     <!-- epoch -->
     <defs>
      <path d="M 56.203125 29.59375 
L 56.203125 25.203125 
L 14.890625 25.203125 
Q 15.484375 15.921875 20.484375 11.0625 
Q 25.484375 6.203125 34.421875 6.203125 
Q 39.59375 6.203125 44.453125 7.46875 
Q 49.3125 8.734375 54.109375 11.28125 
L 54.109375 2.78125 
Q 49.265625 0.734375 44.1875 -0.34375 
Q 39.109375 -1.421875 33.890625 -1.421875 
Q 20.796875 -1.421875 13.15625 6.1875 
Q 5.515625 13.8125 5.515625 26.8125 
Q 5.515625 40.234375 12.765625 48.109375 
Q 20.015625 56 32.328125 56 
Q 43.359375 56 49.78125 48.890625 
Q 56.203125 41.796875 56.203125 29.59375 
z
M 47.21875 32.234375 
Q 47.125 39.59375 43.09375 43.984375 
Q 39.0625 48.390625 32.421875 48.390625 
Q 24.90625 48.390625 20.390625 44.140625 
Q 15.875 39.890625 15.1875 32.171875 
z
" id="DejaVuSans-101"/>
      <path d="M 18.109375 8.203125 
L 18.109375 -20.796875 
L 9.078125 -20.796875 
L 9.078125 54.6875 
L 18.109375 54.6875 
L 18.109375 46.390625 
Q 20.953125 51.265625 25.265625 53.625 
Q 29.59375 56 35.59375 56 
Q 45.5625 56 51.78125 48.09375 
Q 58.015625 40.1875 58.015625 27.296875 
Q 58.015625 14.40625 51.78125 6.484375 
Q 45.5625 -1.421875 35.59375 -1.421875 
Q 29.59375 -1.421875 25.265625 0.953125 
Q 20.953125 3.328125 18.109375 8.203125 
z
M 48.6875 27.296875 
Q 48.6875 37.203125 44.609375 42.84375 
Q 40.53125 48.484375 33.40625 48.484375 
Q 26.265625 48.484375 22.1875 42.84375 
Q 18.109375 37.203125 18.109375 27.296875 
Q 18.109375 17.390625 22.1875 11.75 
Q 26.265625 6.109375 33.40625 6.109375 
Q 40.53125 6.109375 44.609375 11.75 
Q 48.6875 17.390625 48.6875 27.296875 
z
" id="DejaVuSans-112"/>
      <path d="M 30.609375 48.390625 
Q 23.390625 48.390625 19.1875 42.75 
Q 14.984375 37.109375 14.984375 27.296875 
Q 14.984375 17.484375 19.15625 11.84375 
Q 23.34375 6.203125 30.609375 6.203125 
Q 37.796875 6.203125 41.984375 11.859375 
Q 46.1875 17.53125 46.1875 27.296875 
Q 46.1875 37.015625 41.984375 42.703125 
Q 37.796875 48.390625 30.609375 48.390625 
z
M 30.609375 56 
Q 42.328125 56 49.015625 48.375 
Q 55.71875 40.765625 55.71875 27.296875 
Q 55.71875 13.875 49.015625 6.21875 
Q 42.328125 -1.421875 30.609375 -1.421875 
Q 18.84375 -1.421875 12.171875 6.21875 
Q 5.515625 13.875 5.515625 27.296875 
Q 5.515625 40.765625 12.171875 48.375 
Q 18.84375 56 30.609375 56 
z
" id="DejaVuSans-111"/>
      <path d="M 48.78125 52.59375 
L 48.78125 44.1875 
Q 44.96875 46.296875 41.140625 47.34375 
Q 37.3125 48.390625 33.40625 48.390625 
Q 24.65625 48.390625 19.8125 42.84375 
Q 14.984375 37.3125 14.984375 27.296875 
Q 14.984375 17.28125 19.8125 11.734375 
Q 24.65625 6.203125 33.40625 6.203125 
Q 37.3125 6.203125 41.140625 7.25 
Q 44.96875 8.296875 48.78125 10.40625 
L 48.78125 2.09375 
Q 45.015625 0.34375 40.984375 -0.53125 
Q 36.96875 -1.421875 32.421875 -1.421875 
Q 20.0625 -1.421875 12.78125 6.34375 
Q 5.515625 14.109375 5.515625 27.296875 
Q 5.515625 40.671875 12.859375 48.328125 
Q 20.21875 56 33.015625 56 
Q 37.15625 56 41.109375 55.140625 
Q 45.0625 54.296875 48.78125 52.59375 
z
" id="DejaVuSans-99"/>
      <path d="M 54.890625 33.015625 
L 54.890625 0 
L 45.90625 0 
L 45.90625 32.71875 
Q 45.90625 40.484375 42.875 44.328125 
Q 39.84375 48.1875 33.796875 48.1875 
Q 26.515625 48.1875 22.3125 43.546875 
Q 18.109375 38.921875 18.109375 30.90625 
L 18.109375 0 
L 9.078125 0 
L 9.078125 75.984375 
L 18.109375 75.984375 
L 18.109375 46.1875 
Q 21.34375 51.125 25.703125 53.5625 
Q 30.078125 56 35.796875 56 
Q 45.21875 56 50.046875 50.171875 
Q 54.890625 44.34375 54.890625 33.015625 
z
" id="DejaVuSans-104"/>
     </defs>
        <g style="fill:#262626;" transform="translate(353.771875 280.276563)scale(0.1 -0.1)">
      <use xlink:href="#DejaVuSans-101"/>
      <use x="61.523438" xlink:href="#DejaVuSans-112"/>
      <use x="125" xlink:href="#DejaVuSans-111"/>
      <use x="186.181641" xlink:href="#DejaVuSans-99"/>
      <use x="241.162109" xlink:href="#DejaVuSans-104"/>
     </g>
    </g>
   </g>
   <g id="matplotlib.axis_2">
    <g id="ytick_1">
     <g id="line2d_9">
         <path clip-path="url(#p62c8613240)" d="M 90 242.123197
L 648 242.123197 
" style="fill:none;stroke:#cccccc;stroke-linecap:round;stroke-width:0.8;"/>
     </g>
     <g id="text_10">
      <!-- 0 -->
         <g style="fill:#262626;" transform="translate(76.6375 245.922415)scale(0.1 -0.1)">
       <use xlink:href="#DejaVuSans-48"/>
      </g>
     </g>
    </g>
    <g id="ytick_2">
     <g id="line2d_10">
         <path clip-path="url(#p62c8613240)" d="M 90 198.011306
L 648 198.011306 
" style="fill:none;stroke:#cccccc;stroke-linecap:round;stroke-width:0.8;"/>
     </g>
     <g id="text_11">
      <!-- 10 -->
         <g style="fill:#262626;" transform="translate(70.275 201.810525)scale(0.1 -0.1)">
       <use xlink:href="#DejaVuSans-49"/>
       <use x="63.623047" xlink:href="#DejaVuSans-48"/>
      </g>
     </g>
    </g>
    <g id="ytick_3">
     <g id="line2d_11">
         <path clip-path="url(#p62c8613240)" d="M 90 153.899416
L 648 153.899416 
" style="fill:none;stroke:#cccccc;stroke-linecap:round;stroke-width:0.8;"/>
     </g>
     <g id="text_12">
      <!-- 20 -->
         <g style="fill:#262626;" transform="translate(70.275 157.698635)scale(0.1 -0.1)">
       <use xlink:href="#DejaVuSans-50"/>
       <use x="63.623047" xlink:href="#DejaVuSans-48"/>
      </g>
     </g>
    </g>
    <g id="ytick_4">
     <g id="line2d_12">
         <path clip-path="url(#p62c8613240)" d="M 90 109.787526
L 648 109.787526 
" style="fill:none;stroke:#cccccc;stroke-linecap:round;stroke-width:0.8;"/>
     </g>
     <g id="text_13">
      <!-- 30 -->
      <defs>
       <path d="M 40.578125 39.3125 
Q 47.65625 37.796875 51.625 33 
Q 55.609375 28.21875 55.609375 21.1875 
Q 55.609375 10.40625 48.1875 4.484375 
Q 40.765625 -1.421875 27.09375 -1.421875 
Q 22.515625 -1.421875 17.65625 -0.515625 
Q 12.796875 0.390625 7.625 2.203125 
L 7.625 11.71875 
Q 11.71875 9.328125 16.59375 8.109375 
Q 21.484375 6.890625 26.8125 6.890625 
Q 36.078125 6.890625 40.9375 10.546875 
Q 45.796875 14.203125 45.796875 21.1875 
Q 45.796875 27.640625 41.28125 31.265625 
Q 36.765625 34.90625 28.71875 34.90625 
L 20.21875 34.90625 
L 20.21875 43.015625 
L 29.109375 43.015625 
Q 36.375 43.015625 40.234375 45.921875 
Q 44.09375 48.828125 44.09375 54.296875 
Q 44.09375 59.90625 40.109375 62.90625 
Q 36.140625 65.921875 28.71875 65.921875 
Q 24.65625 65.921875 20.015625 65.03125 
Q 15.375 64.15625 9.8125 62.3125 
L 9.8125 71.09375 
Q 15.4375 72.65625 20.34375 73.4375 
Q 25.25 74.21875 29.59375 74.21875 
Q 40.828125 74.21875 47.359375 69.109375 
Q 53.90625 64.015625 53.90625 55.328125 
Q 53.90625 49.265625 50.4375 45.09375 
Q 46.96875 40.921875 40.578125 39.3125 
z
" id="DejaVuSans-51"/>
      </defs>
         <g style="fill:#262626;" transform="translate(70.275 113.586745)scale(0.1 -0.1)">
       <use xlink:href="#DejaVuSans-51"/>
       <use x="63.623047" xlink:href="#DejaVuSans-48"/>
      </g>
     </g>
    </g>
    <g id="ytick_5">
     <g id="line2d_13">
         <path clip-path="url(#p62c8613240)" d="M 90 65.675636
L 648 65.675636 
" style="fill:none;stroke:#cccccc;stroke-linecap:round;stroke-width:0.8;"/>
     </g>
     <g id="text_14">
      <!-- 40 -->
         <g style="fill:#262626;" transform="translate(70.275 69.474855)scale(0.1 -0.1)">
       <use xlink:href="#DejaVuSans-52"/>
       <use x="63.623047" xlink:href="#DejaVuSans-48"/>
      </g>
     </g>
    </g>
    <g id="text_15">
     <!-- loss -->
     <defs>
      <path d="M 9.421875 75.984375 
L 18.40625 75.984375 
L 18.40625 0 
L 9.421875 0 
z
" id="DejaVuSans-108"/>
      <path d="M 44.28125 53.078125 
L 44.28125 44.578125 
Q 40.484375 46.53125 36.375 47.5 
Q 32.28125 48.484375 27.875 48.484375 
Q 21.1875 48.484375 17.84375 46.4375 
Q 14.5 44.390625 14.5 40.28125 
Q 14.5 37.15625 16.890625 35.375 
Q 19.28125 33.59375 26.515625 31.984375 
L 29.59375 31.296875 
Q 39.15625 29.25 43.1875 25.515625 
Q 47.21875 21.78125 47.21875 15.09375 
Q 47.21875 7.46875 41.1875 3.015625 
Q 35.15625 -1.421875 24.609375 -1.421875 
Q 20.21875 -1.421875 15.453125 -0.5625 
Q 10.6875 0.296875 5.421875 2 
L 5.421875 11.28125 
Q 10.40625 8.6875 15.234375 7.390625 
Q 20.0625 6.109375 24.8125 6.109375 
Q 31.15625 6.109375 34.5625 8.28125 
Q 37.984375 10.453125 37.984375 14.40625 
Q 37.984375 18.0625 35.515625 20.015625 
Q 33.0625 21.96875 24.703125 23.78125 
L 21.578125 24.515625 
Q 13.234375 26.265625 9.515625 29.90625 
Q 5.8125 33.546875 5.8125 39.890625 
Q 5.8125 47.609375 11.28125 51.796875 
Q 16.75 56 26.8125 56 
Q 31.78125 56 36.171875 55.265625 
Q 40.578125 54.546875 44.28125 53.078125 
z
" id="DejaVuSans-115"/>
     </defs>
        <g style="fill:#262626;" transform="translate(64.195312 152.937813)rotate(-90)scale(0.1 -0.1)">
      <use xlink:href="#DejaVuSans-108"/>
      <use x="27.783203" xlink:href="#DejaVuSans-111"/>
      <use x="88.964844" xlink:href="#DejaVuSans-115"/>
      <use x="141.064453" xlink:href="#DejaVuSans-115"/>
     </g>
    </g>
   </g>
      <g id="PolyCollection_1">
          <defs>
              <path d="M 115.363636 -225.844248
L 115.363636 -169.996852 
L 118.768151 -122.694948 
L 122.172666 -112.336139 
L 125.577181 -106.140846 
L 128.981696 -101.617515 
L 132.386211 -97.098816 
L 135.790726 -94.203105 
L 139.195241 -90.72244 
L 142.599756 -88.114218 
L 146.004271 -85.398776 
L 149.408786 -83.104144 
L 152.813301 -81.233682 
L 156.217816 -78.959389 
L 159.622331 -76.703704 
L 163.026846 -74.561304 
L 166.431361 -72.945006 
L 169.835876 -71.241846 
L 173.24039 -69.538851 
L 176.644905 -68.381047 
L 180.04942 -66.919505 
L 183.453935 -64.989056 
L 186.85845 -63.84783 
L 190.262965 -62.852599 
L 193.66748 -61.755831 
L 197.071995 -60.602284 
L 200.47651 -59.651793 
L 203.881025 -58.478967 
L 207.28554 -57.942045 
L 210.690055 -56.92291 
L 214.09457 -56.242791 
L 217.499085 -55.259959 
L 220.9036 -54.272886 
L 224.308115 -54.174209 
L 227.71263 -53.534914 
L 231.117145 -52.891725 
L 234.52166 -52.084287 
L 237.926174 -51.918266 
L 241.330689 -51.098047 
L 244.735204 -51.02065 
L 248.139719 -50.746831 
L 251.544234 -50.774948 
L 254.948749 -50.320279 
L 258.353264 -50.081028 
L 261.757779 -49.665336 
L 265.162294 -49.595319 
L 268.566809 -48.945195 
L 271.971324 -48.731164 
L 275.375839 -48.439012 
L 278.780354 -48.185208 
L 282.184869 -47.961868 
L 285.589384 -47.722361 
L 288.993899 -47.800347 
L 292.398414 -47.451488 
L 295.802929 -47.464143 
L 299.207444 -47.447769 
L 302.611959 -47.229623 
L 306.016473 -47.146461 
L 309.420988 -47.111084 
L 312.825503 -47.067024 
L 316.230018 -47.040702 
L 319.634533 -46.907169 
L 323.039048 -46.841823 
L 326.443563 -46.708613 
L 329.848078 -46.769946 
L 333.252593 -46.689277 
L 336.657108 -46.671272 
L 340.061623 -46.641184 
L 343.466138 -46.634041 
L 346.870653 -46.643803 
L 350.275168 -46.578658 
L 353.679683 -46.529025 
L 357.084198 -46.457316 
L 360.488713 -46.527478 
L 363.893228 -46.458909 
L 367.297743 -46.494242 
L 370.702257 -46.436294 
L 374.106772 -46.369615 
L 377.511287 -46.403691 
L 380.915802 -46.346537 
L 384.320317 -46.366978 
L 387.724832 -46.304431 
L 391.129347 -46.25711 
L 394.533862 -46.237661 
L 397.938377 -46.218556 
L 401.342892 -46.217722 
L 404.747407 -46.173573 
L 408.151922 -46.172628 
L 411.556437 -46.155496 
L 414.960952 -46.136722 
L 418.365467 -46.13815 
L 421.769982 -46.12355 
L 425.174497 -46.106159 
L 428.579012 -46.104357 
L 431.983527 -46.095178 
L 435.388041 -46.087114 
L 438.792556 -46.087585 
L 442.197071 -46.073919 
L 445.601586 -46.065534 
L 449.006101 -46.068471 
L 452.410616 -46.048915 
L 455.815131 -46.046699 
L 459.219646 -46.038613 
L 462.624161 -46.035664 
L 466.028676 -46.027905 
L 469.433191 -46.02525 
L 472.837706 -46.017734 
L 476.242221 -46.020652 
L 479.646736 -46.012457 
L 483.051251 -46.010487 
L 486.455766 -46.009263 
L 489.860281 -46.003256 
L 493.264796 -45.996863 
L 496.669311 -45.990828 
L 500.073826 -45.986858 
L 503.47834 -45.985257 
L 506.882855 -45.981737 
L 510.28737 -45.980091 
L 513.691885 -45.977552 
L 517.0964 -45.975459 
L 520.500915 -45.971643 
L 523.90543 -45.973231 
L 527.309945 -45.965909 
L 530.71446 -45.963425 
L 534.118975 -45.959679 
L 537.52349 -45.957469 
L 540.928005 -45.954811 
L 544.33252 -45.952797 
L 547.737035 -45.951724 
L 551.14155 -45.948918 
L 554.546065 -45.945938 
L 557.95058 -45.946745 
L 561.355095 -45.9428 
L 564.75961 -45.944198 
L 568.164124 -45.939161 
L 571.568639 -45.940799 
L 574.973154 -45.93601 
L 578.377669 -45.936714 
L 581.782184 -45.934831 
L 585.186699 -45.934381 
L 588.591214 -45.931051 
L 591.995729 -45.929874 
L 595.400244 -45.928798 
L 598.804759 -45.927446 
L 602.209274 -45.929014 
L 605.613789 -45.925976 
L 609.018304 -45.923716 
L 612.422819 -45.922423 
L 615.827334 -45.921742 
L 619.231849 -45.920896 
L 622.636364 -45.920176 
L 622.636364 -63.10959 
L 622.636364 -63.10959 
L 619.231849 -67.775128 
L 615.827334 -81.234375 
L 612.422819 -49.241017 
L 609.018304 -46.065216 
L 605.613789 -46.061089 
L 602.209274 -46.058314 
L 598.804759 -46.063049 
L 595.400244 -46.066346 
L 591.995729 -46.0618 
L 588.591214 -46.0746 
L 585.186699 -46.073458 
L 581.782184 -46.071291 
L 578.377669 -46.07867 
L 574.973154 -46.076628 
L 571.568639 -46.07708 
L 568.164124 -46.078751 
L 564.75961 -46.080946 
L 561.355095 -46.080356 
L 557.95058 -46.091662 
L 554.546065 -46.095066 
L 551.14155 -46.090997 
L 547.737035 -46.104713 
L 544.33252 -46.103456 
L 540.928005 -46.105354 
L 537.52349 -46.111062 
L 534.118975 -46.112711 
L 530.71446 -46.119312 
L 527.309945 -46.118132 
L 523.90543 -46.121465 
L 520.500915 -46.121792 
L 517.0964 -46.132715 
L 513.691885 -46.1402 
L 510.28737 -46.136959 
L 506.882855 -46.146387 
L 503.47834 -46.151589 
L 500.073826 -46.156482 
L 496.669311 -46.158006 
L 493.264796 -46.167802 
L 489.860281 -46.169791 
L 486.455766 -46.178681 
L 483.051251 -46.195224 
L 479.646736 -46.201206 
L 476.242221 -46.201748 
L 472.837706 -46.222521 
L 469.433191 -46.224511 
L 466.028676 -46.221999 
L 462.624161 -46.232962 
L 459.219646 -46.242689 
L 455.815131 -46.253692 
L 452.410616 -46.268497 
L 449.006101 -46.282094 
L 445.601586 -46.296197 
L 442.197071 -46.302911 
L 438.792556 -46.315836 
L 435.388041 -46.337776 
L 431.983527 -46.346522 
L 428.579012 -46.378744 
L 425.174497 -46.402979 
L 421.769982 -46.416056 
L 418.365467 -46.451866 
L 414.960952 -46.464414 
L 411.556437 -46.494249 
L 408.151922 -46.543284 
L 404.747407 -46.608969 
L 401.342892 -46.777796 
L 397.938377 -47.254902 
L 394.533862 -48.045662 
L 391.129347 -48.418617 
L 387.724832 -48.398358 
L 384.320317 -47.905377 
L 380.915802 -47.536624 
L 377.511287 -47.853369 
L 374.106772 -48.727418 
L 370.702257 -49.419538 
L 367.297743 -50.980016 
L 363.893228 -53.376868 
L 360.488713 -47.768884 
L 357.084198 -47.361179 
L 353.679683 -47.614065 
L 350.275168 -47.895396 
L 346.870653 -48.39208 
L 343.466138 -49.246915 
L 340.061623 -49.643924 
L 336.657108 -51.0248 
L 333.252593 -50.851667 
L 329.848078 -50.262435 
L 326.443563 -49.756316 
L 323.039048 -48.760965 
L 319.634533 -48.886971 
L 316.230018 -49.383163 
L 312.825503 -49.817626 
L 309.420988 -50.085367 
L 306.016473 -50.183124 
L 302.611959 -50.088685 
L 299.207444 -50.216477 
L 295.802929 -50.757117 
L 292.398414 -51.815129 
L 288.993899 -52.108362 
L 285.589384 -51.621124 
L 282.184869 -52.217783 
L 278.780354 -52.958823 
L 275.375839 -53.058665 
L 271.971324 -53.98751 
L 268.566809 -53.768645 
L 265.162294 -54.757186 
L 261.757779 -55.043844 
L 258.353264 -55.24486 
L 254.948749 -55.626359 
L 251.544234 -56.101153 
L 248.139719 -56.403252 
L 244.735204 -56.886811 
L 241.330689 -57.935325 
L 237.926174 -58.594242 
L 234.52166 -58.463277 
L 231.117145 -59.420958 
L 227.71263 -60.446856 
L 224.308115 -61.033197 
L 220.9036 -61.702308 
L 217.499085 -63.326871 
L 214.09457 -63.832479 
L 210.690055 -65.318939 
L 207.28554 -65.668583 
L 203.881025 -66.678723 
L 200.47651 -67.428028 
L 197.071995 -68.738258 
L 193.66748 -69.97601 
L 190.262965 -70.755788 
L 186.85845 -71.804733 
L 183.453935 -73.714066 
L 180.04942 -75.21935 
L 176.644905 -76.444514 
L 173.24039 -77.903437 
L 169.835876 -79.672028 
L 166.431361 -80.739674 
L 163.026846 -82.136452 
L 159.622331 -84.77644 
L 156.217816 -86.38696 
L 152.813301 -88.226948 
L 149.408786 -89.701336 
L 146.004271 -92.431062 
L 142.599756 -94.61766 
L 139.195241 -97.634491 
L 135.790726 -100.835995 
L 132.386211 -103.694569 
L 128.981696 -108.407022 
L 125.577181 -113.360139 
L 122.172666 -119.673231 
L 118.768151 -129.860799 
L 115.363636 -225.844248 
z
" id="m17c2a845d9" style="stroke:#1f77b4;stroke-opacity:0.2;"/>
          </defs>
          <g clip-path="url(#p62c8613240)">
              <use style="fill:#1f77b4;fill-opacity:0.2;stroke:#1f77b4;stroke-opacity:0.2;" x="0"
                   xlink:href="#m17c2a845d9" y="288"/>
          </g>
      </g>
      <g id="PolyCollection_2">
          <defs>
              <path d="M 115.363636 -243.556364
L 115.363636 -179.102143 
L 118.768151 -140.92246 
L 122.172666 -137.878299 
L 125.577181 -134.871014 
L 128.981696 -131.448229 
L 132.386211 -128.416263 
L 135.790726 -126.198946 
L 139.195241 -123.711051 
L 142.599756 -120.138327 
L 146.004271 -118.306848 
L 149.408786 -116.068105 
L 152.813301 -114.162342 
L 156.217816 -112.287801 
L 159.622331 -111.085921 
L 163.026846 -109.773232 
L 166.431361 -108.798786 
L 169.835876 -108.470223 
L 173.24039 -107.006294 
L 176.644905 -106.355461 
L 180.04942 -105.59505 
L 183.453935 -104.893137 
L 186.85845 -104.229155 
L 190.262965 -103.212866 
L 193.66748 -102.678599 
L 197.071995 -101.813244 
L 200.47651 -101.521037 
L 203.881025 -101.148702 
L 207.28554 -101.06799 
L 210.690055 -99.623316 
L 214.09457 -99.283932 
L 217.499085 -98.975672 
L 220.9036 -98.426352 
L 224.308115 -97.873808 
L 227.71263 -97.158772 
L 231.117145 -96.760576 
L 234.52166 -96.472005 
L 237.926174 -95.57235 
L 241.330689 -96.019747 
L 244.735204 -94.489111 
L 248.139719 -94.290253 
L 251.544234 -94.332282 
L 254.948749 -94.4057 
L 258.353264 -93.66748 
L 261.757779 -93.174041 
L 265.162294 -92.96354 
L 268.566809 -92.268276 
L 271.971324 -92.196023 
L 275.375839 -91.198942 
L 278.780354 -90.353795 
L 282.184869 -91.087097 
L 285.589384 -90.406973 
L 288.993899 -89.923347 
L 292.398414 -89.143887 
L 295.802929 -88.533334 
L 299.207444 -87.130056 
L 302.611959 -86.551219 
L 306.016473 -86.809762 
L 309.420988 -86.284396 
L 312.825503 -85.755513 
L 316.230018 -85.614774 
L 319.634533 -84.952974 
L 323.039048 -84.418343 
L 326.443563 -83.804533 
L 329.848078 -83.643184 
L 333.252593 -83.100475 
L 336.657108 -82.027742 
L 340.061623 -82.389087 
L 343.466138 -83.319293 
L 346.870653 -80.8631 
L 350.275168 -81.273114 
L 353.679683 -81.675164 
L 357.084198 -80.723416 
L 360.488713 -80.920995 
L 363.893228 -80.158731 
L 367.297743 -81.103825 
L 370.702257 -79.281195 
L 374.106772 -79.429992 
L 377.511287 -79.768231 
L 380.915802 -79.57411 
L 384.320317 -79.011294 
L 387.724832 -79.72138 
L 391.129347 -77.953569 
L 394.533862 -79.118703 
L 397.938377 -78.909632 
L 401.342892 -77.772913 
L 404.747407 -77.652496 
L 408.151922 -77.439531 
L 411.556437 -77.433459 
L 414.960952 -76.655555 
L 418.365467 -76.247781 
L 421.769982 -75.478771 
L 425.174497 -76.060977 
L 428.579012 -75.392878 
L 431.983527 -75.349192 
L 435.388041 -75.210094 
L 438.792556 -73.905195 
L 442.197071 -74.809189 
L 445.601586 -73.967544 
L 449.006101 -73.946258 
L 452.410616 -73.744496 
L 455.815131 -73.825203 
L 459.219646 -73.119781 
L 462.624161 -73.302423 
L 466.028676 -72.895131 
L 469.433191 -72.939676 
L 472.837706 -72.620989 
L 476.242221 -72.464417 
L 479.646736 -72.518904 
L 483.051251 -72.68452 
L 486.455766 -71.503244 
L 489.860281 -71.622653 
L 493.264796 -71.257687 
L 496.669311 -70.593161 
L 500.073826 -69.90092 
L 503.47834 -70.196081 
L 506.882855 -70.092157 
L 510.28737 -70.255993 
L 513.691885 -70.190683 
L 517.0964 -70.033789 
L 520.500915 -70.130662 
L 523.90543 -69.247275 
L 527.309945 -69.351698 
L 530.71446 -69.16679 
L 534.118975 -69.106451 
L 537.52349 -69.531637 
L 540.928005 -70.01246 
L 544.33252 -70.053569 
L 547.737035 -68.898853 
L 551.14155 -68.308216 
L 554.546065 -68.218756 
L 557.95058 -68.799299 
L 561.355095 -67.32577 
L 564.75961 -67.667648 
L 568.164124 -67.318404 
L 571.568639 -67.642415 
L 574.973154 -67.521281 
L 578.377669 -67.035001 
L 581.782184 -66.552777 
L 585.186699 -67.146761 
L 588.591214 -66.456802 
L 591.995729 -66.285797 
L 595.400244 -66.283213 
L 598.804759 -66.224571 
L 602.209274 -65.618513 
L 605.613789 -66.409282 
L 609.018304 -66.169467 
L 612.422819 -65.571709 
L 615.827334 -65.832247 
L 619.231849 -65.949967 
L 622.636364 -65.533991 
L 622.636364 -78.58114 
L 622.636364 -78.58114 
L 619.231849 -77.852557 
L 615.827334 -78.165603 
L 612.422819 -78.215904 
L 609.018304 -78.940012 
L 605.613789 -78.897778 
L 602.209274 -78.716255 
L 598.804759 -79.617258 
L 595.400244 -79.369746 
L 591.995729 -79.402123 
L 588.591214 -79.996748 
L 585.186699 -79.993588 
L 581.782184 -79.802827 
L 578.377669 -80.498103 
L 574.973154 -80.67106 
L 571.568639 -80.641762 
L 568.164124 -80.988982 
L 564.75961 -81.234974 
L 561.355095 -80.772813 
L 557.95058 -82.21094 
L 554.546065 -82.427165 
L 551.14155 -82.30525 
L 547.737035 -82.538872 
L 544.33252 -82.709392 
L 540.928005 -83.120807 
L 537.52349 -83.22927 
L 534.118975 -84.259183 
L 530.71446 -83.302806 
L 527.309945 -84.515242 
L 523.90543 -84.838627 
L 520.500915 -84.550227 
L 517.0964 -84.34547 
L 513.691885 -84.519312 
L 510.28737 -85.72863 
L 506.882855 -85.02044 
L 503.47834 -85.594576 
L 500.073826 -86.20249 
L 496.669311 -85.868961 
L 493.264796 -87.304017 
L 489.860281 -86.753704 
L 486.455766 -87.66913 
L 483.051251 -87.616446 
L 479.646736 -87.707184 
L 476.242221 -88.204125 
L 472.837706 -88.600966 
L 469.433191 -89.220261 
L 466.028676 -90.072801 
L 462.624161 -89.367497 
L 459.219646 -90.201573 
L 455.815131 -90.446293 
L 452.410616 -90.963168 
L 449.006101 -90.461598 
L 445.601586 -91.438101 
L 442.197071 -92.664803 
L 438.792556 -93.095074 
L 435.388041 -93.253636 
L 431.983527 -93.409488 
L 428.579012 -94.328066 
L 425.174497 -94.635769 
L 421.769982 -95.596564 
L 418.365467 -96.672682 
L 414.960952 -96.902496 
L 411.556437 -97.781476 
L 408.151922 -98.555609 
L 404.747407 -97.442609 
L 401.342892 -98.358871 
L 397.938377 -98.173578 
L 394.533862 -100.170416 
L 391.129347 -100.431495 
L 387.724832 -100.910917 
L 384.320317 -101.716311 
L 380.915802 -101.814634 
L 377.511287 -101.446489 
L 374.106772 -102.741482 
L 370.702257 -102.919354 
L 367.297743 -101.834067 
L 363.893228 -103.367335 
L 360.488713 -102.952717 
L 357.084198 -102.971072 
L 353.679683 -102.61666 
L 350.275168 -104.089981 
L 346.870653 -103.49399 
L 343.466138 -105.189507 
L 340.061623 -105.13016 
L 336.657108 -105.217125 
L 333.252593 -106.112094 
L 329.848078 -105.152168 
L 326.443563 -104.992728 
L 323.039048 -105.054622 
L 319.634533 -105.315134 
L 316.230018 -105.58446 
L 312.825503 -106.190742 
L 309.420988 -106.51332 
L 306.016473 -106.747316 
L 302.611959 -107.360154 
L 299.207444 -108.118223 
L 295.802929 -107.216217 
L 292.398414 -108.880444 
L 288.993899 -109.428458 
L 285.589384 -109.61808 
L 282.184869 -110.077617 
L 278.780354 -110.307321 
L 275.375839 -110.386039 
L 271.971324 -111.321305 
L 268.566809 -111.452715 
L 265.162294 -113.03516 
L 261.757779 -112.885242 
L 258.353264 -112.734353 
L 254.948749 -112.989698 
L 251.544234 -113.606148 
L 248.139719 -113.746211 
L 244.735204 -113.652358 
L 241.330689 -113.959063 
L 237.926174 -114.439478 
L 234.52166 -114.454862 
L 231.117145 -114.536172 
L 227.71263 -115.068614 
L 224.308115 -115.785465 
L 220.9036 -115.687209 
L 217.499085 -116.376776 
L 214.09457 -115.822328 
L 210.690055 -116.086386 
L 207.28554 -116.082488 
L 203.881025 -116.414362 
L 200.47651 -117.037025 
L 197.071995 -118.001534 
L 193.66748 -117.607509 
L 190.262965 -118.363133 
L 186.85845 -118.171963 
L 183.453935 -118.353978 
L 180.04942 -119.614857 
L 176.644905 -119.780587 
L 173.24039 -121.35645 
L 169.835876 -121.129081 
L 166.431361 -122.18142 
L 163.026846 -122.97086 
L 159.622331 -123.475769 
L 156.217816 -125.496778 
L 152.813301 -126.799957 
L 149.408786 -128.174683 
L 146.004271 -130.041286 
L 142.599756 -132.08821 
L 139.195241 -135.02501 
L 135.790726 -137.436931 
L 132.386211 -138.638014 
L 128.981696 -140.245471 
L 125.577181 -141.938904 
L 122.172666 -143.002657 
L 118.768151 -142.478177 
L 115.363636 -243.556364 
z
" id="ma3dc14e6b6" style="stroke:#ff7f0e;stroke-opacity:0.2;"/>
          </defs>
          <g clip-path="url(#p62c8613240)">
              <use style="fill:#ff7f0e;fill-opacity:0.2;stroke:#ff7f0e;stroke-opacity:0.2;" x="0"
                   xlink:href="#ma3dc14e6b6" y="288"/>
          </g>
      </g>
      <g id="PolyCollection_3">
          <defs>
              <path d="M 115.363636 -161.998925
L 115.363636 -141.080082 
L 118.768151 -121.423456 
L 122.172666 -112.326404 
L 125.577181 -104.679813 
L 128.981696 -99.716681 
L 132.386211 -94.453631 
L 135.790726 -90.506692 
L 139.195241 -86.686681 
L 142.599756 -83.686439 
L 146.004271 -81.187154 
L 149.408786 -78.358059 
L 152.813301 -75.719591 
L 156.217816 -72.744661 
L 159.622331 -70.993028 
L 163.026846 -69.062658 
L 166.431361 -67.278054 
L 169.835876 -65.183934 
L 173.24039 -62.319527 
L 176.644905 -60.710788 
L 180.04942 -58.808089 
L 183.453935 -58.030034 
L 186.85845 -56.622052 
L 190.262965 -55.304954 
L 193.66748 -54.663011 
L 197.071995 -53.778114 
L 200.47651 -53.099511 
L 203.881025 -51.935595 
L 207.28554 -51.229114 
L 210.690055 -50.118766 
L 214.09457 -49.530757 
L 217.499085 -48.845877 
L 220.9036 -48.945787 
L 224.308115 -48.23557 
L 227.71263 -48.192198 
L 231.117145 -48.047437 
L 234.52166 -47.692217 
L 237.926174 -47.28054 
L 241.330689 -47.183332 
L 244.735204 -46.859649 
L 248.139719 -46.814523 
L 251.544234 -46.565417 
L 254.948749 -46.530184 
L 258.353264 -46.457476 
L 261.757779 -46.386358 
L 265.162294 -46.334156 
L 268.566809 -46.266498 
L 271.971324 -46.229556 
L 275.375839 -46.196683 
L 278.780354 -46.17587 
L 282.184869 -46.146833 
L 285.589384 -46.124544 
L 288.993899 -46.115871 
L 292.398414 -46.094928 
L 295.802929 -46.079111 
L 299.207444 -46.065476 
L 302.611959 -46.05131 
L 306.016473 -46.039893 
L 309.420988 -46.02426 
L 312.825503 -46.025057 
L 316.230018 -46.020794 
L 319.634533 -46.013468 
L 323.039048 -45.997947 
L 326.443563 -45.991851 
L 329.848078 -45.98932 
L 333.252593 -45.986783 
L 336.657108 -45.983655 
L 340.061623 -45.976731 
L 343.466138 -45.96926 
L 346.870653 -45.965171 
L 350.275168 -45.95938 
L 353.679683 -45.956272 
L 357.084198 -45.951032 
L 360.488713 -45.948572 
L 363.893228 -45.946822 
L 367.297743 -45.942562 
L 370.702257 -45.940645 
L 374.106772 -45.937015 
L 377.511287 -45.935246 
L 380.915802 -45.933515 
L 384.320317 -45.931476 
L 387.724832 -45.929119 
L 391.129347 -45.925533 
L 394.533862 -45.924907 
L 397.938377 -45.924153 
L 401.342892 -45.920795 
L 404.747407 -45.919227 
L 408.151922 -45.918041 
L 411.556437 -45.917348 
L 414.960952 -45.916385 
L 418.365467 -45.914693 
L 421.769982 -45.913128 
L 425.174497 -45.911281 
L 428.579012 -45.911108 
L 431.983527 -45.909871 
L 435.388041 -45.908516 
L 438.792556 -45.906905 
L 442.197071 -45.906953 
L 445.601586 -45.905573 
L 449.006101 -45.904487 
L 452.410616 -45.903727 
L 455.815131 -45.902929 
L 459.219646 -45.901786 
L 462.624161 -45.902245 
L 466.028676 -45.901211 
L 469.433191 -45.898411 
L 472.837706 -45.899102 
L 476.242221 -45.898267 
L 479.646736 -45.897356 
L 483.051251 -45.897131 
L 486.455766 -45.896249 
L 489.860281 -45.895791 
L 493.264796 -45.895558 
L 496.669311 -45.894877 
L 500.073826 -45.894573 
L 503.47834 -45.893853 
L 506.882855 -45.893206 
L 510.28737 -45.893166 
L 513.691885 -45.892412 
L 517.0964 -45.892135 
L 520.500915 -45.891941 
L 523.90543 -45.891433 
L 527.309945 -45.890917 
L 530.71446 -45.890998 
L 534.118975 -45.890181 
L 537.52349 -45.889835 
L 540.928005 -45.889729 
L 544.33252 -45.888791 
L 547.737035 -45.888833 
L 551.14155 -45.888758 
L 554.546065 -45.888502 
L 557.95058 -45.887984 
L 561.355095 -45.887612 
L 564.75961 -45.887116 
L 568.164124 -45.88713 
L 571.568639 -45.886857 
L 574.973154 -45.886601 
L 578.377669 -45.886165 
L 581.782184 -45.886143 
L 585.186699 -45.885861 
L 588.591214 -45.885817 
L 591.995729 -45.885319 
L 595.400244 -45.885381 
L 598.804759 -45.885141 
L 602.209274 -45.884706 
L 605.613789 -45.884579 
L 609.018304 -45.884269 
L 612.422819 -45.884369 
L 615.827334 -45.883878 
L 619.231849 -45.883905 
L 622.636364 -45.883636 
L 622.636364 -45.890578 
L 622.636364 -45.890578 
L 619.231849 -45.890964 
L 615.827334 -45.891194 
L 612.422819 -45.891824 
L 609.018304 -45.892098 
L 605.613789 -45.892533 
L 602.209274 -45.892809 
L 598.804759 -45.893174 
L 595.400244 -45.893683 
L 591.995729 -45.89447 
L 588.591214 -45.894705 
L 585.186699 -45.894905 
L 581.782184 -45.895794 
L 578.377669 -45.896094 
L 574.973154 -45.896709 
L 571.568639 -45.897027 
L 568.164124 -45.897575 
L 564.75961 -45.898648 
L 561.355095 -45.898703 
L 557.95058 -45.899145 
L 554.546065 -45.900431 
L 551.14155 -45.900631 
L 547.737035 -45.90145 
L 544.33252 -45.901581 
L 540.928005 -45.903174 
L 537.52349 -45.903849 
L 534.118975 -45.904234 
L 530.71446 -45.904517 
L 527.309945 -45.905566 
L 523.90543 -45.906492 
L 520.500915 -45.907381 
L 517.0964 -45.909147 
L 513.691885 -45.909858 
L 510.28737 -45.911399 
L 506.882855 -45.911775 
L 503.47834 -45.912642 
L 500.073826 -45.914781 
L 496.669311 -45.914664 
L 493.264796 -45.915729 
L 489.860281 -45.91656 
L 486.455766 -45.918278 
L 483.051251 -45.919558 
L 479.646736 -45.92221 
L 476.242221 -45.922347 
L 472.837706 -45.924388 
L 469.433191 -45.926793 
L 466.028676 -45.927483 
L 462.624161 -45.929893 
L 459.219646 -45.931405 
L 455.815131 -45.933271 
L 452.410616 -45.934829 
L 449.006101 -45.937039 
L 445.601586 -45.939153 
L 442.197071 -45.941181 
L 438.792556 -45.942483 
L 435.388041 -45.946164 
L 431.983527 -45.948544 
L 428.579012 -45.951258 
L 425.174497 -45.956789 
L 421.769982 -45.957657 
L 418.365467 -45.962835 
L 414.960952 -45.962307 
L 411.556437 -45.968808 
L 408.151922 -45.972181 
L 404.747407 -45.976559 
L 401.342892 -45.975809 
L 397.938377 -45.982378 
L 394.533862 -45.988439 
L 391.129347 -45.99346 
L 387.724832 -45.997123 
L 384.320317 -46.006654 
L 380.915802 -46.016355 
L 377.511287 -46.015214 
L 374.106772 -46.025659 
L 370.702257 -46.029415 
L 367.297743 -46.039501 
L 363.893228 -46.052876 
L 360.488713 -46.061917 
L 357.084198 -46.071043 
L 353.679683 -46.075952 
L 350.275168 -46.098992 
L 346.870653 -46.096316 
L 343.466138 -46.117161 
L 340.061623 -46.137205 
L 336.657108 -46.144126 
L 333.252593 -46.168672 
L 329.848078 -46.18927 
L 326.443563 -46.209814 
L 323.039048 -46.249582 
L 319.634533 -46.279907 
L 316.230018 -46.354158 
L 312.825503 -46.399989 
L 309.420988 -46.3897 
L 306.016473 -46.44041 
L 302.611959 -46.526287 
L 299.207444 -46.554863 
L 295.802929 -46.543114 
L 292.398414 -46.615774 
L 288.993899 -46.733881 
L 285.589384 -46.794913 
L 282.184869 -46.982317 
L 278.780354 -47.022734 
L 275.375839 -47.201377 
L 271.971324 -47.401633 
L 268.566809 -47.564133 
L 265.162294 -47.722305 
L 261.757779 -48.118916 
L 258.353264 -48.632103 
L 254.948749 -49.040001 
L 251.544234 -49.037031 
L 248.139719 -50.246201 
L 244.735204 -50.547162 
L 241.330689 -52.087568 
L 237.926174 -52.150959 
L 234.52166 -52.254942 
L 231.117145 -53.464839 
L 227.71263 -52.806861 
L 224.308115 -54.163728 
L 220.9036 -55.147935 
L 217.499085 -55.384768 
L 214.09457 -56.362808 
L 210.690055 -57.190419 
L 207.28554 -58.988463 
L 203.881025 -59.044345 
L 200.47651 -60.678931 
L 197.071995 -61.529823 
L 193.66748 -62.574679 
L 190.262965 -63.644376 
L 186.85845 -64.937646 
L 183.453935 -67.522442 
L 180.04942 -68.760742 
L 176.644905 -70.670148 
L 173.24039 -71.628551 
L 169.835876 -74.248711 
L 166.431361 -76.309024 
L 163.026846 -77.916696 
L 159.622331 -80.751719 
L 156.217816 -82.606489 
L 152.813301 -85.082917 
L 149.408786 -86.311127 
L 146.004271 -89.244321 
L 142.599756 -91.876204 
L 139.195241 -94.729859 
L 135.790726 -99.69683 
L 132.386211 -104.374573 
L 128.981696 -109.293101 
L 125.577181 -115.282463 
L 122.172666 -123.76036 
L 118.768151 -132.163401 
L 115.363636 -161.998925 
z
" id="m0d98857077" style="stroke:#2ca02c;stroke-opacity:0.2;"/>
          </defs>
          <g clip-path="url(#p62c8613240)">
              <use style="fill:#2ca02c;fill-opacity:0.2;stroke:#2ca02c;stroke-opacity:0.2;" x="0"
                   xlink:href="#m0d98857077" y="288"/>
          </g>
      </g>
      <g id="PolyCollection_4">
          <defs>
              <path d="M 115.363636 -168.77817
L 115.363636 -148.079848 
L 118.768151 -140.765513 
L 122.172666 -138.962106 
L 125.577181 -136.085423 
L 128.981696 -133.133371 
L 132.386211 -129.566572 
L 135.790726 -125.035177 
L 139.195241 -121.330984 
L 142.599756 -117.499032 
L 146.004271 -114.811816 
L 149.408786 -110.66853 
L 152.813301 -107.526481 
L 156.217816 -103.986083 
L 159.622331 -101.288506 
L 163.026846 -98.530232 
L 166.431361 -96.360691 
L 169.835876 -93.983494 
L 173.24039 -91.97181 
L 176.644905 -90.43268 
L 180.04942 -88.851302 
L 183.453935 -86.446613 
L 186.85845 -85.182358 
L 190.262965 -83.748546 
L 193.66748 -83.147432 
L 197.071995 -80.971038 
L 200.47651 -79.811151 
L 203.881025 -79.312849 
L 207.28554 -77.934152 
L 210.690055 -77.356898 
L 214.09457 -76.089788 
L 217.499085 -75.645352 
L 220.9036 -74.985142 
L 224.308115 -73.126234 
L 227.71263 -72.680486 
L 231.117145 -72.066257 
L 234.52166 -70.311193 
L 237.926174 -69.651773 
L 241.330689 -69.033663 
L 244.735204 -68.289969 
L 248.139719 -67.436532 
L 251.544234 -67.023012 
L 254.948749 -66.765307 
L 258.353264 -66.197921 
L 261.757779 -65.479525 
L 265.162294 -64.101034 
L 268.566809 -64.032284 
L 271.971324 -63.147493 
L 275.375839 -62.448202 
L 278.780354 -62.223809 
L 282.184869 -61.099597 
L 285.589384 -61.046934 
L 288.993899 -59.95947 
L 292.398414 -59.678939 
L 295.802929 -59.172038 
L 299.207444 -58.321795 
L 302.611959 -58.549133 
L 306.016473 -58.02347 
L 309.420988 -57.517413 
L 312.825503 -56.748571 
L 316.230018 -56.401163 
L 319.634533 -56.959683 
L 323.039048 -55.698857 
L 326.443563 -55.723143 
L 329.848078 -54.849366 
L 333.252593 -55.397808 
L 336.657108 -54.654499 
L 340.061623 -54.115493 
L 343.466138 -53.835181 
L 346.870653 -53.089659 
L 350.275168 -53.044517 
L 353.679683 -52.67732 
L 357.084198 -52.745515 
L 360.488713 -52.441768 
L 363.893228 -51.860649 
L 367.297743 -51.690335 
L 370.702257 -51.840608 
L 374.106772 -51.545806 
L 377.511287 -50.983097 
L 380.915802 -51.309644 
L 384.320317 -50.839891 
L 387.724832 -50.525902 
L 391.129347 -50.553558 
L 394.533862 -50.008991 
L 397.938377 -49.80954 
L 401.342892 -49.854412 
L 404.747407 -49.444868 
L 408.151922 -49.627981 
L 411.556437 -49.479181 
L 414.960952 -49.381637 
L 418.365467 -49.381722 
L 421.769982 -49.055805 
L 425.174497 -49.31302 
L 428.579012 -49.130683 
L 431.983527 -49.13065 
L 435.388041 -49.397827 
L 438.792556 -48.720228 
L 442.197071 -48.456438 
L 445.601586 -48.355872 
L 449.006101 -48.114887 
L 452.410616 -47.894942 
L 455.815131 -47.844827 
L 459.219646 -47.941917 
L 462.624161 -47.906977 
L 466.028676 -48.037083 
L 469.433191 -47.671701 
L 472.837706 -47.565646 
L 476.242221 -47.627727 
L 479.646736 -47.586917 
L 483.051251 -47.655593 
L 486.455766 -47.39977 
L 489.860281 -47.547962 
L 493.264796 -47.497715 
L 496.669311 -47.632762 
L 500.073826 -47.48608 
L 503.47834 -47.273571 
L 506.882855 -47.367088 
L 510.28737 -47.298131 
L 513.691885 -47.470956 
L 517.0964 -47.485552 
L 520.500915 -47.391603 
L 523.90543 -47.300128 
L 527.309945 -47.37758 
L 530.71446 -48.114246 
L 534.118975 -47.606103 
L 537.52349 -47.57488 
L 540.928005 -47.114889 
L 544.33252 -46.858691 
L 547.737035 -46.723064 
L 551.14155 -46.706009 
L 554.546065 -46.59316 
L 557.95058 -46.628722 
L 561.355095 -46.532951 
L 564.75961 -46.528072 
L 568.164124 -46.411879 
L 571.568639 -46.40489 
L 574.973154 -46.385462 
L 578.377669 -46.34012 
L 581.782184 -46.350883 
L 585.186699 -46.340309 
L 588.591214 -46.289481 
L 591.995729 -46.293912 
L 595.400244 -46.258614 
L 598.804759 -46.28294 
L 602.209274 -46.26753 
L 605.613789 -46.229148 
L 609.018304 -46.205474 
L 612.422819 -46.209484 
L 615.827334 -46.18464 
L 619.231849 -46.17172 
L 622.636364 -46.14636 
L 622.636364 -47.677808 
L 622.636364 -47.677808 
L 619.231849 -47.76799 
L 615.827334 -47.73602 
L 612.422819 -48.127681 
L 609.018304 -48.583125 
L 605.613789 -48.759443 
L 602.209274 -50.215197 
L 598.804759 -50.177636 
L 595.400244 -50.04711 
L 591.995729 -48.557481 
L 588.591214 -48.289206 
L 585.186699 -48.308848 
L 581.782184 -48.00573 
L 578.377669 -48.104011 
L 574.973154 -48.311483 
L 571.568639 -48.300543 
L 568.164124 -49.096891 
L 564.75961 -48.786215 
L 561.355095 -48.94465 
L 557.95058 -49.01542 
L 554.546065 -48.999211 
L 551.14155 -48.742649 
L 547.737035 -48.736183 
L 544.33252 -48.989634 
L 540.928005 -51.164089 
L 537.52349 -53.946107 
L 534.118975 -52.30051 
L 530.71446 -51.730533 
L 527.309945 -51.00743 
L 523.90543 -50.706865 
L 520.500915 -50.496358 
L 517.0964 -50.892407 
L 513.691885 -50.366594 
L 510.28737 -50.302532 
L 506.882855 -50.139476 
L 503.47834 -50.369866 
L 500.073826 -51.063927 
L 496.669311 -50.974556 
L 493.264796 -50.474888 
L 489.860281 -50.586129 
L 486.455766 -50.695537 
L 483.051251 -50.552023 
L 479.646736 -50.823068 
L 476.242221 -50.495666 
L 472.837706 -50.577684 
L 469.433191 -50.455985 
L 466.028676 -50.867669 
L 462.624161 -50.982984 
L 459.219646 -51.257971 
L 455.815131 -51.403899 
L 452.410616 -51.40901 
L 449.006101 -52.374455 
L 445.601586 -52.418287 
L 442.197071 -52.4692 
L 438.792556 -53.074873 
L 435.388041 -54.172428 
L 431.983527 -53.720256 
L 428.579012 -53.146913 
L 425.174497 -54.966415 
L 421.769982 -53.408344 
L 418.365467 -54.262592 
L 414.960952 -53.902586 
L 411.556437 -54.234264 
L 408.151922 -54.578987 
L 404.747407 -54.984728 
L 401.342892 -55.466858 
L 397.938377 -55.118957 
L 394.533862 -55.705173 
L 391.129347 -56.151234 
L 387.724832 -56.351093 
L 384.320317 -56.689792 
L 380.915802 -57.119866 
L 377.511287 -57.057897 
L 374.106772 -56.925855 
L 370.702257 -58.291293 
L 367.297743 -58.792197 
L 363.893228 -59.052171 
L 360.488713 -59.381744 
L 357.084198 -59.986486 
L 353.679683 -59.785303 
L 350.275168 -60.198859 
L 346.870653 -61.169959 
L 343.466138 -61.004448 
L 340.061623 -62.118557 
L 336.657108 -62.54989 
L 333.252593 -63.328885 
L 329.848078 -63.226168 
L 326.443563 -64.616529 
L 323.039048 -64.683865 
L 319.634533 -64.666567 
L 316.230018 -65.531649 
L 312.825503 -66.087049 
L 309.420988 -66.160162 
L 306.016473 -67.241572 
L 302.611959 -67.503637 
L 299.207444 -68.201927 
L 295.802929 -68.70696 
L 292.398414 -69.03503 
L 288.993899 -70.319902 
L 285.589384 -71.40885 
L 282.184869 -71.429146 
L 278.780354 -72.480143 
L 275.375839 -73.448525 
L 271.971324 -73.925166 
L 268.566809 -74.930138 
L 265.162294 -75.907152 
L 261.757779 -76.647205 
L 258.353264 -76.917451 
L 254.948749 -77.419655 
L 251.544234 -78.685636 
L 248.139719 -79.528713 
L 244.735204 -80.372708 
L 241.330689 -81.172066 
L 237.926174 -82.28542 
L 234.52166 -83.684889 
L 231.117145 -84.092265 
L 227.71263 -85.027757 
L 224.308115 -85.893329 
L 220.9036 -86.904188 
L 217.499085 -88.159299 
L 214.09457 -88.976268 
L 210.690055 -90.155151 
L 207.28554 -91.12243 
L 203.881025 -92.258879 
L 200.47651 -92.970885 
L 197.071995 -94.303971 
L 193.66748 -95.707768 
L 190.262965 -96.554699 
L 186.85845 -97.713578 
L 183.453935 -100.009061 
L 180.04942 -101.576858 
L 176.644905 -102.899911 
L 173.24039 -105.253096 
L 169.835876 -106.598247 
L 166.431361 -108.945856 
L 163.026846 -111.395426 
L 159.622331 -113.75784 
L 156.217816 -116.719169 
L 152.813301 -120.191547 
L 149.408786 -123.140912 
L 146.004271 -125.75543 
L 142.599756 -127.655812 
L 139.195241 -130.194751 
L 135.790726 -132.744149 
L 132.386211 -135.033924 
L 128.981696 -137.633461 
L 125.577181 -139.884385 
L 122.172666 -142.046362 
L 118.768151 -143.233997 
L 115.363636 -168.77817 
z
" id="m61bba5efdc" style="stroke:#d62728;stroke-opacity:0.2;"/>
          </defs>
          <g clip-path="url(#p62c8613240)">
              <use style="fill:#d62728;fill-opacity:0.2;stroke:#d62728;stroke-opacity:0.2;" x="0"
                   xlink:href="#m61bba5efdc" y="288"/>
          </g>
      </g>
   <g id="line2d_14">
       <path clip-path="url(#p62c8613240)" d="M 115.363636 91.844358
L 118.768151 161.797102 
L 122.172666 172.33601 
L 125.577181 178.492222 
L 128.981696 183.225311 
L 132.386211 187.541262 
L 139.195241 193.744991 
L 142.599756 196.614988 
L 146.004271 198.989029 
L 149.408786 201.595585 
L 152.813301 203.325386 
L 156.217816 205.465777 
L 159.622331 207.16116 
L 163.026846 209.602833 
L 169.835876 212.659393 
L 173.24039 214.354892 
L 176.644905 215.401976 
L 183.453935 218.836396 
L 186.85845 220.265467 
L 193.66748 222.121323 
L 197.071995 223.466252 
L 203.881025 225.535634 
L 207.28554 226.292311 
L 210.690055 226.910052 
L 214.09457 228.072413 
L 217.499085 228.862122 
L 220.9036 230.019516 
L 224.308115 230.415565 
L 227.71263 231.207162 
L 231.117145 232.113058 
L 234.52166 232.879721 
L 237.926174 233.065317 
L 241.330689 233.670658 
L 244.735204 234.116589 
L 248.139719 234.686791 
L 251.544234 234.593253 
L 258.353264 235.59547 
L 261.757779 235.870234 
L 265.162294 236.018356 
L 268.566809 236.715906 
L 271.971324 236.956991 
L 278.780354 237.76479 
L 282.184869 238.013215 
L 285.589384 238.470821 
L 288.993899 238.458575 
L 292.398414 238.58987 
L 295.802929 239.097364 
L 302.611959 239.443864 
L 309.420988 239.579807 
L 312.825503 239.686847 
L 323.039048 240.291601 
L 326.443563 239.925964 
L 329.848078 239.859255 
L 333.252593 239.652281 
L 336.657108 239.632721 
L 340.061623 240.12108 
L 357.084198 241.110488 
L 360.488713 240.938296 
L 363.893228 239.095135 
L 367.297743 239.905304 
L 370.702257 240.456353 
L 380.915802 241.160286 
L 384.320317 240.962313 
L 391.129347 240.932777 
L 394.533862 241.072093 
L 401.342892 241.536 
L 411.556437 241.679098 
L 452.410616 241.846003 
L 588.591214 242.010563 
L 609.018304 242.011166 
L 612.422819 240.944369 
L 615.827334 230.291943 
L 619.231849 234.766715 
L 622.636364 236.323108 
L 622.636364 236.323108 
" style="fill:none;stroke:#1f77b4;stroke-linecap:round;stroke-width:1.5;"/>
   </g>
   <g id="line2d_15">
       <path clip-path="url(#p62c8613240)" d="M 115.363636 78.489507
L 118.768151 146.263514 
L 122.172666 147.380353 
L 125.577181 149.230657 
L 128.981696 151.856165 
L 132.386211 154.166013 
L 135.790726 156.222106 
L 142.599756 161.279552 
L 149.408786 165.628451 
L 152.813301 167.530897 
L 156.217816 169.183687 
L 159.622331 170.621896 
L 163.026846 171.762498 
L 169.835876 173.561893 
L 176.644905 174.799712 
L 183.453935 176.190111 
L 186.85845 176.518828 
L 190.262965 177.006101 
L 193.66748 177.699637 
L 197.071995 178.102647 
L 200.47651 178.684787 
L 203.881025 178.957303 
L 207.28554 179.509385 
L 220.9036 181.045098 
L 224.308115 181.112259 
L 227.71263 181.651922 
L 231.117145 181.938001 
L 234.52166 182.482703 
L 244.735204 183.364698 
L 248.139719 183.741874 
L 258.353264 184.18659 
L 261.757779 184.591411 
L 265.162294 185.132861 
L 268.566809 186.120378 
L 271.971324 186.355634 
L 275.375839 186.99241 
L 278.780354 187.424198 
L 282.184869 187.496257 
L 288.993899 188.372656 
L 292.398414 189.147389 
L 295.802929 190.050432 
L 299.207444 190.700865 
L 306.016473 191.498445 
L 309.420988 191.647088 
L 312.825503 192.070087 
L 316.230018 192.614552 
L 319.634533 192.969571 
L 323.039048 193.105013 
L 333.252593 194.12144 
L 336.657108 194.113305 
L 340.061623 194.363743 
L 343.466138 194.477845 
L 346.870653 195.091682 
L 350.275168 195.401049 
L 353.679683 195.519145 
L 360.488713 196.385745 
L 363.893228 196.634291 
L 367.297743 196.325538 
L 370.702257 196.570892 
L 374.106772 197.16779 
L 380.915802 197.432027 
L 384.320317 198.05371 
L 391.129347 198.286715 
L 394.533862 198.868981 
L 397.938377 199.269636 
L 401.342892 200.043012 
L 408.151922 200.192926 
L 411.556437 200.437991 
L 414.960952 201.048403 
L 418.365467 201.496014 
L 421.769982 201.827664 
L 425.174497 202.709948 
L 428.579012 203.073826 
L 431.983527 203.772743 
L 442.197071 204.526438 
L 449.006101 205.582382 
L 452.410616 205.544332 
L 459.219646 206.439981 
L 466.028676 206.816656 
L 476.242221 207.660038 
L 479.646736 207.531123 
L 483.051251 208.081457 
L 486.455766 208.797737 
L 493.264796 208.974567 
L 496.669311 209.524523 
L 500.073826 209.672126 
L 506.882855 210.279065 
L 510.28737 210.322706 
L 517.0964 210.919544 
L 520.500915 210.927736 
L 527.309945 211.16108 
L 530.71446 211.743579 
L 534.118975 211.735 
L 537.52349 211.89046 
L 544.33252 211.609706 
L 547.737035 212.560058 
L 551.14155 212.55611 
L 554.546065 212.847386 
L 557.95058 212.59152 
L 561.355095 213.568367 
L 568.164124 213.795475 
L 571.568639 213.569904 
L 574.973154 213.793915 
L 578.377669 214.322966 
L 581.782184 214.451099 
L 591.995729 215.255102 
L 595.400244 215.18725 
L 598.804759 215.263683 
L 602.209274 215.528084 
L 609.018304 215.234544 
L 612.422819 215.99656 
L 615.827334 215.819043 
L 619.231849 215.997585 
L 622.636364 215.819111 
L 622.636364 215.819111 
" style="fill:none;stroke:#ff7f0e;stroke-linecap:round;stroke-width:1.5;"/>
   </g>
   <g id="line2d_16">
       <path clip-path="url(#p62c8613240)" d="M 115.363636 138.000697
L 118.768151 161.082114 
L 125.577181 178.104795 
L 128.981696 183.524282 
L 132.386211 188.65677 
L 139.195241 197.38841 
L 142.599756 200.295941 
L 149.408786 205.719085 
L 152.813301 207.878088 
L 156.217816 210.689516 
L 159.622331 212.429569 
L 163.026846 214.579039 
L 166.431361 216.352832 
L 169.835876 218.313734 
L 173.24039 220.981653 
L 180.04942 224.208586 
L 183.453935 225.695852 
L 186.85845 227.308321 
L 190.262965 228.647889 
L 193.66748 229.456308 
L 197.071995 230.457599 
L 200.47651 231.188338 
L 203.881025 232.527647 
L 207.28554 233.150827 
L 210.690055 234.628867 
L 217.499085 236.219767 
L 220.9036 236.057476 
L 224.308115 236.752035 
L 227.71263 237.648049 
L 231.117145 237.302025 
L 234.52166 238.134165 
L 237.926174 238.586566 
L 241.330689 238.772925 
L 244.735204 239.563112 
L 248.139719 239.786796 
L 251.544234 240.317377 
L 268.566809 241.173647 
L 278.780354 241.469279 
L 323.039048 241.893372 
L 370.702257 242.018114 
L 513.691885 242.099718 
L 622.636364 242.113134 
L 622.636364 242.113134 
" style="fill:none;stroke:#2ca02c;stroke-linecap:round;stroke-width:1.5;"/>
   </g>
   <g id="line2d_17">
       <path clip-path="url(#p62c8613240)" d="M 115.363636 131.706941
L 118.768151 146.047729 
L 122.172666 147.445224 
L 125.577181 149.837576 
L 128.981696 152.540553 
L 132.386211 155.695533 
L 135.790726 159.145117 
L 142.599756 165.541767 
L 146.004271 168.371741 
L 152.813301 174.225003 
L 156.217816 177.589801 
L 163.026846 182.903097 
L 169.835876 187.338727 
L 176.644905 191.541849 
L 180.04942 192.933476 
L 190.262965 197.695146 
L 193.66748 198.682626 
L 200.47651 201.380389 
L 203.881025 202.359292 
L 207.28554 203.221776 
L 214.09457 205.289415 
L 217.499085 205.966304 
L 220.9036 207.234983 
L 224.308115 208.295164 
L 227.71263 209.111707 
L 231.117145 209.77506 
L 234.52166 210.651875 
L 241.330689 212.690131 
L 248.139719 214.10807 
L 251.544234 214.712057 
L 254.948749 215.651531 
L 258.353264 216.40588 
L 261.757779 216.883918 
L 265.162294 217.823104 
L 268.566809 218.334171 
L 275.375839 219.778864 
L 278.780354 220.335415 
L 282.184869 221.438792 
L 285.589384 221.673658 
L 288.993899 222.816685 
L 292.398414 223.417481 
L 295.802929 223.835726 
L 299.207444 224.54265 
L 302.611959 225.025421 
L 306.016473 225.20954 
L 309.420988 226.004996 
L 312.825503 226.272738 
L 316.230018 226.836812 
L 326.443563 227.804392 
L 329.848078 228.882806 
L 333.252593 228.451629 
L 343.466138 230.593207 
L 346.870653 230.804363 
L 350.275168 231.291393 
L 353.679683 231.628448 
L 357.084198 231.704255 
L 363.893228 232.371163 
L 367.297743 232.767352 
L 370.702257 233.021437 
L 374.106772 233.750738 
L 377.511287 233.819329 
L 380.915802 233.707031 
L 387.724832 234.433179 
L 397.938377 235.523942 
L 401.342892 235.427031 
L 404.747407 235.859754 
L 414.960952 236.304227 
L 418.365467 236.179688 
L 421.769982 236.865499 
L 425.174497 236.079931 
L 428.579012 236.98228 
L 431.983527 236.584613 
L 435.388041 236.303445 
L 438.792556 237.146472 
L 442.197071 237.521001 
L 449.006101 237.847234 
L 452.410616 238.383224 
L 455.815131 238.387991 
L 459.219646 238.56924 
L 466.028676 238.58844 
L 469.433191 239.025255 
L 483.051251 238.948041 
L 486.455766 239.095542 
L 493.264796 239.065176 
L 496.669311 238.795138 
L 500.073826 238.856705 
L 503.47834 239.339432 
L 506.882855 239.405742 
L 517.0964 238.879015 
L 520.500915 239.073606 
L 523.90543 239.093048 
L 527.309945 238.851827 
L 530.71446 238.1044 
L 534.118975 238.408247 
L 537.52349 237.809154 
L 540.928005 239.192839 
L 544.33252 240.154589 
L 547.737035 240.375496 
L 554.546065 240.336202 
L 568.164124 240.56144 
L 571.568639 240.854185 
L 578.377669 240.926675 
L 581.782184 240.993989 
L 585.186699 240.862227 
L 588.591214 240.868046 
L 591.995729 240.746603 
L 595.400244 240.16349 
L 598.804759 240.061163 
L 602.209274 240.125318 
L 605.613789 240.69025 
L 609.018304 240.80037 
L 615.827334 241.188228 
L 622.636364 241.259411 
L 622.636364 241.259411 
" style="fill:none;stroke:#d62728;stroke-linecap:round;stroke-width:1.5;"/>
   </g>
   <g id="line2d_18"/>
   <g id="line2d_19"/>
   <g id="line2d_20"/>
   <g id="line2d_21"/>
   <g id="line2d_22"/>
   <g id="patch_3">
       <path d="M 90 252
L 90 34.56 
" style="fill:none;stroke:#cccccc;stroke-linecap:square;stroke-linejoin:miter;stroke-width:0.8;"/>
   </g>
   <g id="patch_4">
       <path d="M 648 252
L 648 34.56 
" style="fill:none;stroke:#cccccc;stroke-linecap:square;stroke-linejoin:miter;stroke-width:0.8;"/>
   </g>
   <g id="patch_5">
       <path d="M 90 252
L 648 252 
" style="fill:none;stroke:#cccccc;stroke-linecap:square;stroke-linejoin:miter;stroke-width:0.8;"/>
   </g>
   <g id="patch_6">
       <path d="M 90 34.56
L 648 34.56 
" style="fill:none;stroke:#cccccc;stroke-linecap:square;stroke-linejoin:miter;stroke-width:0.8;"/>
   </g>
   <g id="text_16">
    <!-- Loss (train) -->
    <defs>
     <path d="M 9.8125 72.90625 
L 19.671875 72.90625 
L 19.671875 8.296875 
L 55.171875 8.296875 
L 55.171875 0 
L 9.8125 0 
z
" id="DejaVuSans-76"/>
     <path id="DejaVuSans-32"/>
     <path d="M 31 75.875 
Q 24.46875 64.65625 21.28125 53.65625 
Q 18.109375 42.671875 18.109375 31.390625 
Q 18.109375 20.125 21.3125 9.0625 
Q 24.515625 -2 31 -13.1875 
L 23.1875 -13.1875 
Q 15.875 -1.703125 12.234375 9.375 
Q 8.59375 20.453125 8.59375 31.390625 
Q 8.59375 42.28125 12.203125 53.3125 
Q 15.828125 64.359375 23.1875 75.875 
z
" id="DejaVuSans-40"/>
     <path d="M 18.3125 70.21875 
L 18.3125 54.6875 
L 36.8125 54.6875 
L 36.8125 47.703125 
L 18.3125 47.703125 
L 18.3125 18.015625 
Q 18.3125 11.328125 20.140625 9.421875 
Q 21.96875 7.515625 27.59375 7.515625 
L 36.8125 7.515625 
L 36.8125 0 
L 27.59375 0 
Q 17.1875 0 13.234375 3.875 
Q 9.28125 7.765625 9.28125 18.015625 
L 9.28125 47.703125 
L 2.6875 47.703125 
L 2.6875 54.6875 
L 9.28125 54.6875 
L 9.28125 70.21875 
z
" id="DejaVuSans-116"/>
     <path d="M 41.109375 46.296875 
Q 39.59375 47.171875 37.8125 47.578125 
Q 36.03125 48 33.890625 48 
Q 26.265625 48 22.1875 43.046875 
Q 18.109375 38.09375 18.109375 28.8125 
L 18.109375 0 
L 9.078125 0 
L 9.078125 54.6875 
L 18.109375 54.6875 
L 18.109375 46.1875 
Q 20.953125 51.171875 25.484375 53.578125 
Q 30.03125 56 36.53125 56 
Q 37.453125 56 38.578125 55.875 
Q 39.703125 55.765625 41.0625 55.515625 
z
" id="DejaVuSans-114"/>
     <path d="M 34.28125 27.484375 
Q 23.390625 27.484375 19.1875 25 
Q 14.984375 22.515625 14.984375 16.5 
Q 14.984375 11.71875 18.140625 8.90625 
Q 21.296875 6.109375 26.703125 6.109375 
Q 34.1875 6.109375 38.703125 11.40625 
Q 43.21875 16.703125 43.21875 25.484375 
L 43.21875 27.484375 
z
M 52.203125 31.203125 
L 52.203125 0 
L 43.21875 0 
L 43.21875 8.296875 
Q 40.140625 3.328125 35.546875 0.953125 
Q 30.953125 -1.421875 24.3125 -1.421875 
Q 15.921875 -1.421875 10.953125 3.296875 
Q 6 8.015625 6 15.921875 
Q 6 25.140625 12.171875 29.828125 
Q 18.359375 34.515625 30.609375 34.515625 
L 43.21875 34.515625 
L 43.21875 35.40625 
Q 43.21875 41.609375 39.140625 45 
Q 35.0625 48.390625 27.6875 48.390625 
Q 23 48.390625 18.546875 47.265625 
Q 14.109375 46.140625 10.015625 43.890625 
L 10.015625 52.203125 
Q 14.9375 54.109375 19.578125 55.046875 
Q 24.21875 56 28.609375 56 
Q 40.484375 56 46.34375 49.84375 
Q 52.203125 43.703125 52.203125 31.203125 
z
" id="DejaVuSans-97"/>
     <path d="M 9.421875 54.6875 
L 18.40625 54.6875 
L 18.40625 0 
L 9.421875 0 
z
M 9.421875 75.984375 
L 18.40625 75.984375 
L 18.40625 64.59375 
L 9.421875 64.59375 
z
" id="DejaVuSans-105"/>
     <path d="M 54.890625 33.015625 
L 54.890625 0 
L 45.90625 0 
L 45.90625 32.71875 
Q 45.90625 40.484375 42.875 44.328125 
Q 39.84375 48.1875 33.796875 48.1875 
Q 26.515625 48.1875 22.3125 43.546875 
Q 18.109375 38.921875 18.109375 30.90625 
L 18.109375 0 
L 9.078125 0 
L 9.078125 54.6875 
L 18.109375 54.6875 
L 18.109375 46.1875 
Q 21.34375 51.125 25.703125 53.5625 
Q 30.078125 56 35.796875 56 
Q 45.21875 56 50.046875 50.171875 
Q 54.890625 44.34375 54.890625 33.015625 
z
" id="DejaVuSans-110"/>
     <path d="M 8.015625 75.875 
L 15.828125 75.875 
Q 23.140625 64.359375 26.78125 53.3125 
Q 30.421875 42.28125 30.421875 31.390625 
Q 30.421875 20.453125 26.78125 9.375 
Q 23.140625 -1.703125 15.828125 -13.1875 
L 8.015625 -13.1875 
Q 14.5 -2 17.703125 9.0625 
Q 20.90625 20.125 20.90625 31.390625 
Q 20.90625 42.671875 17.703125 53.65625 
Q 14.5 64.65625 8.015625 75.875 
z
" id="DejaVuSans-41"/>
    </defs>
       <g style="fill:#262626;" transform="translate(335.181562 28.56)scale(0.12 -0.12)">
     <use xlink:href="#DejaVuSans-76"/>
     <use x="55.697266" xlink:href="#DejaVuSans-111"/>
     <use x="116.878906" xlink:href="#DejaVuSans-115"/>
     <use x="168.978516" xlink:href="#DejaVuSans-115"/>
     <use x="221.078125" xlink:href="#DejaVuSans-32"/>
     <use x="252.865234" xlink:href="#DejaVuSans-40"/>
     <use x="291.878906" xlink:href="#DejaVuSans-116"/>
     <use x="331.087891" xlink:href="#DejaVuSans-114"/>
     <use x="372.201172" xlink:href="#DejaVuSans-97"/>
     <use x="433.480469" xlink:href="#DejaVuSans-105"/>
     <use x="461.263672" xlink:href="#DejaVuSans-110"/>
     <use x="524.642578" xlink:href="#DejaVuSans-41"/>
    </g>
   </g>
   <g id="legend_1">
    <g id="patch_7">
        <path d="M 563.670313 116.506875
L 641 116.506875 
Q 643 116.506875 643 114.506875 
L 643 41.56 
Q 643 39.56 641 39.56 
L 563.670313 39.56 
Q 561.670313 39.56 561.670313 41.56 
L 561.670313 114.506875 
Q 561.670313 116.506875 563.670313 116.506875 
z
" style="fill:#ffffff;opacity:0.8;stroke:#cccccc;stroke-linejoin:miter;"/>
    </g>
    <g id="line2d_23">
        <path d="M 565.670313 47.658437
L 585.670313 47.658437 
" style="fill:none;"/>
    </g>
    <g id="line2d_24"/>
    <g id="text_17">
     <!-- model -->
     <defs>
      <path d="M 52 44.1875 
Q 55.375 50.25 60.0625 53.125 
Q 64.75 56 71.09375 56 
Q 79.640625 56 84.28125 50.015625 
Q 88.921875 44.046875 88.921875 33.015625 
L 88.921875 0 
L 79.890625 0 
L 79.890625 32.71875 
Q 79.890625 40.578125 77.09375 44.375 
Q 74.3125 48.1875 68.609375 48.1875 
Q 61.625 48.1875 57.5625 43.546875 
Q 53.515625 38.921875 53.515625 30.90625 
L 53.515625 0 
L 44.484375 0 
L 44.484375 32.71875 
Q 44.484375 40.625 41.703125 44.40625 
Q 38.921875 48.1875 33.109375 48.1875 
Q 26.21875 48.1875 22.15625 43.53125 
Q 18.109375 38.875 18.109375 30.90625 
L 18.109375 0 
L 9.078125 0 
L 9.078125 54.6875 
L 18.109375 54.6875 
L 18.109375 46.1875 
Q 21.1875 51.21875 25.484375 53.609375 
Q 29.78125 56 35.6875 56 
Q 41.65625 56 45.828125 52.96875 
Q 50 49.953125 52 44.1875 
z
" id="DejaVuSans-109"/>
      <path d="M 45.40625 46.390625 
L 45.40625 75.984375 
L 54.390625 75.984375 
L 54.390625 0 
L 45.40625 0 
L 45.40625 8.203125 
Q 42.578125 3.328125 38.25 0.953125 
Q 33.9375 -1.421875 27.875 -1.421875 
Q 17.96875 -1.421875 11.734375 6.484375 
Q 5.515625 14.40625 5.515625 27.296875 
Q 5.515625 40.1875 11.734375 48.09375 
Q 17.96875 56 27.875 56 
Q 33.9375 56 38.25 53.625 
Q 42.578125 51.265625 45.40625 46.390625 
z
M 14.796875 27.296875 
Q 14.796875 17.390625 18.875 11.75 
Q 22.953125 6.109375 30.078125 6.109375 
Q 37.203125 6.109375 41.296875 11.75 
Q 45.40625 17.390625 45.40625 27.296875 
Q 45.40625 37.203125 41.296875 42.84375 
Q 37.203125 48.484375 30.078125 48.484375 
Q 22.953125 48.484375 18.875 42.84375 
Q 14.796875 37.203125 14.796875 27.296875 
z
" id="DejaVuSans-100"/>
     </defs>
        <g style="fill:#262626;" transform="translate(593.670313 51.158437)scale(0.1 -0.1)">
      <use xlink:href="#DejaVuSans-109"/>
      <use x="97.412109" xlink:href="#DejaVuSans-111"/>
      <use x="158.59375" xlink:href="#DejaVuSans-100"/>
      <use x="222.070312" xlink:href="#DejaVuSans-101"/>
      <use x="283.59375" xlink:href="#DejaVuSans-108"/>
     </g>
    </g>
    <g id="line2d_25">
        <path d="M 565.670313 62.336562
L 585.670313 62.336562 
" style="fill:none;stroke:#1f77b4;stroke-linecap:round;stroke-width:1.5;"/>
    </g>
    <g id="line2d_26"/>
    <g id="text_18">
     <!-- FC -->
     <defs>
      <path d="M 9.8125 72.90625 
L 51.703125 72.90625 
L 51.703125 64.59375 
L 19.671875 64.59375 
L 19.671875 43.109375 
L 48.578125 43.109375 
L 48.578125 34.8125 
L 19.671875 34.8125 
L 19.671875 0 
L 9.8125 0 
z
" id="DejaVuSans-70"/>
      <path d="M 64.40625 67.28125 
L 64.40625 56.890625 
Q 59.421875 61.53125 53.78125 63.8125 
Q 48.140625 66.109375 41.796875 66.109375 
Q 29.296875 66.109375 22.65625 58.46875 
Q 16.015625 50.828125 16.015625 36.375 
Q 16.015625 21.96875 22.65625 14.328125 
Q 29.296875 6.6875 41.796875 6.6875 
Q 48.140625 6.6875 53.78125 8.984375 
Q 59.421875 11.28125 64.40625 15.921875 
L 64.40625 5.609375 
Q 59.234375 2.09375 53.4375 0.328125 
Q 47.65625 -1.421875 41.21875 -1.421875 
Q 24.65625 -1.421875 15.125 8.703125 
Q 5.609375 18.84375 5.609375 36.375 
Q 5.609375 53.953125 15.125 64.078125 
Q 24.65625 74.21875 41.21875 74.21875 
Q 47.75 74.21875 53.53125 72.484375 
Q 59.328125 70.75 64.40625 67.28125 
z
" id="DejaVuSans-67"/>
     </defs>
        <g style="fill:#262626;" transform="translate(593.670313 65.836562)scale(0.1 -0.1)">
      <use xlink:href="#DejaVuSans-70"/>
      <use x="57.519531" xlink:href="#DejaVuSans-67"/>
     </g>
    </g>
    <g id="line2d_27">
        <path d="M 565.670313 77.014687
L 585.670313 77.014687 
" style="fill:none;stroke:#ff7f0e;stroke-linecap:round;stroke-width:1.5;"/>
    </g>
    <g id="line2d_28"/>
    <g id="text_19">
     <!-- FC_aux -->
     <defs>
      <path d="M 50.984375 -16.609375 
L 50.984375 -23.578125 
L -0.984375 -23.578125 
L -0.984375 -16.609375 
z
" id="DejaVuSans-95"/>
      <path d="M 8.5 21.578125 
L 8.5 54.6875 
L 17.484375 54.6875 
L 17.484375 21.921875 
Q 17.484375 14.15625 20.5 10.265625 
Q 23.53125 6.390625 29.59375 6.390625 
Q 36.859375 6.390625 41.078125 11.03125 
Q 45.3125 15.671875 45.3125 23.6875 
L 45.3125 54.6875 
L 54.296875 54.6875 
L 54.296875 0 
L 45.3125 0 
L 45.3125 8.40625 
Q 42.046875 3.421875 37.71875 1 
Q 33.40625 -1.421875 27.6875 -1.421875 
Q 18.265625 -1.421875 13.375 4.4375 
Q 8.5 10.296875 8.5 21.578125 
z
M 31.109375 56 
z
" id="DejaVuSans-117"/>
      <path d="M 54.890625 54.6875 
L 35.109375 28.078125 
L 55.90625 0 
L 45.3125 0 
L 29.390625 21.484375 
L 13.484375 0 
L 2.875 0 
L 24.125 28.609375 
L 4.6875 54.6875 
L 15.28125 54.6875 
L 29.78125 35.203125 
L 44.28125 54.6875 
z
" id="DejaVuSans-120"/>
     </defs>
        <g style="fill:#262626;" transform="translate(593.670313 80.514687)scale(0.1 -0.1)">
      <use xlink:href="#DejaVuSans-70"/>
      <use x="57.519531" xlink:href="#DejaVuSans-67"/>
      <use x="127.34375" xlink:href="#DejaVuSans-95"/>
      <use x="177.34375" xlink:href="#DejaVuSans-97"/>
      <use x="238.623047" xlink:href="#DejaVuSans-117"/>
      <use x="302.001953" xlink:href="#DejaVuSans-120"/>
     </g>
    </g>
    <g id="line2d_29">
        <path d="M 565.670313 91.970937
L 585.670313 91.970937 
" style="fill:none;stroke:#2ca02c;stroke-linecap:round;stroke-width:1.5;"/>
    </g>
    <g id="line2d_30"/>
    <g id="text_20">
     <!-- CNN -->
     <defs>
      <path d="M 9.8125 72.90625 
L 23.09375 72.90625 
L 55.421875 11.921875 
L 55.421875 72.90625 
L 64.984375 72.90625 
L 64.984375 0 
L 51.703125 0 
L 19.390625 60.984375 
L 19.390625 0 
L 9.8125 0 
z
" id="DejaVuSans-78"/>
     </defs>
        <g style="fill:#262626;" transform="translate(593.670313 95.470937)scale(0.1 -0.1)">
      <use xlink:href="#DejaVuSans-67"/>
      <use x="69.824219" xlink:href="#DejaVuSans-78"/>
      <use x="144.628906" xlink:href="#DejaVuSans-78"/>
     </g>
    </g>
    <g id="line2d_31">
        <path d="M 565.670313 106.649062
L 585.670313 106.649062 
" style="fill:none;stroke:#d62728;stroke-linecap:round;stroke-width:1.5;"/>
    </g>
    <g id="line2d_32"/>
    <g id="text_21">
     <!-- CNN_aux -->
        <g style="fill:#262626;" transform="translate(593.670313 110.149062)scale(0.1 -0.1)">
      <use xlink:href="#DejaVuSans-67"/>
      <use x="69.824219" xlink:href="#DejaVuSans-78"/>
      <use x="144.628906" xlink:href="#DejaVuSans-78"/>
      <use x="219.433594" xlink:href="#DejaVuSans-95"/>
      <use x="269.433594" xlink:href="#DejaVuSans-97"/>
      <use x="330.712891" xlink:href="#DejaVuSans-117"/>
      <use x="394.091797" xlink:href="#DejaVuSans-120"/>
     </g>
    </g>
   </g>
  </g>
 </g>
 <defs>
     <clipPath id="p62c8613240">
         <rect height="217.44" width="558" x="90" y="34.56"/>
  </clipPath>
 </defs>
</svg>
