<?xml version="1.0" encoding="utf-8" standalone="no"?>
<!DOCTYPE svg PUBLIC "-//W3C//DTD SVG 1.1//EN"
  "http://www.w3.org/Graphics/SVG/1.1/DTD/svg11.dtd">
<!-- Created with matplotlib (https://matplotlib.org/) -->
<svg height="648pt" version="1.1" viewBox="0 0 1152 648" width="1152pt" xmlns="http://www.w3.org/2000/svg" xmlns:xlink="http://www.w3.org/1999/xlink">
 <defs>
  <style type="text/css">
*{stroke-linecap:butt;stroke-linejoin:round;}
  </style>
 </defs>
 <g id="figure_1">
  <g id="patch_1">
   <path d="M 0 648 
L 1152 648 
L 1152 0 
L 0 0 
z
" style="fill:#ffffff;"/>
  </g>
  <g id="axes_1">
   <g id="patch_2">
    <path d="M 144 567 
L 1036.8 567 
L 1036.8 77.76 
L 144 77.76 
z
" style="fill:#ffffff;"/>
   </g>
   <g id="PolyCollection_1">
    <defs>
     <path d="M 184.581818 -498.488113 
L 184.581818 -384.368567 
L 190.029042 -275.01169 
L 195.476266 -251.237795 
L 200.92349 -237.675338 
L 206.370714 -227.693337 
L 211.817938 -217.977916 
L 217.265162 -210.819952 
L 222.712386 -203.384179 
L 228.15961 -197.141736 
L 233.606833 -191.946302 
L 239.054057 -185.990383 
L 244.501281 -182.13471 
L 249.948505 -175.985632 
L 255.395729 -172.40679 
L 260.842953 -167.269717 
L 266.290177 -163.77704 
L 271.737401 -159.829934 
L 277.184625 -156.53786 
L 282.631849 -154.038313 
L 288.079073 -150.335878 
L 293.526297 -145.238302 
L 298.97352 -142.933085 
L 304.420744 -140.354332 
L 309.867968 -138.943026 
L 315.315192 -136.627071 
L 320.762416 -132.874275 
L 326.20964 -131.261243 
L 331.656864 -130.358975 
L 337.104088 -127.652872 
L 342.551312 -125.933291 
L 347.998536 -124.355572 
L 353.44576 -122.371065 
L 358.892984 -121.53875 
L 364.340207 -119.796272 
L 369.787431 -118.432088 
L 375.234655 -117.338913 
L 380.681879 -115.989721 
L 386.129103 -114.826195 
L 391.576327 -115.260895 
L 397.023551 -113.781629 
L 402.470775 -114.37018 
L 407.917999 -113.261079 
L 413.365223 -112.396831 
L 418.812447 -111.461774 
L 424.259671 -111.293058 
L 429.706894 -109.98396 
L 435.154118 -109.677009 
L 440.601342 -108.884799 
L 446.048566 -108.151559 
L 451.49579 -107.794516 
L 456.943014 -107.533134 
L 462.390238 -107.233096 
L 467.837462 -106.898279 
L 473.284686 -106.693425 
L 478.73191 -106.775949 
L 484.179134 -106.29437 
L 489.626358 -105.990861 
L 495.073581 -106.109107 
L 500.520805 -105.93305 
L 505.968029 -105.674368 
L 511.415253 -105.503033 
L 516.862477 -105.300193 
L 522.309701 -105.213094 
L 527.756925 -105.182132 
L 533.204149 -104.998215 
L 538.651373 -105.050979 
L 544.098597 -104.864676 
L 549.545821 -104.778528 
L 554.993045 -104.762467 
L 560.440268 -104.69229 
L 565.887492 -104.598595 
L 571.334716 -104.568206 
L 576.78194 -104.58876 
L 582.229164 -104.629401 
L 587.676388 -104.529273 
L 593.123612 -104.506212 
L 598.570836 -104.352115 
L 604.01806 -104.401052 
L 609.465284 -104.296152 
L 614.912508 -104.308612 
L 620.359732 -104.193304 
L 625.806955 -104.04194 
L 631.254179 -103.965428 
L 636.701403 -103.98312 
L 642.148627 -103.945026 
L 647.595851 -103.923948 
L 653.043075 -103.882854 
L 658.490299 -103.855112 
L 663.937523 -103.812323 
L 669.384747 -103.812422 
L 674.831971 -103.778861 
L 680.279195 -103.760074 
L 685.726419 -103.748685 
L 691.173642 -103.735785 
L 696.620866 -103.694245 
L 702.06809 -103.694149 
L 707.515314 -103.669173 
L 712.962538 -103.651846 
L 718.409762 -103.622105 
L 723.856986 -103.629091 
L 729.30421 -103.608231 
L 734.751434 -103.589121 
L 740.198658 -103.572539 
L 745.645882 -103.551512 
L 751.093106 -103.55069 
L 756.540329 -103.546917 
L 761.987553 -103.519712 
L 767.434777 -103.527341 
L 772.882001 -103.500945 
L 778.329225 -103.509286 
L 783.776449 -103.497537 
L 789.223673 -103.485585 
L 794.670897 -103.477176 
L 800.118121 -103.468336 
L 805.565345 -103.471296 
L 811.012569 -103.460961 
L 816.459793 -103.448489 
L 821.907016 -103.457635 
L 827.35424 -103.435246 
L 832.801464 -103.428885 
L 838.248688 -103.427279 
L 843.695912 -103.426107 
L 849.143136 -103.420679 
L 854.59036 -103.406059 
L 860.037584 -103.404951 
L 865.484808 -103.411708 
L 870.932032 -103.40234 
L 876.379256 -103.397922 
L 881.82648 -103.386283 
L 887.273703 -103.385897 
L 892.720927 -103.3791 
L 898.168151 -103.374241 
L 903.615375 -103.370492 
L 909.062599 -103.369531 
L 914.509823 -103.362233 
L 919.957047 -103.364267 
L 925.404271 -103.360062 
L 930.851495 -103.352441 
L 936.298719 -103.348624 
L 941.745943 -103.343691 
L 947.193167 -103.345957 
L 952.64039 -103.342376 
L 958.087614 -103.3431 
L 963.534838 -103.333916 
L 968.982062 -103.335681 
L 974.429286 -103.332889 
L 979.87651 -103.331486 
L 985.323734 -103.331763 
L 990.770958 -103.322352 
L 996.218182 -103.317165 
L 996.218182 -141.690019 
L 996.218182 -141.690019 
L 990.770958 -152.117452 
L 985.323734 -182.076037 
L 979.87651 -110.729365 
L 974.429286 -103.658497 
L 968.982062 -103.637234 
L 963.534838 -103.61951 
L 958.087614 -103.640529 
L 952.64039 -103.62948 
L 947.193167 -103.652472 
L 941.745943 -103.654591 
L 936.298719 -103.649084 
L 930.851495 -103.635294 
L 925.404271 -103.668501 
L 919.957047 -103.659628 
L 914.509823 -103.666188 
L 909.062599 -103.682784 
L 903.615375 -103.688887 
L 898.168151 -103.693989 
L 892.720927 -103.69627 
L 887.273703 -103.70675 
L 881.82648 -103.704953 
L 876.379256 -103.706491 
L 870.932032 -103.74082 
L 865.484808 -103.740071 
L 860.037584 -103.747954 
L 854.59036 -103.761458 
L 849.143136 -103.752533 
L 843.695912 -103.756383 
L 838.248688 -103.775652 
L 832.801464 -103.765147 
L 827.35424 -103.78699 
L 821.907016 -103.803289 
L 816.459793 -103.800783 
L 811.012569 -103.814699 
L 805.565345 -103.821775 
L 800.118121 -103.850242 
L 794.670897 -103.851304 
L 789.223673 -103.88689 
L 783.776449 -103.879039 
L 778.329225 -103.910871 
L 772.882001 -103.92355 
L 767.434777 -103.94364 
L 761.987553 -103.939778 
L 756.540329 -103.982534 
L 751.093106 -103.999085 
L 745.645882 -103.995635 
L 740.198658 -104.031713 
L 734.751434 -104.03359 
L 729.30421 -104.058782 
L 723.856986 -104.08419 
L 718.409762 -104.114869 
L 712.962538 -104.14861 
L 707.515314 -104.178434 
L 702.06809 -104.196062 
L 696.620866 -104.246256 
L 691.173642 -104.291058 
L 685.726419 -104.366981 
L 680.279195 -104.380316 
L 674.831971 -104.44185 
L 669.384747 -104.556102 
L 663.937523 -104.518478 
L 658.490299 -104.583656 
L 653.043075 -104.697411 
L 647.595851 -104.853131 
L 642.148627 -105.232394 
L 636.701403 -106.312663 
L 631.254179 -108.122431 
L 625.806955 -108.868521 
L 620.359732 -109.007405 
L 614.912508 -107.740663 
L 609.465284 -106.679464 
L 604.01806 -107.602103 
L 598.570836 -109.688172 
L 593.123612 -111.134606 
L 587.676388 -114.457831 
L 582.229164 -119.865242 
L 576.78194 -107.359043 
L 571.334716 -106.614985 
L 565.887492 -107.023364 
L 560.440268 -107.689051 
L 554.993045 -108.719363 
L 549.545821 -110.931541 
L 544.098597 -111.95047 
L 538.651373 -114.764578 
L 533.204149 -114.106479 
L 527.756925 -112.232328 
L 522.309701 -111.50667 
L 516.862477 -109.527302 
L 511.415253 -109.941856 
L 505.968029 -110.795014 
L 500.520805 -111.955349 
L 495.073581 -112.625405 
L 489.626358 -112.427921 
L 484.179134 -112.708553 
L 478.73191 -113.047422 
L 473.284686 -113.832584 
L 467.837462 -116.529264 
L 462.390238 -116.308252 
L 456.943014 -115.751632 
L 451.49579 -118.018676 
L 446.048566 -118.542347 
L 440.601342 -119.758339 
L 435.154118 -120.936918 
L 429.706894 -120.773222 
L 424.259671 -122.769285 
L 418.812447 -122.979734 
L 413.365223 -123.333732 
L 407.917999 -125.220672 
L 402.470775 -126.541601 
L 397.023551 -126.048702 
L 391.576327 -127.78736 
L 386.129103 -129.344061 
L 380.681879 -131.469131 
L 375.234655 -131.055872 
L 369.787431 -132.99708 
L 364.340207 -135.533538 
L 358.892984 -137.64334 
L 353.44576 -138.458 
L 347.998536 -141.56013 
L 342.551312 -142.757711 
L 337.104088 -146.247044 
L 331.656864 -147.007736 
L 326.20964 -149.79021 
L 320.762416 -151.343168 
L 315.315192 -153.683427 
L 309.867968 -157.401353 
L 304.420744 -158.587577 
L 298.97352 -161.281704 
L 293.526297 -164.885417 
L 288.079073 -167.616155 
L 282.631849 -171.802427 
L 277.184625 -173.574406 
L 271.737401 -178.133183 
L 266.290177 -180.870808 
L 260.842953 -184.418558 
L 255.395729 -189.751528 
L 249.948505 -193.070726 
L 244.501281 -197.898433 
L 239.054057 -202.050927 
L 233.606833 -207.294698 
L 228.15961 -212.75129 
L 222.712386 -219.172801 
L 217.265162 -226.079019 
L 211.817938 -233.031564 
L 206.370714 -243.057865 
L 200.92349 -253.531885 
L 195.476266 -268.338046 
L 190.029042 -290.456084 
L 184.581818 -498.488113 
z
" id="mc5bcd1a260" style="stroke:#1f77b4;stroke-opacity:0.2;"/>
    </defs>
    <g clip-path="url(#pefd50422b1)">
     <use style="fill:#1f77b4;fill-opacity:0.2;stroke:#1f77b4;stroke-opacity:0.2;" x="0" xlink:href="#mc5bcd1a260" y="648"/>
    </g>
   </g>
   <g id="PolyCollection_2">
    <defs>
     <path d="M 184.581818 -548.001818 
L 184.581818 -403.126513 
L 190.029042 -315.25247 
L 195.476266 -308.757519 
L 200.92349 -301.919931 
L 206.370714 -294.826748 
L 211.817938 -287.703143 
L 217.265162 -281.776878 
L 222.712386 -275.545351 
L 228.15961 -269.565171 
L 233.606833 -264.754479 
L 239.054057 -260.670189 
L 244.501281 -254.561639 
L 249.948505 -250.836762 
L 255.395729 -248.014906 
L 260.842953 -245.085733 
L 266.290177 -242.86516 
L 271.737401 -241.500419 
L 277.184625 -239.216753 
L 282.631849 -238.429204 
L 288.079073 -236.029019 
L 293.526297 -234.353593 
L 298.97352 -233.663347 
L 304.420744 -230.907133 
L 309.867968 -230.186457 
L 315.315192 -230.356941 
L 320.762416 -226.773273 
L 326.20964 -225.732905 
L 331.656864 -224.298772 
L 337.104088 -223.740835 
L 342.551312 -222.183208 
L 347.998536 -219.542951 
L 353.44576 -220.266083 
L 358.892984 -219.090387 
L 364.340207 -218.546541 
L 369.787431 -216.93425 
L 375.234655 -214.952471 
L 380.681879 -215.729249 
L 386.129103 -214.912739 
L 391.576327 -212.81437 
L 397.023551 -212.821432 
L 402.470775 -210.883482 
L 407.917999 -211.671601 
L 413.365223 -209.985184 
L 418.812447 -209.298019 
L 424.259671 -208.695786 
L 429.706894 -207.083249 
L 435.154118 -205.711137 
L 440.601342 -204.429412 
L 446.048566 -204.012571 
L 451.49579 -204.255094 
L 456.943014 -203.624422 
L 462.390238 -202.81203 
L 467.837462 -200.692101 
L 473.284686 -198.891848 
L 478.73191 -195.29191 
L 484.179134 -194.70376 
L 489.626358 -193.721359 
L 495.073581 -192.804354 
L 500.520805 -193.622009 
L 505.968029 -189.559452 
L 511.415253 -191.958513 
L 516.862477 -189.771164 
L 522.309701 -188.842887 
L 527.756925 -188.380652 
L 533.204149 -186.296945 
L 538.651373 -185.994482 
L 544.098597 -186.312703 
L 549.545821 -185.498288 
L 554.993045 -185.065962 
L 560.440268 -183.89942 
L 565.887492 -182.697578 
L 571.334716 -182.842881 
L 576.78194 -181.563477 
L 582.229164 -180.984875 
L 587.676388 -181.831216 
L 593.123612 -180.647849 
L 598.570836 -178.36998 
L 604.01806 -178.602541 
L 609.465284 -178.426177 
L 614.912508 -178.196271 
L 620.359732 -177.337077 
L 625.806955 -177.983167 
L 631.254179 -175.597419 
L 636.701403 -176.205144 
L 642.148627 -172.975211 
L 647.595851 -172.596617 
L 653.043075 -174.008456 
L 658.490299 -171.880751 
L 663.937523 -171.462712 
L 669.384747 -171.541552 
L 674.831971 -172.029265 
L 680.279195 -170.866042 
L 685.726419 -170.053149 
L 691.173642 -167.933955 
L 696.620866 -167.586928 
L 702.06809 -168.000454 
L 707.515314 -167.507599 
L 712.962538 -165.144835 
L 718.409762 -165.698495 
L 723.856986 -165.225989 
L 729.30421 -164.332385 
L 734.751434 -164.190149 
L 740.198658 -163.324497 
L 745.645882 -162.360785 
L 751.093106 -163.204813 
L 756.540329 -163.345456 
L 761.987553 -162.689692 
L 767.434777 -164.04049 
L 772.882001 -162.503139 
L 778.329225 -160.59498 
L 783.776449 -159.251655 
L 789.223673 -159.561792 
L 794.670897 -159.803622 
L 800.118121 -156.841905 
L 805.565345 -158.137868 
L 811.012569 -159.578213 
L 816.459793 -157.400596 
L 821.907016 -157.551432 
L 827.35424 -155.779589 
L 832.801464 -156.514817 
L 838.248688 -156.348767 
L 843.695912 -155.114015 
L 849.143136 -155.062843 
L 854.59036 -155.793924 
L 860.037584 -157.57472 
L 865.484808 -156.478898 
L 870.932032 -155.846295 
L 876.379256 -153.627813 
L 881.82648 -153.416959 
L 887.273703 -154.24082 
L 892.720927 -154.280424 
L 898.168151 -150.95088 
L 903.615375 -151.666673 
L 909.062599 -151.027533 
L 914.509823 -152.20473 
L 919.957047 -150.657767 
L 925.404271 -150.459146 
L 930.851495 -149.91083 
L 936.298719 -149.957988 
L 941.745943 -149.694779 
L 947.193167 -147.190884 
L 952.64039 -149.409905 
L 958.087614 -147.323502 
L 963.534838 -147.611638 
L 968.982062 -148.333049 
L 974.429286 -147.568445 
L 979.87651 -146.862581 
L 985.323734 -147.336915 
L 990.770958 -146.988162 
L 996.218182 -148.141103 
L 996.218182 -174.697123 
L 996.218182 -174.697123 
L 990.770958 -176.023134 
L 985.323734 -175.841134 
L 979.87651 -175.437366 
L 974.429286 -176.608099 
L 968.982062 -178.684122 
L 963.534838 -178.284781 
L 958.087614 -177.955081 
L 952.64039 -177.030816 
L 947.193167 -178.406152 
L 941.745943 -180.525859 
L 936.298719 -178.594191 
L 930.851495 -179.832736 
L 925.404271 -178.914882 
L 919.957047 -181.187415 
L 914.509823 -181.19658 
L 909.062599 -181.724594 
L 903.615375 -181.888828 
L 898.168151 -182.297771 
L 892.720927 -184.196881 
L 887.273703 -183.381973 
L 881.82648 -185.48411 
L 876.379256 -184.178321 
L 870.932032 -187.147991 
L 865.484808 -185.574572 
L 860.037584 -187.244735 
L 854.59036 -186.75494 
L 849.143136 -188.655405 
L 843.695912 -189.173306 
L 838.248688 -190.029632 
L 832.801464 -188.635399 
L 827.35424 -188.767533 
L 821.907016 -189.979384 
L 816.459793 -192.104144 
L 811.012569 -191.027477 
L 805.565345 -193.199095 
L 800.118121 -193.24054 
L 794.670897 -193.190752 
L 789.223673 -193.584675 
L 783.776449 -194.818164 
L 778.329225 -194.363702 
L 772.882001 -196.649722 
L 767.434777 -197.829902 
L 761.987553 -198.057725 
L 756.540329 -197.935204 
L 751.093106 -199.700078 
L 745.645882 -201.474616 
L 740.198658 -202.37891 
L 734.751434 -199.951167 
L 729.30421 -201.350682 
L 723.856986 -204.059385 
L 718.409762 -203.038453 
L 712.962538 -205.006232 
L 707.515314 -205.768226 
L 702.06809 -208.365454 
L 696.620866 -208.687362 
L 691.173642 -209.407383 
L 685.726419 -211.177973 
L 680.279195 -214.757597 
L 674.831971 -213.23362 
L 669.384747 -215.212279 
L 663.937523 -217.050527 
L 658.490299 -218.134817 
L 653.043075 -220.739176 
L 647.595851 -219.724267 
L 642.148627 -220.832927 
L 636.701403 -223.082227 
L 631.254179 -221.952596 
L 625.806955 -225.217292 
L 620.359732 -228.331852 
L 614.912508 -226.3617 
L 609.465284 -228.594034 
L 604.01806 -228.385441 
L 598.570836 -230.417707 
L 593.123612 -230.095206 
L 587.676388 -231.862466 
L 582.229164 -229.605322 
L 576.78194 -229.766638 
L 571.334716 -231.749012 
L 565.887492 -231.338409 
L 560.440268 -231.076809 
L 554.993045 -232.955936 
L 549.545821 -237.562721 
L 544.098597 -234.649553 
L 538.651373 -234.15994 
L 533.204149 -235.433051 
L 527.756925 -234.335772 
L 522.309701 -236.378026 
L 516.862477 -234.508168 
L 511.415253 -236.73883 
L 505.968029 -236.19649 
L 500.520805 -239.451952 
L 495.073581 -238.058069 
L 489.626358 -239.939783 
L 484.179134 -239.218359 
L 478.73191 -241.275867 
L 473.284686 -240.664431 
L 467.837462 -244.542274 
L 462.390238 -244.233525 
L 456.943014 -247.183063 
L 451.49579 -247.18922 
L 446.048566 -247.790366 
L 440.601342 -247.128774 
L 435.154118 -248.276663 
L 429.706894 -250.337594 
L 424.259671 -252.340455 
L 418.812447 -253.800425 
L 413.365223 -252.958375 
L 407.917999 -254.012519 
L 402.470775 -253.633228 
L 397.023551 -253.574396 
L 391.576327 -255.889625 
L 386.129103 -257.045785 
L 380.681879 -256.46773 
L 375.234655 -255.195583 
L 369.787431 -258.168246 
L 364.340207 -256.783146 
L 358.892984 -259.211282 
L 353.44576 -259.265439 
L 347.998536 -259.205405 
L 342.551312 -260.206377 
L 337.104088 -260.787675 
L 331.656864 -261.149866 
L 326.20964 -261.40156 
L 320.762416 -262.129711 
L 315.315192 -263.372794 
L 309.867968 -264.542935 
L 304.420744 -265.111475 
L 298.97352 -264.635907 
L 293.526297 -266.790943 
L 288.079073 -267.157342 
L 282.631849 -268.253428 
L 277.184625 -270.688901 
L 271.737401 -270.822932 
L 266.290177 -273.015304 
L 260.842953 -275.150932 
L 255.395729 -278.202652 
L 249.948505 -280.149833 
L 244.501281 -283.588135 
L 239.054057 -286.943707 
L 233.606833 -291.796771 
L 228.15961 -295.51042 
L 222.712386 -300.87184 
L 217.265162 -307.375939 
L 211.817938 -310.395863 
L 206.370714 -313.518964 
L 200.92349 -317.963942 
L 195.476266 -319.976222 
L 190.029042 -319.06794 
L 184.581818 -548.001818 
z
" id="m96e93acb38" style="stroke:#ff7f0e;stroke-opacity:0.2;"/>
    </defs>
    <g clip-path="url(#pefd50422b1)">
     <use style="fill:#ff7f0e;fill-opacity:0.2;stroke:#ff7f0e;stroke-opacity:0.2;" x="0" xlink:href="#m96e93acb38" y="648"/>
    </g>
   </g>
   <g id="PolyCollection_3">
    <defs>
     <path d="M 184.581818 -361.481945 
L 184.581818 -316.653211 
L 190.029042 -269.941849 
L 195.476266 -252.92293 
L 200.92349 -234.485577 
L 206.370714 -223.097245 
L 211.817938 -212.337292 
L 217.265162 -203.050003 
L 222.712386 -194.174085 
L 228.15961 -187.854916 
L 233.606833 -181.782737 
L 239.054057 -175.914422 
L 244.501281 -170.647795 
L 249.948505 -162.825671 
L 255.395729 -158.408307 
L 260.842953 -155.03118 
L 266.290177 -150.914807 
L 271.737401 -146.11798 
L 277.184625 -139.612087 
L 282.631849 -135.084181 
L 288.079073 -132.825979 
L 293.526297 -130.740227 
L 298.97352 -127.316337 
L 304.420744 -124.396932 
L 309.867968 -122.49998 
L 315.315192 -120.527905 
L 320.762416 -119.627489 
L 326.20964 -117.603995 
L 331.656864 -115.246265 
L 337.104088 -112.407987 
L 342.551312 -110.872901 
L 347.998536 -109.650952 
L 353.44576 -109.876869 
L 358.892984 -108.853039 
L 364.340207 -107.942521 
L 369.787431 -108.085987 
L 375.234655 -107.118045 
L 380.681879 -105.931267 
L 386.129103 -105.942374 
L 391.576327 -105.437948 
L 397.023551 -105.284466 
L 402.470775 -104.969206 
L 407.917999 -104.671025 
L 413.365223 -104.502093 
L 418.812447 -104.402686 
L 424.259671 -104.179507 
L 429.706894 -104.119423 
L 435.154118 -104.034441 
L 440.601342 -103.97116 
L 446.048566 -103.882363 
L 451.49579 -103.862253 
L 456.943014 -103.76482 
L 462.390238 -103.763772 
L 467.837462 -103.700411 
L 473.284686 -103.67122 
L 478.73191 -103.631504 
L 484.179134 -103.596624 
L 489.626358 -103.573506 
L 495.073581 -103.559247 
L 500.520805 -103.548505 
L 505.968029 -103.550346 
L 511.415253 -103.502964 
L 516.862477 -103.497431 
L 522.309701 -103.500519 
L 527.756925 -103.461526 
L 533.204149 -103.447205 
L 538.651373 -103.444873 
L 544.098597 -103.449026 
L 549.545821 -103.428926 
L 554.993045 -103.417756 
L 560.440268 -103.411929 
L 565.887492 -103.397495 
L 571.334716 -103.402722 
L 576.78194 -103.382921 
L 582.229164 -103.378108 
L 587.676388 -103.374766 
L 593.123612 -103.361715 
L 598.570836 -103.362202 
L 604.01806 -103.354537 
L 609.465284 -103.35122 
L 614.912508 -103.342952 
L 620.359732 -103.346703 
L 625.806955 -103.336184 
L 631.254179 -103.334215 
L 636.701403 -103.323389 
L 642.148627 -103.324331 
L 647.595851 -103.317378 
L 653.043075 -103.315603 
L 658.490299 -103.312071 
L 663.937523 -103.311723 
L 669.384747 -103.308906 
L 674.831971 -103.303944 
L 680.279195 -103.300959 
L 685.726419 -103.298721 
L 691.173642 -103.298421 
L 696.620866 -103.293416 
L 702.06809 -103.290723 
L 707.515314 -103.290926 
L 712.962538 -103.287502 
L 718.409762 -103.28469 
L 723.856986 -103.281604 
L 729.30421 -103.280591 
L 734.751434 -103.278941 
L 740.198658 -103.277556 
L 745.645882 -103.277106 
L 751.093106 -103.274772 
L 756.540329 -103.273507 
L 761.987553 -103.27118 
L 767.434777 -103.269967 
L 772.882001 -103.267848 
L 778.329225 -103.267223 
L 783.776449 -103.266682 
L 789.223673 -103.264969 
L 794.670897 -103.262289 
L 800.118121 -103.262766 
L 805.565345 -103.261981 
L 811.012569 -103.259999 
L 816.459793 -103.258489 
L 821.907016 -103.257812 
L 827.35424 -103.256817 
L 832.801464 -103.255768 
L 838.248688 -103.254864 
L 843.695912 -103.253791 
L 849.143136 -103.253039 
L 854.59036 -103.252108 
L 860.037584 -103.251503 
L 865.484808 -103.250536 
L 870.932032 -103.250254 
L 876.379256 -103.25018 
L 881.82648 -103.249985 
L 887.273703 -103.248716 
L 892.720927 -103.247397 
L 898.168151 -103.246187 
L 903.615375 -103.24629 
L 909.062599 -103.245811 
L 914.509823 -103.246193 
L 919.957047 -103.244777 
L 925.404271 -103.243815 
L 930.851495 -103.243571 
L 936.298719 -103.243468 
L 941.745943 -103.242779 
L 947.193167 -103.24189 
L 952.64039 -103.241697 
L 958.087614 -103.240958 
L 963.534838 -103.240685 
L 968.982062 -103.240277 
L 974.429286 -103.239857 
L 979.87651 -103.238964 
L 985.323734 -103.238786 
L 990.770958 -103.238904 
L 996.218182 -103.238182 
L 996.218182 -103.253992 
L 996.218182 -103.253992 
L 990.770958 -103.254286 
L 985.323734 -103.255617 
L 979.87651 -103.256519 
L 974.429286 -103.257031 
L 968.982062 -103.257006 
L 963.534838 -103.258154 
L 958.087614 -103.259299 
L 952.64039 -103.260588 
L 947.193167 -103.262248 
L 941.745943 -103.262076 
L 936.298719 -103.262964 
L 930.851495 -103.263703 
L 925.404271 -103.265277 
L 919.957047 -103.266062 
L 914.509823 -103.267764 
L 909.062599 -103.26894 
L 903.615375 -103.270677 
L 898.168151 -103.271592 
L 892.720927 -103.273277 
L 887.273703 -103.274396 
L 881.82648 -103.276184 
L 876.379256 -103.277474 
L 870.932032 -103.278374 
L 865.484808 -103.27941 
L 860.037584 -103.281823 
L 854.59036 -103.286085 
L 849.143136 -103.285461 
L 843.695912 -103.286616 
L 838.248688 -103.288144 
L 832.801464 -103.291637 
L 827.35424 -103.291595 
L 821.907016 -103.295885 
L 816.459793 -103.299633 
L 811.012569 -103.300846 
L 805.565345 -103.304153 
L 800.118121 -103.305309 
L 794.670897 -103.306797 
L 789.223673 -103.309406 
L 783.776449 -103.310852 
L 778.329225 -103.314182 
L 772.882001 -103.317824 
L 767.434777 -103.321443 
L 761.987553 -103.32427 
L 756.540329 -103.329471 
L 751.093106 -103.336055 
L 745.645882 -103.337757 
L 740.198658 -103.341092 
L 734.751434 -103.342979 
L 729.30421 -103.351101 
L 723.856986 -103.353136 
L 718.409762 -103.356988 
L 712.962538 -103.36158 
L 707.515314 -103.369233 
L 702.06809 -103.375956 
L 696.620866 -103.377494 
L 691.173642 -103.386635 
L 685.726419 -103.388834 
L 680.279195 -103.40156 
L 674.831971 -103.406162 
L 669.384747 -103.408424 
L 663.937523 -103.423789 
L 658.490299 -103.432143 
L 653.043075 -103.426581 
L 647.595851 -103.44449 
L 642.148627 -103.450505 
L 636.701403 -103.464983 
L 631.254179 -103.474282 
L 625.806955 -103.489262 
L 620.359732 -103.495477 
L 614.912508 -103.515727 
L 609.465284 -103.526769 
L 604.01806 -103.545635 
L 598.570836 -103.549761 
L 593.123612 -103.573952 
L 587.676388 -103.582957 
L 582.229164 -103.611193 
L 576.78194 -103.635175 
L 571.334716 -103.644575 
L 565.887492 -103.666565 
L 560.440268 -103.703767 
L 554.993045 -103.726846 
L 549.545821 -103.771313 
L 544.098597 -103.794154 
L 538.651373 -103.804363 
L 533.204149 -103.874253 
L 527.756925 -103.905755 
L 522.309701 -103.956984 
L 516.862477 -104.008878 
L 511.415253 -104.156926 
L 505.968029 -104.289941 
L 500.520805 -104.403679 
L 495.073581 -104.382457 
L 489.626358 -104.50873 
L 484.179134 -104.70845 
L 478.73191 -104.716802 
L 473.284686 -104.768204 
L 467.837462 -104.884004 
L 462.390238 -105.128328 
L 456.943014 -105.235446 
L 451.49579 -105.617627 
L 446.048566 -105.80115 
L 440.601342 -106.353866 
L 435.154118 -106.663538 
L 429.706894 -107.08778 
L 424.259671 -107.360007 
L 418.812447 -108.022074 
L 413.365223 -109.52889 
L 407.917999 -110.327776 
L 402.470775 -110.40876 
L 397.023551 -113.590713 
L 391.576327 -113.357827 
L 386.129103 -117.079043 
L 380.681879 -117.96747 
L 375.234655 -117.670716 
L 369.787431 -120.735584 
L 364.340207 -119.148376 
L 358.892984 -121.73087 
L 353.44576 -125.058058 
L 347.998536 -123.483323 
L 342.551312 -125.803513 
L 337.104088 -128.583166 
L 331.656864 -133.144283 
L 326.20964 -133.380848 
L 320.762416 -136.504423 
L 315.315192 -137.409746 
L 309.867968 -141.619817 
L 304.420744 -142.402799 
L 298.97352 -146.521207 
L 293.526297 -150.831547 
L 288.079073 -155.312059 
L 282.631849 -158.653816 
L 277.184625 -160.90387 
L 271.737401 -167.600081 
L 266.290177 -171.649143 
L 260.842953 -174.891373 
L 255.395729 -180.549075 
L 249.948505 -184.175837 
L 244.501281 -189.834263 
L 239.054057 -194.11484 
L 233.606833 -200.203395 
L 228.15961 -205.544882 
L 222.712386 -212.437648 
L 217.265162 -222.593147 
L 211.817938 -234.216774 
L 206.370714 -245.848556 
L 200.92349 -258.206743 
L 195.476266 -277.009548 
L 190.029042 -296.157135 
L 184.581818 -361.481945 
z
" id="m9bd4ee62c0" style="stroke:#2ca02c;stroke-opacity:0.2;"/>
    </defs>
    <g clip-path="url(#pefd50422b1)">
     <use style="fill:#2ca02c;fill-opacity:0.2;stroke:#2ca02c;stroke-opacity:0.2;" x="0" xlink:href="#m9bd4ee62c0" y="648"/>
    </g>
   </g>
   <g id="PolyCollection_4">
    <defs>
     <path d="M 184.581818 -376.861467 
L 184.581818 -331.295881 
L 190.029042 -315.12084 
L 195.476266 -310.93549 
L 200.92349 -304.876229 
L 206.370714 -298.136811 
L 211.817938 -289.886113 
L 217.265162 -280.454007 
L 222.712386 -271.850237 
L 228.15961 -263.747942 
L 233.606833 -255.616503 
L 239.054057 -248.050151 
L 244.501281 -240.459399 
L 249.948505 -233.509162 
L 255.395729 -227.137457 
L 260.842953 -221.357319 
L 266.290177 -215.754721 
L 271.737401 -211.768523 
L 277.184625 -206.617561 
L 282.631849 -202.385878 
L 288.079073 -199.626932 
L 293.526297 -195.372837 
L 298.97352 -190.845278 
L 304.420744 -187.954612 
L 309.867968 -185.292757 
L 315.315192 -183.910259 
L 320.762416 -179.149435 
L 326.20964 -177.263577 
L 331.656864 -174.712219 
L 337.104088 -173.811216 
L 342.551312 -170.757956 
L 347.998536 -170.640522 
L 353.44576 -166.588093 
L 358.892984 -164.503157 
L 364.340207 -163.539479 
L 369.787431 -161.59193 
L 375.234655 -159.046344 
L 380.681879 -158.211912 
L 386.129103 -154.96035 
L 391.576327 -152.395593 
L 397.023551 -151.829752 
L 402.470775 -150.903754 
L 407.917999 -149.26188 
L 413.365223 -147.247313 
L 418.812447 -146.830145 
L 424.259671 -145.287183 
L 429.706894 -143.028906 
L 435.154118 -141.83951 
L 440.601342 -140.846616 
L 446.048566 -140.534015 
L 451.49579 -138.364114 
L 456.943014 -136.31619 
L 462.390238 -134.363618 
L 467.837462 -134.020859 
L 473.284686 -132.052953 
L 478.73191 -130.621221 
L 484.179134 -130.408125 
L 489.626358 -130.058226 
L 495.073581 -128.918042 
L 500.520805 -127.832694 
L 505.968029 -126.770906 
L 511.415253 -127.147536 
L 516.862477 -125.724658 
L 522.309701 -125.320992 
L 527.756925 -123.137824 
L 533.204149 -124.392928 
L 538.651373 -123.18366 
L 544.098597 -120.986434 
L 549.545821 -119.968308 
L 554.993045 -119.97252 
L 560.440268 -118.640679 
L 565.887492 -118.905927 
L 571.334716 -118.028756 
L 576.78194 -117.876238 
L 582.229164 -117.310984 
L 587.676388 -116.462345 
L 593.123612 -116.402945 
L 598.570836 -114.856695 
L 604.01806 -115.083777 
L 609.465284 -115.216011 
L 614.912508 -114.605593 
L 620.359732 -113.283468 
L 625.806955 -113.184962 
L 631.254179 -111.697269 
L 636.701403 -112.013188 
L 642.148627 -112.293564 
L 647.595851 -111.128663 
L 653.043075 -110.995122 
L 658.490299 -110.940687 
L 663.937523 -111.114728 
L 669.384747 -111.267224 
L 674.831971 -109.796292 
L 680.279195 -110.457772 
L 685.726419 -110.702809 
L 691.173642 -110.548977 
L 696.620866 -111.200448 
L 702.06809 -109.495485 
L 707.515314 -108.96477 
L 712.962538 -108.664794 
L 718.409762 -108.647734 
L 723.856986 -107.712846 
L 729.30421 -107.63126 
L 734.751434 -107.523141 
L 740.198658 -107.912122 
L 745.645882 -107.753269 
L 751.093106 -107.267167 
L 756.540329 -107.098715 
L 761.987553 -107.010282 
L 767.434777 -106.942982 
L 772.882001 -107.030855 
L 778.329225 -106.724048 
L 783.776449 -106.9818 
L 789.223673 -106.978374 
L 794.670897 -106.939225 
L 800.118121 -106.793343 
L 805.565345 -106.249939 
L 811.012569 -106.506546 
L 816.459793 -106.503855 
L 821.907016 -106.732633 
L 827.35424 -106.920679 
L 832.801464 -106.392654 
L 838.248688 -106.381634 
L 843.695912 -106.624071 
L 849.143136 -108.257793 
L 854.59036 -107.277207 
L 860.037584 -106.894643 
L 865.484808 -105.869058 
L 870.932032 -105.396772 
L 876.379256 -105.110271 
L 881.82648 -105.134828 
L 887.273703 -105.037012 
L 892.720927 -104.861284 
L 898.168151 -104.712145 
L 903.615375 -104.600749 
L 909.062599 -104.517146 
L 914.509823 -104.39441 
L 919.957047 -104.329766 
L 925.404271 -104.294566 
L 930.851495 -104.246757 
L 936.298719 -104.216029 
L 941.745943 -104.23247 
L 947.193167 -104.185997 
L 952.64039 -104.068169 
L 958.087614 -104.097333 
L 963.534838 -104.073792 
L 968.982062 -104.013511 
L 974.429286 -103.998543 
L 979.87651 -103.93663 
L 985.323734 -103.916147 
L 990.770958 -103.883931 
L 996.218182 -103.797836 
L 996.218182 -107.289224 
L 996.218182 -107.289224 
L 990.770958 -107.525001 
L 985.323734 -107.35531 
L 979.87651 -108.258534 
L 974.429286 -109.117872 
L 968.982062 -109.862894 
L 963.534838 -112.787424 
L 958.087614 -112.728552 
L 952.64039 -112.69818 
L 947.193167 -108.91422 
L 941.745943 -108.694208 
L 936.298719 -108.521027 
L 930.851495 -108.10083 
L 925.404271 -108.283403 
L 919.957047 -108.60007 
L 914.509823 -108.53024 
L 909.062599 -110.091937 
L 903.615375 -109.7631 
L 898.168151 -109.95614 
L 892.720927 -110.350088 
L 887.273703 -110.045442 
L 881.82648 -110.282679 
L 876.379256 -109.863645 
L 870.932032 -110.076641 
L 865.484808 -115.311783 
L 860.037584 -121.857928 
L 854.59036 -117.225598 
L 849.143136 -116.107471 
L 843.695912 -114.601579 
L 838.248688 -114.297254 
L 832.801464 -113.540042 
L 827.35424 -114.158127 
L 821.907016 -113.08267 
L 816.459793 -113.228092 
L 811.012569 -112.671951 
L 805.565345 -112.908506 
L 800.118121 -114.445461 
L 794.670897 -114.351857 
L 789.223673 -113.631174 
L 783.776449 -113.66894 
L 778.329225 -114.058963 
L 772.882001 -113.576505 
L 767.434777 -113.99315 
L 761.987553 -113.835075 
L 756.540329 -113.623222 
L 751.093106 -113.189837 
L 745.645882 -114.510415 
L 740.198658 -114.426034 
L 734.751434 -114.747747 
L 729.30421 -115.956159 
L 723.856986 -115.680813 
L 718.409762 -117.411367 
L 712.962538 -117.696606 
L 707.515314 -118.103654 
L 702.06809 -119.23504 
L 696.620866 -121.330658 
L 691.173642 -120.984783 
L 685.726419 -119.294672 
L 680.279195 -124.134549 
L 674.831971 -119.576329 
L 669.384747 -121.488632 
L 663.937523 -121.211191 
L 658.490299 -122.061227 
L 653.043075 -122.816552 
L 647.595851 -123.439797 
L 642.148627 -124.846704 
L 636.701403 -123.22369 
L 631.254179 -125.08294 
L 625.806955 -126.556465 
L 620.359732 -126.575184 
L 614.912508 -127.61019 
L 609.465284 -128.990013 
L 604.01806 -128.369508 
L 598.570836 -128.173729 
L 593.123612 -130.916867 
L 587.676388 -131.766606 
L 582.229164 -132.984524 
L 576.78194 -133.421899 
L 571.334716 -134.357905 
L 565.887492 -134.358322 
L 560.440268 -134.926752 
L 554.993045 -136.767115 
L 549.545821 -137.690928 
L 544.098597 -139.759237 
L 538.651373 -140.097696 
L 533.204149 -142.549867 
L 527.756925 -141.271616 
L 522.309701 -144.242681 
L 516.862477 -145.728976 
L 511.415253 -145.706585 
L 505.968029 -147.486492 
L 500.520805 -148.836675 
L 495.073581 -148.851612 
L 489.626358 -150.389206 
L 484.179134 -150.57574 
L 478.73191 -152.018077 
L 473.284686 -154.115502 
L 467.837462 -155.101163 
L 462.390238 -157.554129 
L 456.943014 -160.716706 
L 451.49579 -161.349926 
L 446.048566 -163.785759 
L 440.601342 -164.652672 
L 435.154118 -167.682186 
L 429.706894 -168.481072 
L 424.259671 -169.794589 
L 418.812447 -171.704292 
L 413.365223 -173.207865 
L 407.917999 -174.691587 
L 402.470775 -177.405482 
L 397.023551 -178.184361 
L 391.576327 -180.146912 
L 386.129103 -182.237153 
L 380.681879 -184.613348 
L 375.234655 -187.04766 
L 369.787431 -188.449208 
L 364.340207 -190.119567 
L 358.892984 -192.278198 
L 353.44576 -194.172611 
L 347.998536 -198.518101 
L 342.551312 -199.371478 
L 337.104088 -202.080597 
L 331.656864 -204.275611 
L 326.20964 -206.226083 
L 320.762416 -208.301353 
L 315.315192 -211.226193 
L 309.867968 -215.546137 
L 304.420744 -216.888394 
L 298.97352 -220.55013 
L 293.526297 -223.748385 
L 288.079073 -227.091098 
L 282.631849 -230.103307 
L 277.184625 -234.015389 
L 271.737401 -239.06863 
L 266.290177 -245.643882 
L 260.842953 -249.487644 
L 255.395729 -255.662441 
L 249.948505 -261.085614 
L 244.501281 -268.633207 
L 239.054057 -275.123252 
L 233.606833 -279.72368 
L 228.15961 -287.183667 
L 222.712386 -291.575535 
L 217.265162 -297.456585 
L 211.817938 -302.805653 
L 206.370714 -308.27564 
L 200.92349 -313.203482 
L 195.476266 -318.07753 
L 190.029042 -320.191313 
L 184.581818 -376.861467 
z
" id="mcbc95038df" style="stroke:#d62728;stroke-opacity:0.2;"/>
    </defs>
    <g clip-path="url(#pefd50422b1)">
     <use style="fill:#d62728;fill-opacity:0.2;stroke:#d62728;stroke-opacity:0.2;" x="0" xlink:href="#mcbc95038df" y="648"/>
    </g>
   </g>
   <g id="matplotlib.axis_1">
    <g id="xtick_1">
     <g id="line2d_1">
      <defs>
       <path d="M 0 0 
L 0 3.5 
" id="mf93865ef6d" style="stroke:#000000;stroke-width:0.8;"/>
      </defs>
      <g>
       <use style="stroke:#000000;stroke-width:0.8;" x="184.581818" xlink:href="#mf93865ef6d" y="567"/>
      </g>
     </g>
     <g id="text_1">
      <!-- 0 -->
      <defs>
       <path d="M 31.78125 66.40625 
Q 24.171875 66.40625 20.328125 58.90625 
Q 16.5 51.421875 16.5 36.375 
Q 16.5 21.390625 20.328125 13.890625 
Q 24.171875 6.390625 31.78125 6.390625 
Q 39.453125 6.390625 43.28125 13.890625 
Q 47.125 21.390625 47.125 36.375 
Q 47.125 51.421875 43.28125 58.90625 
Q 39.453125 66.40625 31.78125 66.40625 
z
M 31.78125 74.21875 
Q 44.046875 74.21875 50.515625 64.515625 
Q 56.984375 54.828125 56.984375 36.375 
Q 56.984375 17.96875 50.515625 8.265625 
Q 44.046875 -1.421875 31.78125 -1.421875 
Q 19.53125 -1.421875 13.0625 8.265625 
Q 6.59375 17.96875 6.59375 36.375 
Q 6.59375 54.828125 13.0625 64.515625 
Q 19.53125 74.21875 31.78125 74.21875 
z
" id="DejaVuSans-48"/>
      </defs>
      <g transform="translate(181.400568 581.598438)scale(0.1 -0.1)">
       <use xlink:href="#DejaVuSans-48"/>
      </g>
     </g>
    </g>
    <g id="xtick_2">
     <g id="line2d_2">
      <g>
       <use style="stroke:#000000;stroke-width:0.8;" x="293.526297" xlink:href="#mf93865ef6d" y="567"/>
      </g>
     </g>
     <g id="text_2">
      <!-- 20 -->
      <defs>
       <path d="M 19.1875 8.296875 
L 53.609375 8.296875 
L 53.609375 0 
L 7.328125 0 
L 7.328125 8.296875 
Q 12.9375 14.109375 22.625 23.890625 
Q 32.328125 33.6875 34.8125 36.53125 
Q 39.546875 41.84375 41.421875 45.53125 
Q 43.3125 49.21875 43.3125 52.78125 
Q 43.3125 58.59375 39.234375 62.25 
Q 35.15625 65.921875 28.609375 65.921875 
Q 23.96875 65.921875 18.8125 64.3125 
Q 13.671875 62.703125 7.8125 59.421875 
L 7.8125 69.390625 
Q 13.765625 71.78125 18.9375 73 
Q 24.125 74.21875 28.421875 74.21875 
Q 39.75 74.21875 46.484375 68.546875 
Q 53.21875 62.890625 53.21875 53.421875 
Q 53.21875 48.921875 51.53125 44.890625 
Q 49.859375 40.875 45.40625 35.40625 
Q 44.1875 33.984375 37.640625 27.21875 
Q 31.109375 20.453125 19.1875 8.296875 
z
" id="DejaVuSans-50"/>
      </defs>
      <g transform="translate(287.163797 581.598438)scale(0.1 -0.1)">
       <use xlink:href="#DejaVuSans-50"/>
       <use x="63.623047" xlink:href="#DejaVuSans-48"/>
      </g>
     </g>
    </g>
    <g id="xtick_3">
     <g id="line2d_3">
      <g>
       <use style="stroke:#000000;stroke-width:0.8;" x="402.470775" xlink:href="#mf93865ef6d" y="567"/>
      </g>
     </g>
     <g id="text_3">
      <!-- 40 -->
      <defs>
       <path d="M 37.796875 64.3125 
L 12.890625 25.390625 
L 37.796875 25.390625 
z
M 35.203125 72.90625 
L 47.609375 72.90625 
L 47.609375 25.390625 
L 58.015625 25.390625 
L 58.015625 17.1875 
L 47.609375 17.1875 
L 47.609375 0 
L 37.796875 0 
L 37.796875 17.1875 
L 4.890625 17.1875 
L 4.890625 26.703125 
z
" id="DejaVuSans-52"/>
      </defs>
      <g transform="translate(396.108275 581.598438)scale(0.1 -0.1)">
       <use xlink:href="#DejaVuSans-52"/>
       <use x="63.623047" xlink:href="#DejaVuSans-48"/>
      </g>
     </g>
    </g>
    <g id="xtick_4">
     <g id="line2d_4">
      <g>
       <use style="stroke:#000000;stroke-width:0.8;" x="511.415253" xlink:href="#mf93865ef6d" y="567"/>
      </g>
     </g>
     <g id="text_4">
      <!-- 60 -->
      <defs>
       <path d="M 33.015625 40.375 
Q 26.375 40.375 22.484375 35.828125 
Q 18.609375 31.296875 18.609375 23.390625 
Q 18.609375 15.53125 22.484375 10.953125 
Q 26.375 6.390625 33.015625 6.390625 
Q 39.65625 6.390625 43.53125 10.953125 
Q 47.40625 15.53125 47.40625 23.390625 
Q 47.40625 31.296875 43.53125 35.828125 
Q 39.65625 40.375 33.015625 40.375 
z
M 52.59375 71.296875 
L 52.59375 62.3125 
Q 48.875 64.0625 45.09375 64.984375 
Q 41.3125 65.921875 37.59375 65.921875 
Q 27.828125 65.921875 22.671875 59.328125 
Q 17.53125 52.734375 16.796875 39.40625 
Q 19.671875 43.65625 24.015625 45.921875 
Q 28.375 48.1875 33.59375 48.1875 
Q 44.578125 48.1875 50.953125 41.515625 
Q 57.328125 34.859375 57.328125 23.390625 
Q 57.328125 12.15625 50.6875 5.359375 
Q 44.046875 -1.421875 33.015625 -1.421875 
Q 20.359375 -1.421875 13.671875 8.265625 
Q 6.984375 17.96875 6.984375 36.375 
Q 6.984375 53.65625 15.1875 63.9375 
Q 23.390625 74.21875 37.203125 74.21875 
Q 40.921875 74.21875 44.703125 73.484375 
Q 48.484375 72.75 52.59375 71.296875 
z
" id="DejaVuSans-54"/>
      </defs>
      <g transform="translate(505.052753 581.598438)scale(0.1 -0.1)">
       <use xlink:href="#DejaVuSans-54"/>
       <use x="63.623047" xlink:href="#DejaVuSans-48"/>
      </g>
     </g>
    </g>
    <g id="xtick_5">
     <g id="line2d_5">
      <g>
       <use style="stroke:#000000;stroke-width:0.8;" x="620.359732" xlink:href="#mf93865ef6d" y="567"/>
      </g>
     </g>
     <g id="text_5">
      <!-- 80 -->
      <defs>
       <path d="M 31.78125 34.625 
Q 24.75 34.625 20.71875 30.859375 
Q 16.703125 27.09375 16.703125 20.515625 
Q 16.703125 13.921875 20.71875 10.15625 
Q 24.75 6.390625 31.78125 6.390625 
Q 38.8125 6.390625 42.859375 10.171875 
Q 46.921875 13.96875 46.921875 20.515625 
Q 46.921875 27.09375 42.890625 30.859375 
Q 38.875 34.625 31.78125 34.625 
z
M 21.921875 38.8125 
Q 15.578125 40.375 12.03125 44.71875 
Q 8.5 49.078125 8.5 55.328125 
Q 8.5 64.0625 14.71875 69.140625 
Q 20.953125 74.21875 31.78125 74.21875 
Q 42.671875 74.21875 48.875 69.140625 
Q 55.078125 64.0625 55.078125 55.328125 
Q 55.078125 49.078125 51.53125 44.71875 
Q 48 40.375 41.703125 38.8125 
Q 48.828125 37.15625 52.796875 32.3125 
Q 56.78125 27.484375 56.78125 20.515625 
Q 56.78125 9.90625 50.3125 4.234375 
Q 43.84375 -1.421875 31.78125 -1.421875 
Q 19.734375 -1.421875 13.25 4.234375 
Q 6.78125 9.90625 6.78125 20.515625 
Q 6.78125 27.484375 10.78125 32.3125 
Q 14.796875 37.15625 21.921875 38.8125 
z
M 18.3125 54.390625 
Q 18.3125 48.734375 21.84375 45.5625 
Q 25.390625 42.390625 31.78125 42.390625 
Q 38.140625 42.390625 41.71875 45.5625 
Q 45.3125 48.734375 45.3125 54.390625 
Q 45.3125 60.0625 41.71875 63.234375 
Q 38.140625 66.40625 31.78125 66.40625 
Q 25.390625 66.40625 21.84375 63.234375 
Q 18.3125 60.0625 18.3125 54.390625 
z
" id="DejaVuSans-56"/>
      </defs>
      <g transform="translate(613.997232 581.598438)scale(0.1 -0.1)">
       <use xlink:href="#DejaVuSans-56"/>
       <use x="63.623047" xlink:href="#DejaVuSans-48"/>
      </g>
     </g>
    </g>
    <g id="xtick_6">
     <g id="line2d_6">
      <g>
       <use style="stroke:#000000;stroke-width:0.8;" x="729.30421" xlink:href="#mf93865ef6d" y="567"/>
      </g>
     </g>
     <g id="text_6">
      <!-- 100 -->
      <defs>
       <path d="M 12.40625 8.296875 
L 28.515625 8.296875 
L 28.515625 63.921875 
L 10.984375 60.40625 
L 10.984375 69.390625 
L 28.421875 72.90625 
L 38.28125 72.90625 
L 38.28125 8.296875 
L 54.390625 8.296875 
L 54.390625 0 
L 12.40625 0 
z
" id="DejaVuSans-49"/>
      </defs>
      <g transform="translate(719.76046 581.598438)scale(0.1 -0.1)">
       <use xlink:href="#DejaVuSans-49"/>
       <use x="63.623047" xlink:href="#DejaVuSans-48"/>
       <use x="127.246094" xlink:href="#DejaVuSans-48"/>
      </g>
     </g>
    </g>
    <g id="xtick_7">
     <g id="line2d_7">
      <g>
       <use style="stroke:#000000;stroke-width:0.8;" x="838.248688" xlink:href="#mf93865ef6d" y="567"/>
      </g>
     </g>
     <g id="text_7">
      <!-- 120 -->
      <g transform="translate(828.704938 581.598438)scale(0.1 -0.1)">
       <use xlink:href="#DejaVuSans-49"/>
       <use x="63.623047" xlink:href="#DejaVuSans-50"/>
       <use x="127.246094" xlink:href="#DejaVuSans-48"/>
      </g>
     </g>
    </g>
    <g id="xtick_8">
     <g id="line2d_8">
      <g>
       <use style="stroke:#000000;stroke-width:0.8;" x="947.193167" xlink:href="#mf93865ef6d" y="567"/>
      </g>
     </g>
     <g id="text_8">
      <!-- 140 -->
      <g transform="translate(937.649417 581.598438)scale(0.1 -0.1)">
       <use xlink:href="#DejaVuSans-49"/>
       <use x="63.623047" xlink:href="#DejaVuSans-52"/>
       <use x="127.246094" xlink:href="#DejaVuSans-48"/>
      </g>
     </g>
    </g>
    <g id="text_9">
     <!-- epoch -->
     <defs>
      <path d="M 56.203125 29.59375 
L 56.203125 25.203125 
L 14.890625 25.203125 
Q 15.484375 15.921875 20.484375 11.0625 
Q 25.484375 6.203125 34.421875 6.203125 
Q 39.59375 6.203125 44.453125 7.46875 
Q 49.3125 8.734375 54.109375 11.28125 
L 54.109375 2.78125 
Q 49.265625 0.734375 44.1875 -0.34375 
Q 39.109375 -1.421875 33.890625 -1.421875 
Q 20.796875 -1.421875 13.15625 6.1875 
Q 5.515625 13.8125 5.515625 26.8125 
Q 5.515625 40.234375 12.765625 48.109375 
Q 20.015625 56 32.328125 56 
Q 43.359375 56 49.78125 48.890625 
Q 56.203125 41.796875 56.203125 29.59375 
z
M 47.21875 32.234375 
Q 47.125 39.59375 43.09375 43.984375 
Q 39.0625 48.390625 32.421875 48.390625 
Q 24.90625 48.390625 20.390625 44.140625 
Q 15.875 39.890625 15.1875 32.171875 
z
" id="DejaVuSans-101"/>
      <path d="M 18.109375 8.203125 
L 18.109375 -20.796875 
L 9.078125 -20.796875 
L 9.078125 54.6875 
L 18.109375 54.6875 
L 18.109375 46.390625 
Q 20.953125 51.265625 25.265625 53.625 
Q 29.59375 56 35.59375 56 
Q 45.5625 56 51.78125 48.09375 
Q 58.015625 40.1875 58.015625 27.296875 
Q 58.015625 14.40625 51.78125 6.484375 
Q 45.5625 -1.421875 35.59375 -1.421875 
Q 29.59375 -1.421875 25.265625 0.953125 
Q 20.953125 3.328125 18.109375 8.203125 
z
M 48.6875 27.296875 
Q 48.6875 37.203125 44.609375 42.84375 
Q 40.53125 48.484375 33.40625 48.484375 
Q 26.265625 48.484375 22.1875 42.84375 
Q 18.109375 37.203125 18.109375 27.296875 
Q 18.109375 17.390625 22.1875 11.75 
Q 26.265625 6.109375 33.40625 6.109375 
Q 40.53125 6.109375 44.609375 11.75 
Q 48.6875 17.390625 48.6875 27.296875 
z
" id="DejaVuSans-112"/>
      <path d="M 30.609375 48.390625 
Q 23.390625 48.390625 19.1875 42.75 
Q 14.984375 37.109375 14.984375 27.296875 
Q 14.984375 17.484375 19.15625 11.84375 
Q 23.34375 6.203125 30.609375 6.203125 
Q 37.796875 6.203125 41.984375 11.859375 
Q 46.1875 17.53125 46.1875 27.296875 
Q 46.1875 37.015625 41.984375 42.703125 
Q 37.796875 48.390625 30.609375 48.390625 
z
M 30.609375 56 
Q 42.328125 56 49.015625 48.375 
Q 55.71875 40.765625 55.71875 27.296875 
Q 55.71875 13.875 49.015625 6.21875 
Q 42.328125 -1.421875 30.609375 -1.421875 
Q 18.84375 -1.421875 12.171875 6.21875 
Q 5.515625 13.875 5.515625 27.296875 
Q 5.515625 40.765625 12.171875 48.375 
Q 18.84375 56 30.609375 56 
z
" id="DejaVuSans-111"/>
      <path d="M 48.78125 52.59375 
L 48.78125 44.1875 
Q 44.96875 46.296875 41.140625 47.34375 
Q 37.3125 48.390625 33.40625 48.390625 
Q 24.65625 48.390625 19.8125 42.84375 
Q 14.984375 37.3125 14.984375 27.296875 
Q 14.984375 17.28125 19.8125 11.734375 
Q 24.65625 6.203125 33.40625 6.203125 
Q 37.3125 6.203125 41.140625 7.25 
Q 44.96875 8.296875 48.78125 10.40625 
L 48.78125 2.09375 
Q 45.015625 0.34375 40.984375 -0.53125 
Q 36.96875 -1.421875 32.421875 -1.421875 
Q 20.0625 -1.421875 12.78125 6.34375 
Q 5.515625 14.109375 5.515625 27.296875 
Q 5.515625 40.671875 12.859375 48.328125 
Q 20.21875 56 33.015625 56 
Q 37.15625 56 41.109375 55.140625 
Q 45.0625 54.296875 48.78125 52.59375 
z
" id="DejaVuSans-99"/>
      <path d="M 54.890625 33.015625 
L 54.890625 0 
L 45.90625 0 
L 45.90625 32.71875 
Q 45.90625 40.484375 42.875 44.328125 
Q 39.84375 48.1875 33.796875 48.1875 
Q 26.515625 48.1875 22.3125 43.546875 
Q 18.109375 38.921875 18.109375 30.90625 
L 18.109375 0 
L 9.078125 0 
L 9.078125 75.984375 
L 18.109375 75.984375 
L 18.109375 46.1875 
Q 21.34375 51.125 25.703125 53.5625 
Q 30.078125 56 35.796875 56 
Q 45.21875 56 50.046875 50.171875 
Q 54.890625 44.34375 54.890625 33.015625 
z
" id="DejaVuSans-104"/>
     </defs>
     <g transform="translate(575.171875 595.276562)scale(0.1 -0.1)">
      <use xlink:href="#DejaVuSans-101"/>
      <use x="61.523438" xlink:href="#DejaVuSans-112"/>
      <use x="125" xlink:href="#DejaVuSans-111"/>
      <use x="186.181641" xlink:href="#DejaVuSans-99"/>
      <use x="241.162109" xlink:href="#DejaVuSans-104"/>
     </g>
    </g>
   </g>
   <g id="matplotlib.axis_2">
    <g id="ytick_1">
     <g id="line2d_9">
      <defs>
       <path d="M 0 0 
L -3.5 0 
" id="m83a66771b1" style="stroke:#000000;stroke-width:0.8;"/>
      </defs>
      <g>
       <use style="stroke:#000000;stroke-width:0.8;" x="144" xlink:href="#m83a66771b1" y="544.777332"/>
      </g>
     </g>
     <g id="text_10">
      <!-- 0 -->
      <g transform="translate(130.6375 548.576551)scale(0.1 -0.1)">
       <use xlink:href="#DejaVuSans-48"/>
      </g>
     </g>
    </g>
    <g id="ytick_2">
     <g id="line2d_10">
      <g>
       <use style="stroke:#000000;stroke-width:0.8;" x="144" xlink:href="#m83a66771b1" y="446.306639"/>
      </g>
     </g>
     <g id="text_11">
      <!-- 10 -->
      <g transform="translate(124.275 450.105858)scale(0.1 -0.1)">
       <use xlink:href="#DejaVuSans-49"/>
       <use x="63.623047" xlink:href="#DejaVuSans-48"/>
      </g>
     </g>
    </g>
    <g id="ytick_3">
     <g id="line2d_11">
      <g>
       <use style="stroke:#000000;stroke-width:0.8;" x="144" xlink:href="#m83a66771b1" y="347.835946"/>
      </g>
     </g>
     <g id="text_12">
      <!-- 20 -->
      <g transform="translate(124.275 351.635165)scale(0.1 -0.1)">
       <use xlink:href="#DejaVuSans-50"/>
       <use x="63.623047" xlink:href="#DejaVuSans-48"/>
      </g>
     </g>
    </g>
    <g id="ytick_4">
     <g id="line2d_12">
      <g>
       <use style="stroke:#000000;stroke-width:0.8;" x="144" xlink:href="#m83a66771b1" y="249.365253"/>
      </g>
     </g>
     <g id="text_13">
      <!-- 30 -->
      <defs>
       <path d="M 40.578125 39.3125 
Q 47.65625 37.796875 51.625 33 
Q 55.609375 28.21875 55.609375 21.1875 
Q 55.609375 10.40625 48.1875 4.484375 
Q 40.765625 -1.421875 27.09375 -1.421875 
Q 22.515625 -1.421875 17.65625 -0.515625 
Q 12.796875 0.390625 7.625 2.203125 
L 7.625 11.71875 
Q 11.71875 9.328125 16.59375 8.109375 
Q 21.484375 6.890625 26.8125 6.890625 
Q 36.078125 6.890625 40.9375 10.546875 
Q 45.796875 14.203125 45.796875 21.1875 
Q 45.796875 27.640625 41.28125 31.265625 
Q 36.765625 34.90625 28.71875 34.90625 
L 20.21875 34.90625 
L 20.21875 43.015625 
L 29.109375 43.015625 
Q 36.375 43.015625 40.234375 45.921875 
Q 44.09375 48.828125 44.09375 54.296875 
Q 44.09375 59.90625 40.109375 62.90625 
Q 36.140625 65.921875 28.71875 65.921875 
Q 24.65625 65.921875 20.015625 65.03125 
Q 15.375 64.15625 9.8125 62.3125 
L 9.8125 71.09375 
Q 15.4375 72.65625 20.34375 73.4375 
Q 25.25 74.21875 29.59375 74.21875 
Q 40.828125 74.21875 47.359375 69.109375 
Q 53.90625 64.015625 53.90625 55.328125 
Q 53.90625 49.265625 50.4375 45.09375 
Q 46.96875 40.921875 40.578125 39.3125 
z
" id="DejaVuSans-51"/>
      </defs>
      <g transform="translate(124.275 253.164472)scale(0.1 -0.1)">
       <use xlink:href="#DejaVuSans-51"/>
       <use x="63.623047" xlink:href="#DejaVuSans-48"/>
      </g>
     </g>
    </g>
    <g id="ytick_5">
     <g id="line2d_13">
      <g>
       <use style="stroke:#000000;stroke-width:0.8;" x="144" xlink:href="#m83a66771b1" y="150.89456"/>
      </g>
     </g>
     <g id="text_14">
      <!-- 40 -->
      <g transform="translate(124.275 154.693779)scale(0.1 -0.1)">
       <use xlink:href="#DejaVuSans-52"/>
       <use x="63.623047" xlink:href="#DejaVuSans-48"/>
      </g>
     </g>
    </g>
    <g id="text_15">
     <!-- loss -->
     <defs>
      <path d="M 9.421875 75.984375 
L 18.40625 75.984375 
L 18.40625 0 
L 9.421875 0 
z
" id="DejaVuSans-108"/>
      <path d="M 44.28125 53.078125 
L 44.28125 44.578125 
Q 40.484375 46.53125 36.375 47.5 
Q 32.28125 48.484375 27.875 48.484375 
Q 21.1875 48.484375 17.84375 46.4375 
Q 14.5 44.390625 14.5 40.28125 
Q 14.5 37.15625 16.890625 35.375 
Q 19.28125 33.59375 26.515625 31.984375 
L 29.59375 31.296875 
Q 39.15625 29.25 43.1875 25.515625 
Q 47.21875 21.78125 47.21875 15.09375 
Q 47.21875 7.46875 41.1875 3.015625 
Q 35.15625 -1.421875 24.609375 -1.421875 
Q 20.21875 -1.421875 15.453125 -0.5625 
Q 10.6875 0.296875 5.421875 2 
L 5.421875 11.28125 
Q 10.40625 8.6875 15.234375 7.390625 
Q 20.0625 6.109375 24.8125 6.109375 
Q 31.15625 6.109375 34.5625 8.28125 
Q 37.984375 10.453125 37.984375 14.40625 
Q 37.984375 18.0625 35.515625 20.015625 
Q 33.0625 21.96875 24.703125 23.78125 
L 21.578125 24.515625 
Q 13.234375 26.265625 9.515625 29.90625 
Q 5.8125 33.546875 5.8125 39.890625 
Q 5.8125 47.609375 11.28125 51.796875 
Q 16.75 56 26.8125 56 
Q 31.78125 56 36.171875 55.265625 
Q 40.578125 54.546875 44.28125 53.078125 
z
" id="DejaVuSans-115"/>
     </defs>
     <g transform="translate(118.195312 332.037812)rotate(-90)scale(0.1 -0.1)">
      <use xlink:href="#DejaVuSans-108"/>
      <use x="27.783203" xlink:href="#DejaVuSans-111"/>
      <use x="88.964844" xlink:href="#DejaVuSans-115"/>
      <use x="141.064453" xlink:href="#DejaVuSans-115"/>
     </g>
    </g>
   </g>
   <g id="line2d_14">
    <path clip-path="url(#pefd50422b1)" d="M 184.581818 209.310832 
L 190.029042 365.4659 
L 195.476266 388.991838 
L 200.92349 402.734311 
L 206.370714 413.299956 
L 211.817938 422.934425 
L 222.712386 436.782971 
L 228.15961 443.189645 
L 233.606833 448.489202 
L 239.054057 454.307801 
L 244.501281 458.169225 
L 249.948505 462.947208 
L 255.395729 466.731799 
L 260.842953 472.182332 
L 271.737401 479.005471 
L 277.184625 482.790322 
L 282.631849 485.127721 
L 293.526297 492.794354 
L 298.97352 495.984462 
L 309.867968 500.127277 
L 315.315192 503.129552 
L 326.20964 507.749022 
L 331.656864 509.438148 
L 337.104088 510.817127 
L 342.551312 513.411857 
L 347.998536 515.174719 
L 353.44576 517.758362 
L 358.892984 518.64246 
L 364.340207 520.409537 
L 369.787431 522.431764 
L 375.234655 524.14318 
L 380.681879 524.557486 
L 386.129103 525.908783 
L 391.576327 526.904234 
L 397.023551 528.177091 
L 402.470775 527.968287 
L 407.917999 529.157108 
L 413.365223 530.205529 
L 418.812447 530.818884 
L 424.259671 531.149536 
L 429.706894 532.706671 
L 435.154118 533.244843 
L 446.048566 535.048089 
L 451.49579 535.602646 
L 456.943014 536.624157 
L 462.390238 536.596822 
L 467.837462 536.88991 
L 473.284686 538.022785 
L 478.73191 538.471868 
L 484.179134 538.796276 
L 489.626358 538.867446 
L 500.520805 539.338684 
L 511.415253 540.41765 
L 516.862477 540.688674 
L 522.309701 539.872465 
L 527.756925 539.723551 
L 533.204149 539.261523 
L 538.651373 539.217859 
L 544.098597 540.308019 
L 549.545821 540.748002 
L 554.993045 541.367094 
L 560.440268 541.870482 
L 571.334716 542.51667 
L 576.78194 542.132286 
L 582.229164 538.01781 
L 587.676388 539.826346 
L 593.123612 541.056448 
L 604.01806 542.294489 
L 609.465284 542.627834 
L 614.912508 542.1859 
L 620.359732 542.076627 
L 625.806955 542.119966 
L 631.254179 542.43096 
L 636.701403 543.066994 
L 642.148627 543.466537 
L 653.043075 543.716288 
L 674.831971 543.900499 
L 729.30421 544.173794 
L 816.459793 544.384098 
L 974.429286 544.527247 
L 979.87651 542.145843 
L 985.323734 518.3665 
L 990.770958 528.355505 
L 996.218182 531.829831 
L 996.218182 531.829831 
" style="fill:none;stroke:#1f77b4;stroke-linecap:square;stroke-width:1.5;"/>
   </g>
   <g id="line2d_15">
    <path clip-path="url(#pefd50422b1)" d="M 184.581818 179.498883 
L 190.029042 330.790371 
L 195.476266 333.283483 
L 200.92349 337.413904 
L 206.370714 343.27481 
L 211.817938 348.431068 
L 217.265162 353.020872 
L 222.712386 358.791446 
L 228.15961 364.310577 
L 239.054057 374.018596 
L 244.501281 378.265415 
L 249.948505 381.954928 
L 255.395729 385.165432 
L 260.842953 387.711591 
L 266.290177 389.627975 
L 271.737401 391.728369 
L 277.184625 393.010963 
L 282.631849 394.491544 
L 293.526297 397.595323 
L 298.97352 398.329115 
L 304.420744 399.416851 
L 309.867968 400.965029 
L 315.315192 401.864666 
L 320.762416 403.164171 
L 326.20964 403.772507 
L 331.656864 405.004917 
L 337.104088 405.886756 
L 347.998536 407.431874 
L 353.44576 408.43308 
L 358.892984 408.583003 
L 364.340207 409.787689 
L 369.787431 410.426301 
L 375.234655 411.642236 
L 386.129103 412.874724 
L 397.023551 414.453075 
L 402.470775 414.729603 
L 407.917999 415.198073 
L 413.365223 415.445813 
L 418.812447 416.349491 
L 424.259671 417.558166 
L 429.706894 419.762594 
L 435.154118 420.287755 
L 440.601342 421.709228 
L 446.048566 422.673104 
L 451.49579 422.833961 
L 456.943014 423.747903 
L 462.390238 424.790341 
L 467.837462 426.519772 
L 473.284686 428.53563 
L 478.73191 429.987588 
L 489.626358 431.76802 
L 495.073581 432.099835 
L 500.520805 433.044093 
L 505.968029 434.259498 
L 511.415253 435.052006 
L 516.862477 435.354351 
L 527.756925 437.092098 
L 533.204149 437.623316 
L 538.651373 437.605156 
L 544.098597 438.164206 
L 549.545821 438.418916 
L 554.993045 439.789181 
L 560.440268 440.479779 
L 565.887492 440.743404 
L 576.78194 442.677909 
L 582.229164 443.232736 
L 587.676388 442.543509 
L 593.123612 443.091211 
L 598.570836 444.423663 
L 609.465284 445.013518 
L 614.912508 446.401297 
L 625.806955 446.921432 
L 631.254179 448.221222 
L 636.701403 449.115601 
L 642.148627 450.842004 
L 653.043075 451.176655 
L 658.490299 451.723712 
L 663.937523 453.08633 
L 669.384747 454.085531 
L 674.831971 454.82587 
L 680.279195 456.795387 
L 685.726419 457.607669 
L 691.173642 459.167859 
L 702.06809 460.066331 
L 707.515314 460.850326 
L 718.409762 463.207502 
L 723.856986 463.122564 
L 734.751434 465.121916 
L 745.645882 465.962766 
L 751.093106 466.618499 
L 756.540329 467.142226 
L 761.987553 467.845443 
L 767.434777 467.557665 
L 772.882001 468.786172 
L 778.329225 470.385119 
L 783.776449 470.498619 
L 789.223673 470.779856 
L 794.670897 472.007521 
L 800.118121 472.337013 
L 805.565345 473.11702 
L 811.012569 473.69188 
L 816.459793 473.789298 
L 827.35424 475.121616 
L 832.801464 475.139903 
L 843.695912 475.660796 
L 849.143136 476.961104 
L 854.59036 476.941953 
L 860.037584 477.288986 
L 865.484808 477.049774 
L 870.932032 476.662261 
L 876.379256 478.783726 
L 881.82648 478.774913 
L 887.273703 479.425125 
L 892.720927 478.853959 
L 898.168151 481.034568 
L 903.615375 481.229589 
L 909.062599 481.541538 
L 914.509823 481.037997 
L 919.957047 481.538057 
L 925.404271 482.719053 
L 930.851495 483.005084 
L 941.745943 483.987115 
L 947.193167 484.799855 
L 952.64039 484.648389 
L 958.087614 484.819011 
L 963.534838 485.409231 
L 968.982062 485.193799 
L 974.429286 484.753965 
L 979.87651 486.455007 
L 985.323734 486.058736 
L 990.770958 486.457295 
L 996.218182 486.058888 
L 996.218182 486.058888 
" style="fill:none;stroke:#ff7f0e;stroke-linecap:square;stroke-width:1.5;"/>
   </g>
   <g id="line2d_16">
    <path clip-path="url(#pefd50422b1)" d="M 184.581818 312.345336 
L 190.029042 363.869836 
L 200.92349 401.869461 
L 206.370714 413.967346 
L 211.817938 425.424567 
L 222.712386 444.916151 
L 228.15961 451.406616 
L 239.054057 463.512664 
L 244.501281 468.332194 
L 249.948505 474.608125 
L 255.395729 478.492436 
L 260.842953 483.290683 
L 266.290177 487.250311 
L 271.737401 491.62762 
L 277.184625 497.583198 
L 288.079073 504.786661 
L 293.526297 508.106676 
L 298.97352 511.706179 
L 304.420744 514.696488 
L 309.867968 516.501118 
L 315.315192 518.736293 
L 320.762416 520.367518 
L 326.20964 523.357247 
L 331.656864 524.748369 
L 337.104088 528.047787 
L 342.551312 529.943655 
L 347.998536 531.599144 
L 353.44576 531.236862 
L 358.892984 532.787322 
L 364.340207 534.787488 
L 369.787431 534.015063 
L 375.234655 535.872642 
L 380.681879 536.882535 
L 386.129103 537.298543 
L 391.576327 539.062472 
L 397.023551 539.5618 
L 402.470775 540.746212 
L 424.259671 542.448484 
L 456.943014 543.602391 
L 549.545821 544.416732 
L 587.676388 544.531847 
L 712.962538 544.678658 
L 996.218182 544.75487 
L 996.218182 544.75487 
" style="fill:none;stroke:#2ca02c;stroke-linecap:square;stroke-width:1.5;"/>
   </g>
   <g id="line2d_17">
    <path clip-path="url(#pefd50422b1)" d="M 184.581818 298.295824 
L 190.029042 330.308674 
L 195.476266 333.428293 
L 200.92349 338.768727 
L 206.370714 344.802564 
L 211.817938 351.845406 
L 217.265162 359.545891 
L 228.15961 373.825092 
L 233.606833 380.142425 
L 239.054057 386.802541 
L 244.501281 393.208624 
L 249.948505 400.719841 
L 260.842953 412.580678 
L 266.290177 417.641717 
L 271.737401 422.482307 
L 282.631849 431.864911 
L 288.079073 434.971431 
L 298.97352 442.228567 
L 304.420744 445.600876 
L 309.867968 447.805221 
L 320.762416 453.827421 
L 326.20964 456.01262 
L 331.656864 457.937938 
L 337.104088 460.345135 
L 342.551312 462.553514 
L 347.998536 464.06453 
L 353.44576 466.896594 
L 358.892984 469.26323 
L 364.340207 471.085994 
L 369.787431 472.566791 
L 375.234655 474.524101 
L 386.129103 479.074086 
L 397.023551 482.239344 
L 402.470775 483.587618 
L 407.917999 485.684802 
L 413.365223 487.368729 
L 418.812447 488.435851 
L 424.259671 490.532389 
L 429.706894 491.673241 
L 435.154118 493.405636 
L 440.601342 494.898221 
L 446.048566 496.140606 
L 451.49579 498.603666 
L 456.943014 499.127958 
L 462.390238 501.679529 
L 467.837462 503.020682 
L 473.284686 503.954327 
L 478.73191 505.53239 
L 484.179134 506.610076 
L 489.626358 507.021085 
L 495.073581 508.796776 
L 500.520805 509.394455 
L 505.968029 510.653633 
L 522.309701 512.813557 
L 527.756925 515.220892 
L 533.204149 514.25838 
L 538.651373 515.882765 
L 544.098597 517.306073 
L 549.545821 519.03901 
L 554.993045 519.510372 
L 560.440268 520.597565 
L 565.887492 521.349971 
L 571.334716 521.519196 
L 582.229164 523.00793 
L 587.676388 523.892339 
L 593.123612 524.459533 
L 598.570836 526.087546 
L 604.01806 526.240661 
L 609.465284 525.989978 
L 614.912508 526.911525 
L 631.254179 529.102177 
L 636.701403 530.045859 
L 642.148627 529.829524 
L 647.595851 530.795489 
L 653.043075 531.185931 
L 658.490299 531.759645 
L 663.937523 531.787684 
L 669.384747 531.509676 
L 674.831971 533.040608 
L 680.279195 531.286989 
L 685.726419 533.301296 
L 691.173642 532.413588 
L 696.620866 531.785938 
L 702.06809 533.667822 
L 707.515314 534.50388 
L 712.962538 534.977853 
L 718.409762 535.232128 
L 723.856986 536.428616 
L 729.30421 536.439256 
L 734.751434 536.843858 
L 745.645882 536.886717 
L 751.093106 537.861818 
L 761.987553 537.700778 
L 767.434777 537.634261 
L 772.882001 537.689453 
L 778.329225 538.018719 
L 783.776449 537.917162 
L 789.223673 537.950932 
L 794.670897 537.348129 
L 800.118121 537.485563 
L 805.565345 538.563154 
L 811.012569 538.711176 
L 816.459793 538.357863 
L 821.907016 538.119939 
L 827.35424 537.535365 
L 832.801464 537.96975 
L 838.248688 538.013152 
L 843.695912 537.474674 
L 849.143136 535.806199 
L 854.59036 536.484474 
L 860.037584 535.147122 
L 865.484808 538.235914 
L 870.932032 540.382823 
L 876.379256 540.875951 
L 881.82648 540.763209 
L 892.720927 540.918431 
L 903.615375 541.304198 
L 909.062599 541.291032 
L 914.509823 541.944526 
L 919.957047 541.910389 
L 930.851495 542.256611 
L 936.298719 541.962477 
L 941.745943 541.975469 
L 947.193167 541.704372 
L 952.64039 540.402692 
L 958.087614 540.174268 
L 963.534838 540.317481 
L 968.982062 541.578574 
L 974.429286 541.824395 
L 979.87651 542.364453 
L 985.323734 542.690207 
L 990.770958 542.701272 
L 996.218182 542.849109 
L 996.218182 542.849109 
" style="fill:none;stroke:#d62728;stroke-linecap:square;stroke-width:1.5;"/>
   </g>
   <g id="line2d_18"/>
   <g id="line2d_19"/>
   <g id="line2d_20"/>
   <g id="line2d_21"/>
   <g id="line2d_22"/>
   <g id="patch_3">
    <path d="M 144 567 
L 144 77.76 
" style="fill:none;stroke:#000000;stroke-linecap:square;stroke-linejoin:miter;stroke-width:0.8;"/>
   </g>
   <g id="patch_4">
    <path d="M 1036.8 567 
L 1036.8 77.76 
" style="fill:none;stroke:#000000;stroke-linecap:square;stroke-linejoin:miter;stroke-width:0.8;"/>
   </g>
   <g id="patch_5">
    <path d="M 144 567 
L 1036.8 567 
" style="fill:none;stroke:#000000;stroke-linecap:square;stroke-linejoin:miter;stroke-width:0.8;"/>
   </g>
   <g id="patch_6">
    <path d="M 144 77.76 
L 1036.8 77.76 
" style="fill:none;stroke:#000000;stroke-linecap:square;stroke-linejoin:miter;stroke-width:0.8;"/>
   </g>
   <g id="text_16">
    <!-- Loss (train) -->
    <defs>
     <path d="M 9.8125 72.90625 
L 19.671875 72.90625 
L 19.671875 8.296875 
L 55.171875 8.296875 
L 55.171875 0 
L 9.8125 0 
z
" id="DejaVuSans-76"/>
     <path id="DejaVuSans-32"/>
     <path d="M 31 75.875 
Q 24.46875 64.65625 21.28125 53.65625 
Q 18.109375 42.671875 18.109375 31.390625 
Q 18.109375 20.125 21.3125 9.0625 
Q 24.515625 -2 31 -13.1875 
L 23.1875 -13.1875 
Q 15.875 -1.703125 12.234375 9.375 
Q 8.59375 20.453125 8.59375 31.390625 
Q 8.59375 42.28125 12.203125 53.3125 
Q 15.828125 64.359375 23.1875 75.875 
z
" id="DejaVuSans-40"/>
     <path d="M 18.3125 70.21875 
L 18.3125 54.6875 
L 36.8125 54.6875 
L 36.8125 47.703125 
L 18.3125 47.703125 
L 18.3125 18.015625 
Q 18.3125 11.328125 20.140625 9.421875 
Q 21.96875 7.515625 27.59375 7.515625 
L 36.8125 7.515625 
L 36.8125 0 
L 27.59375 0 
Q 17.1875 0 13.234375 3.875 
Q 9.28125 7.765625 9.28125 18.015625 
L 9.28125 47.703125 
L 2.6875 47.703125 
L 2.6875 54.6875 
L 9.28125 54.6875 
L 9.28125 70.21875 
z
" id="DejaVuSans-116"/>
     <path d="M 41.109375 46.296875 
Q 39.59375 47.171875 37.8125 47.578125 
Q 36.03125 48 33.890625 48 
Q 26.265625 48 22.1875 43.046875 
Q 18.109375 38.09375 18.109375 28.8125 
L 18.109375 0 
L 9.078125 0 
L 9.078125 54.6875 
L 18.109375 54.6875 
L 18.109375 46.1875 
Q 20.953125 51.171875 25.484375 53.578125 
Q 30.03125 56 36.53125 56 
Q 37.453125 56 38.578125 55.875 
Q 39.703125 55.765625 41.0625 55.515625 
z
" id="DejaVuSans-114"/>
     <path d="M 34.28125 27.484375 
Q 23.390625 27.484375 19.1875 25 
Q 14.984375 22.515625 14.984375 16.5 
Q 14.984375 11.71875 18.140625 8.90625 
Q 21.296875 6.109375 26.703125 6.109375 
Q 34.1875 6.109375 38.703125 11.40625 
Q 43.21875 16.703125 43.21875 25.484375 
L 43.21875 27.484375 
z
M 52.203125 31.203125 
L 52.203125 0 
L 43.21875 0 
L 43.21875 8.296875 
Q 40.140625 3.328125 35.546875 0.953125 
Q 30.953125 -1.421875 24.3125 -1.421875 
Q 15.921875 -1.421875 10.953125 3.296875 
Q 6 8.015625 6 15.921875 
Q 6 25.140625 12.171875 29.828125 
Q 18.359375 34.515625 30.609375 34.515625 
L 43.21875 34.515625 
L 43.21875 35.40625 
Q 43.21875 41.609375 39.140625 45 
Q 35.0625 48.390625 27.6875 48.390625 
Q 23 48.390625 18.546875 47.265625 
Q 14.109375 46.140625 10.015625 43.890625 
L 10.015625 52.203125 
Q 14.9375 54.109375 19.578125 55.046875 
Q 24.21875 56 28.609375 56 
Q 40.484375 56 46.34375 49.84375 
Q 52.203125 43.703125 52.203125 31.203125 
z
" id="DejaVuSans-97"/>
     <path d="M 9.421875 54.6875 
L 18.40625 54.6875 
L 18.40625 0 
L 9.421875 0 
z
M 9.421875 75.984375 
L 18.40625 75.984375 
L 18.40625 64.59375 
L 9.421875 64.59375 
z
" id="DejaVuSans-105"/>
     <path d="M 54.890625 33.015625 
L 54.890625 0 
L 45.90625 0 
L 45.90625 32.71875 
Q 45.90625 40.484375 42.875 44.328125 
Q 39.84375 48.1875 33.796875 48.1875 
Q 26.515625 48.1875 22.3125 43.546875 
Q 18.109375 38.921875 18.109375 30.90625 
L 18.109375 0 
L 9.078125 0 
L 9.078125 54.6875 
L 18.109375 54.6875 
L 18.109375 46.1875 
Q 21.34375 51.125 25.703125 53.5625 
Q 30.078125 56 35.796875 56 
Q 45.21875 56 50.046875 50.171875 
Q 54.890625 44.34375 54.890625 33.015625 
z
" id="DejaVuSans-110"/>
     <path d="M 8.015625 75.875 
L 15.828125 75.875 
Q 23.140625 64.359375 26.78125 53.3125 
Q 30.421875 42.28125 30.421875 31.390625 
Q 30.421875 20.453125 26.78125 9.375 
Q 23.140625 -1.703125 15.828125 -13.1875 
L 8.015625 -13.1875 
Q 14.5 -2 17.703125 9.0625 
Q 20.90625 20.125 20.90625 31.390625 
Q 20.90625 42.671875 17.703125 53.65625 
Q 14.5 64.65625 8.015625 75.875 
z
" id="DejaVuSans-41"/>
    </defs>
    <g transform="translate(556.581563 71.76)scale(0.12 -0.12)">
     <use xlink:href="#DejaVuSans-76"/>
     <use x="55.697266" xlink:href="#DejaVuSans-111"/>
     <use x="116.878906" xlink:href="#DejaVuSans-115"/>
     <use x="168.978516" xlink:href="#DejaVuSans-115"/>
     <use x="221.078125" xlink:href="#DejaVuSans-32"/>
     <use x="252.865234" xlink:href="#DejaVuSans-40"/>
     <use x="291.878906" xlink:href="#DejaVuSans-116"/>
     <use x="331.087891" xlink:href="#DejaVuSans-114"/>
     <use x="372.201172" xlink:href="#DejaVuSans-97"/>
     <use x="433.480469" xlink:href="#DejaVuSans-105"/>
     <use x="461.263672" xlink:href="#DejaVuSans-110"/>
     <use x="524.642578" xlink:href="#DejaVuSans-41"/>
    </g>
   </g>
   <g id="legend_1">
    <g id="patch_7">
     <path d="M 952.470312 159.706875 
L 1029.8 159.706875 
Q 1031.8 159.706875 1031.8 157.706875 
L 1031.8 84.76 
Q 1031.8 82.76 1029.8 82.76 
L 952.470312 82.76 
Q 950.470312 82.76 950.470312 84.76 
L 950.470312 157.706875 
Q 950.470312 159.706875 952.470312 159.706875 
z
" style="fill:#ffffff;opacity:0.8;stroke:#cccccc;stroke-linejoin:miter;"/>
    </g>
    <g id="line2d_23">
     <path d="M 954.470312 90.858437 
L 974.470312 90.858437 
" style="fill:none;"/>
    </g>
    <g id="line2d_24"/>
    <g id="text_17">
     <!-- model -->
     <defs>
      <path d="M 52 44.1875 
Q 55.375 50.25 60.0625 53.125 
Q 64.75 56 71.09375 56 
Q 79.640625 56 84.28125 50.015625 
Q 88.921875 44.046875 88.921875 33.015625 
L 88.921875 0 
L 79.890625 0 
L 79.890625 32.71875 
Q 79.890625 40.578125 77.09375 44.375 
Q 74.3125 48.1875 68.609375 48.1875 
Q 61.625 48.1875 57.5625 43.546875 
Q 53.515625 38.921875 53.515625 30.90625 
L 53.515625 0 
L 44.484375 0 
L 44.484375 32.71875 
Q 44.484375 40.625 41.703125 44.40625 
Q 38.921875 48.1875 33.109375 48.1875 
Q 26.21875 48.1875 22.15625 43.53125 
Q 18.109375 38.875 18.109375 30.90625 
L 18.109375 0 
L 9.078125 0 
L 9.078125 54.6875 
L 18.109375 54.6875 
L 18.109375 46.1875 
Q 21.1875 51.21875 25.484375 53.609375 
Q 29.78125 56 35.6875 56 
Q 41.65625 56 45.828125 52.96875 
Q 50 49.953125 52 44.1875 
z
" id="DejaVuSans-109"/>
      <path d="M 45.40625 46.390625 
L 45.40625 75.984375 
L 54.390625 75.984375 
L 54.390625 0 
L 45.40625 0 
L 45.40625 8.203125 
Q 42.578125 3.328125 38.25 0.953125 
Q 33.9375 -1.421875 27.875 -1.421875 
Q 17.96875 -1.421875 11.734375 6.484375 
Q 5.515625 14.40625 5.515625 27.296875 
Q 5.515625 40.1875 11.734375 48.09375 
Q 17.96875 56 27.875 56 
Q 33.9375 56 38.25 53.625 
Q 42.578125 51.265625 45.40625 46.390625 
z
M 14.796875 27.296875 
Q 14.796875 17.390625 18.875 11.75 
Q 22.953125 6.109375 30.078125 6.109375 
Q 37.203125 6.109375 41.296875 11.75 
Q 45.40625 17.390625 45.40625 27.296875 
Q 45.40625 37.203125 41.296875 42.84375 
Q 37.203125 48.484375 30.078125 48.484375 
Q 22.953125 48.484375 18.875 42.84375 
Q 14.796875 37.203125 14.796875 27.296875 
z
" id="DejaVuSans-100"/>
     </defs>
     <g transform="translate(982.470312 94.358437)scale(0.1 -0.1)">
      <use xlink:href="#DejaVuSans-109"/>
      <use x="97.412109" xlink:href="#DejaVuSans-111"/>
      <use x="158.59375" xlink:href="#DejaVuSans-100"/>
      <use x="222.070312" xlink:href="#DejaVuSans-101"/>
      <use x="283.59375" xlink:href="#DejaVuSans-108"/>
     </g>
    </g>
    <g id="line2d_25">
     <path d="M 954.470312 105.536562 
L 974.470312 105.536562 
" style="fill:none;stroke:#1f77b4;stroke-linecap:square;stroke-width:1.5;"/>
    </g>
    <g id="line2d_26"/>
    <g id="text_18">
     <!-- FC -->
     <defs>
      <path d="M 9.8125 72.90625 
L 51.703125 72.90625 
L 51.703125 64.59375 
L 19.671875 64.59375 
L 19.671875 43.109375 
L 48.578125 43.109375 
L 48.578125 34.8125 
L 19.671875 34.8125 
L 19.671875 0 
L 9.8125 0 
z
" id="DejaVuSans-70"/>
      <path d="M 64.40625 67.28125 
L 64.40625 56.890625 
Q 59.421875 61.53125 53.78125 63.8125 
Q 48.140625 66.109375 41.796875 66.109375 
Q 29.296875 66.109375 22.65625 58.46875 
Q 16.015625 50.828125 16.015625 36.375 
Q 16.015625 21.96875 22.65625 14.328125 
Q 29.296875 6.6875 41.796875 6.6875 
Q 48.140625 6.6875 53.78125 8.984375 
Q 59.421875 11.28125 64.40625 15.921875 
L 64.40625 5.609375 
Q 59.234375 2.09375 53.4375 0.328125 
Q 47.65625 -1.421875 41.21875 -1.421875 
Q 24.65625 -1.421875 15.125 8.703125 
Q 5.609375 18.84375 5.609375 36.375 
Q 5.609375 53.953125 15.125 64.078125 
Q 24.65625 74.21875 41.21875 74.21875 
Q 47.75 74.21875 53.53125 72.484375 
Q 59.328125 70.75 64.40625 67.28125 
z
" id="DejaVuSans-67"/>
     </defs>
     <g transform="translate(982.470312 109.036562)scale(0.1 -0.1)">
      <use xlink:href="#DejaVuSans-70"/>
      <use x="57.519531" xlink:href="#DejaVuSans-67"/>
     </g>
    </g>
    <g id="line2d_27">
     <path d="M 954.470312 120.214687 
L 974.470312 120.214687 
" style="fill:none;stroke:#ff7f0e;stroke-linecap:square;stroke-width:1.5;"/>
    </g>
    <g id="line2d_28"/>
    <g id="text_19">
     <!-- FC_aux -->
     <defs>
      <path d="M 50.984375 -16.609375 
L 50.984375 -23.578125 
L -0.984375 -23.578125 
L -0.984375 -16.609375 
z
" id="DejaVuSans-95"/>
      <path d="M 8.5 21.578125 
L 8.5 54.6875 
L 17.484375 54.6875 
L 17.484375 21.921875 
Q 17.484375 14.15625 20.5 10.265625 
Q 23.53125 6.390625 29.59375 6.390625 
Q 36.859375 6.390625 41.078125 11.03125 
Q 45.3125 15.671875 45.3125 23.6875 
L 45.3125 54.6875 
L 54.296875 54.6875 
L 54.296875 0 
L 45.3125 0 
L 45.3125 8.40625 
Q 42.046875 3.421875 37.71875 1 
Q 33.40625 -1.421875 27.6875 -1.421875 
Q 18.265625 -1.421875 13.375 4.4375 
Q 8.5 10.296875 8.5 21.578125 
z
M 31.109375 56 
z
" id="DejaVuSans-117"/>
      <path d="M 54.890625 54.6875 
L 35.109375 28.078125 
L 55.90625 0 
L 45.3125 0 
L 29.390625 21.484375 
L 13.484375 0 
L 2.875 0 
L 24.125 28.609375 
L 4.6875 54.6875 
L 15.28125 54.6875 
L 29.78125 35.203125 
L 44.28125 54.6875 
z
" id="DejaVuSans-120"/>
     </defs>
     <g transform="translate(982.470312 123.714687)scale(0.1 -0.1)">
      <use xlink:href="#DejaVuSans-70"/>
      <use x="57.519531" xlink:href="#DejaVuSans-67"/>
      <use x="127.34375" xlink:href="#DejaVuSans-95"/>
      <use x="177.34375" xlink:href="#DejaVuSans-97"/>
      <use x="238.623047" xlink:href="#DejaVuSans-117"/>
      <use x="302.001953" xlink:href="#DejaVuSans-120"/>
     </g>
    </g>
    <g id="line2d_29">
     <path d="M 954.470312 135.170937 
L 974.470312 135.170937 
" style="fill:none;stroke:#2ca02c;stroke-linecap:square;stroke-width:1.5;"/>
    </g>
    <g id="line2d_30"/>
    <g id="text_20">
     <!-- CNN -->
     <defs>
      <path d="M 9.8125 72.90625 
L 23.09375 72.90625 
L 55.421875 11.921875 
L 55.421875 72.90625 
L 64.984375 72.90625 
L 64.984375 0 
L 51.703125 0 
L 19.390625 60.984375 
L 19.390625 0 
L 9.8125 0 
z
" id="DejaVuSans-78"/>
     </defs>
     <g transform="translate(982.470312 138.670937)scale(0.1 -0.1)">
      <use xlink:href="#DejaVuSans-67"/>
      <use x="69.824219" xlink:href="#DejaVuSans-78"/>
      <use x="144.628906" xlink:href="#DejaVuSans-78"/>
     </g>
    </g>
    <g id="line2d_31">
     <path d="M 954.470312 149.849062 
L 974.470312 149.849062 
" style="fill:none;stroke:#d62728;stroke-linecap:square;stroke-width:1.5;"/>
    </g>
    <g id="line2d_32"/>
    <g id="text_21">
     <!-- CNN_aux -->
     <g transform="translate(982.470312 153.349062)scale(0.1 -0.1)">
      <use xlink:href="#DejaVuSans-67"/>
      <use x="69.824219" xlink:href="#DejaVuSans-78"/>
      <use x="144.628906" xlink:href="#DejaVuSans-78"/>
      <use x="219.433594" xlink:href="#DejaVuSans-95"/>
      <use x="269.433594" xlink:href="#DejaVuSans-97"/>
      <use x="330.712891" xlink:href="#DejaVuSans-117"/>
      <use x="394.091797" xlink:href="#DejaVuSans-120"/>
     </g>
    </g>
   </g>
  </g>
 </g>
 <defs>
  <clipPath id="pefd50422b1">
   <rect height="489.24" width="892.8" x="144" y="77.76"/>
  </clipPath>
 </defs>
</svg>
